<?xml version="1.0" encoding="iso-8859-1"?>
<!-- Generator: Adobe Illustrator 21.0.0, SVG Export Plug-In . SVG Version: 6.00 Build 0)  -->
<svg version="1.1" id="Capa_1" xmlns="http://www.w3.org/2000/svg" xmlns:xlink="http://www.w3.org/1999/xlink" x="0px" y="0px"
	 viewBox="0 0 512 512" style="enable-background:new 0 0 512 512;" xml:space="preserve">
<polygon style="fill:#FF6529;" points="301,37.5 301,7.5 271,7.5 271,37.5 241,37.5 241,7.5 211,7.5 211,37.5 181,37.5 181,7.5 
	151,7.5 151,187.5 346,187.5 346,37.5 "/>
<rect x="331" y="7.5" style="fill:#FF4A26;" width="30" height="180"/>
<polygon style="fill:#FF6529;" points="481,82.5 481,247.5 376,247.5 451,82.5 "/>
<polygon style="fill:#FF812D;" points="451,82.5 451,127.5 436,142.5 451,157.5 451,247.5 31,247.5 31,82.5 121,82.5 121,157.5 
	391,157.5 391,82.5 "/>
<polygon style="fill:#FFE373;" points="504.5,384.2 504.5,429.5 474.5,429.5 414.5,339.2 "/>
<polygon style="fill:#FFEFB0;" points="474.5,324.2 414.5,429.5 384.5,429.5 354.5,399.5 324.5,429.5 294.5,429.5 256,399.5 
	217.5,429.5 187.5,429.5 157.5,399.5 127.5,429.5 97.5,429.5 67.5,399.5 37.5,429.5 7.5,429.5 7.5,384.2 67.5,324.2 "/>
<polygon style="fill:#7A4235;" points="481,217.5 504.5,262.5 451,322.5 451,217.5 "/>
<polygon style="fill:#95472C;" points="451,217.5 474.5,262.5 241,322.5 7.5,262.5 31,217.5 "/>
<polygon style="fill:#FFB833;" points="474.5,262.5 414.5,323.35 474.5,384.2 504.5,384.2 504.5,262.5 "/>
<polygon style="fill:#FFCE53;" points="474.5,262.5 474.5,352.5 459.5,384.2 7.5,384.2 7.5,262.5 "/>
<g>
	<path style="fill:#7A4235;" d="M76,112.5c-8.284,0-15,6.716-15,15v30h30v-30C91,119.216,84.284,112.5,76,112.5z"/>
	<path style="fill:#7A4235;" d="M436,112.5c-8.284,0-15,6.716-15,15v30h30v-30C451,119.216,444.284,112.5,436,112.5z"/>
</g>
<path style="fill:#FF6529;" d="M97.5,352.5c0-16.569-13.431-30-30-30l-15,53.5l15,53.5h30V352.5z"/>
<path style="fill:#FF2E23;" d="M294.5,331c0-21.263-17.237-38.5-38.5-38.5l-19.25,68.658L256,429.5h38.5V331z"/>
<path style="fill:#FF4A26;" d="M217.5,331v98.5H256v-137C234.737,292.5,217.5,309.737,217.5,331z"/>
<path style="fill:#FF812D;" d="M37.5,352.5v77h30v-107C50.931,322.5,37.5,335.931,37.5,352.5z"/>
<path style="fill:#FF6529;" d="M187.5,352.5c0-16.569-13.431-30-30-30l-15,53.5l15,53.5h30V352.5z"/>
<path style="fill:#FF812D;" d="M127.5,352.5v77h30v-107C140.931,322.5,127.5,335.931,127.5,352.5z"/>
<path style="fill:#FF6529;" d="M384.5,352.5c0-16.569-13.431-30-30-30l-15,53.5l15,53.5h30V352.5z"/>
<path style="fill:#FF812D;" d="M324.5,352.5v77h30v-107C337.931,322.5,324.5,335.931,324.5,352.5z"/>
<path style="fill:#FF6529;" d="M474.5,352.5c0-16.569-13.431-30-30-30l-15,53.5l15,53.5h30V352.5z"/>
<path style="fill:#FF812D;" d="M414.5,352.5v77h30v-107C427.931,322.5,414.5,335.931,414.5,352.5z"/>
<polygon style="fill:#43AAF0;" points="384.5,459.5 354.5,459.5 348.287,482 414.5,504.5 444.5,504.5 "/>
<polygon style="fill:#81C6F6;" points="127.5,459.5 67.5,504.5 414.5,504.5 354.5,459.5 "/>
<path d="M511.949,261.651c-0.008-0.072-0.022-0.143-0.033-0.215c-0.03-0.212-0.067-0.422-0.115-0.628
	c-0.018-0.077-0.039-0.154-0.059-0.23c-0.054-0.204-0.116-0.404-0.186-0.601c-0.025-0.07-0.049-0.14-0.076-0.209
	c-0.086-0.219-0.182-0.433-0.287-0.641c-0.016-0.032-0.027-0.066-0.044-0.098l-0.043-0.082
	c-0.016-0.031-22.605-43.287-22.605-43.287V67.5c0-4.143-3.358-7.5-7.5-7.5s-7.5,3.357-7.5,7.5V75h-15v-7.5
	c0-4.143-3.358-7.5-7.5-7.5s-7.5,3.357-7.5,7.5V75h-15v-7.5c0-4.143-3.358-7.5-7.5-7.5s-7.5,3.357-7.5,7.5V75h-15v-7.5
	c0-4.143-3.358-7.5-7.5-7.5s-7.5,3.357-7.5,7.5V150h-255V67.5c0-4.143-3.358-7.5-7.5-7.5s-7.5,3.357-7.5,7.5V75h-15v-7.5
	c0-4.143-3.358-7.5-7.5-7.5s-7.5,3.357-7.5,7.5V75h-15v-7.5c0-4.143-3.358-7.5-7.5-7.5s-7.5,3.357-7.5,7.5V75h-15v-7.5
	c0-4.143-3.358-7.5-7.5-7.5s-7.5,3.357-7.5,7.5v148.159l-22.59,43.256c-0.016,0.031-0.059,0.114-0.059,0.114
	c-0.017,0.032-0.028,0.066-0.044,0.098c-0.105,0.209-0.201,0.422-0.287,0.641c-0.027,0.069-0.051,0.139-0.076,0.209
	c-0.07,0.197-0.132,0.397-0.186,0.601c-0.02,0.077-0.041,0.153-0.059,0.23c-0.048,0.206-0.084,0.416-0.115,0.628
	c-0.01,0.072-0.025,0.143-0.033,0.215C0.02,261.93,0,262.212,0,262.5v167c0,4.143,3.358,7.5,7.5,7.5h497c4.142,0,7.5-3.357,7.5-7.5
	v-167C512,262.212,511.98,261.93,511.949,261.651z M45,352.5c0-12.406,10.093-22.5,22.5-22.5S90,340.094,90,352.5V422H45V352.5z
	 M105,391.7h15V422h-15V391.7z M135,352.5c0-12.406,10.093-22.5,22.5-22.5s22.5,10.094,22.5,22.5V422h-45V352.5z M195,391.7h15V422
	h-15V391.7z M225,331c0-17.094,13.907-31,31-31s31,13.906,31,31v91h-62V331z M302,391.7h15V422h-15V391.7z M332,352.5
	c0-12.406,10.093-22.5,22.5-22.5s22.5,10.094,22.5,22.5V422h-45V352.5z M392,391.7h15V422h-15V391.7z M422,352.5
	c0-12.406,10.093-22.5,22.5-22.5s22.5,10.094,22.5,22.5V422h-45V352.5z M444.5,315c-20.678,0-37.5,16.822-37.5,37.5v24.2h-15v-24.2
	c0-20.678-16.822-37.5-37.5-37.5S317,331.822,317,352.5v24.2h-15V331c0-25.364-20.636-46-46-46s-46,20.636-46,46v45.7h-15v-24.2
	c0-20.678-16.822-37.5-37.5-37.5S120,331.822,120,352.5v24.2h-15v-24.2c0-20.678-16.822-37.5-37.5-37.5S30,331.822,30,352.5v24.2H15
	V270h482v106.7h-15v-24.2C482,331.822,465.178,315,444.5,315z M113.5,90v67.5c0,4.143,3.358,7.5,7.5,7.5h270
	c4.142,0,7.5-3.357,7.5-7.5V90h75v120H91c-4.142,0-7.5,3.357-7.5,7.5s3.358,7.5,7.5,7.5h385.456l15.666,30H19.878l15.666-30H61
	c4.142,0,7.5-3.357,7.5-7.5S65.142,210,61,210H38.5V90H113.5z M15,391.7h15V422H15V391.7z M482,422v-30.3h15V422H482z"/>
<path d="M151,135c4.142,0,7.5-3.357,7.5-7.5V15h15v22.5c0,4.143,3.358,7.5,7.5,7.5h30c4.142,0,7.5-3.357,7.5-7.5V15h15v22.5
	c0,4.143,3.358,7.5,7.5,7.5h30c4.142,0,7.5-3.357,7.5-7.5V15h15v22.5c0,4.143,3.358,7.5,7.5,7.5h30c4.142,0,7.5-3.357,7.5-7.5V15h15
	v112.5c0,4.143,3.358,7.5,7.5,7.5s7.5-3.357,7.5-7.5V7.5c0-4.143-3.358-7.5-7.5-7.5h-30c-4.142,0-7.5,3.357-7.5,7.5V30h-15V7.5
	c0-4.143-3.358-7.5-7.5-7.5h-30c-4.142,0-7.5,3.357-7.5,7.5V30h-15V7.5c0-4.143-3.358-7.5-7.5-7.5h-30c-4.142,0-7.5,3.357-7.5,7.5
	V30h-15V7.5c0-4.143-3.358-7.5-7.5-7.5h-30c-4.142,0-7.5,3.357-7.5,7.5v120C143.5,131.643,146.858,135,151,135z"/>
<path d="M61,165h30c4.142,0,7.5-3.357,7.5-7.5v-30c0-12.406-10.093-22.5-22.5-22.5s-22.5,10.094-22.5,22.5v30
	C53.5,161.643,56.858,165,61,165z M68.5,127.5c0-4.136,3.364-7.5,7.5-7.5s7.5,3.364,7.5,7.5V150h-15V127.5z"/>
<path d="M421,165h30c4.142,0,7.5-3.357,7.5-7.5v-30c0-12.406-10.093-22.5-22.5-22.5s-22.5,10.094-22.5,22.5v30
	C413.5,161.643,416.858,165,421,165z M428.5,127.5c0-4.136,3.364-7.5,7.5-7.5s7.5,3.364,7.5,7.5V150h-15V127.5z"/>
<path d="M211,60c-4.142,0-7.5,3.357-7.5,7.5v15c0,4.143,3.358,7.5,7.5,7.5s7.5-3.357,7.5-7.5v-15C218.5,63.357,215.142,60,211,60z"
	/>
<path d="M248.5,67.5v15c0,4.143,3.358,7.5,7.5,7.5s7.5-3.357,7.5-7.5v-15c0-4.143-3.358-7.5-7.5-7.5S248.5,63.357,248.5,67.5z"/>
<path d="M293.5,67.5v15c0,4.143,3.358,7.5,7.5,7.5s7.5-3.357,7.5-7.5v-15c0-4.143-3.358-7.5-7.5-7.5S293.5,63.357,293.5,67.5z"/>
<path d="M448.662,498.247L389,453.5c-1.298-0.974-2.877-1.5-4.5-1.5h-257c-1.623,0-3.202,0.526-4.5,1.5l-60,45
	c-2.583,1.937-3.636,5.31-2.615,8.372S64.272,512,67.5,512h377c4.162,0,7.52-3.357,7.52-7.5
	C452.02,501.89,450.686,499.59,448.662,498.247z M90,497l40-30h252l40,30H90z"/>
<g>
</g>
<g>
</g>
<g>
</g>
<g>
</g>
<g>
</g>
<g>
</g>
<g>
</g>
<g>
</g>
<g>
</g>
<g>
</g>
<g>
</g>
<g>
</g>
<g>
</g>
<g>
</g>
<g>
</g>
</svg>
