<?xml version="1.0" encoding="iso-8859-1"?>
<!-- Generator: Adobe Illustrator 19.0.0, SVG Export Plug-In . SVG Version: 6.00 Build 0)  -->
<svg version="1.1" id="Capa_1" xmlns="http://www.w3.org/2000/svg" xmlns:xlink="http://www.w3.org/1999/xlink" x="0px" y="0px"
	 viewBox="0 0 512.001 512.001" style="enable-background:new 0 0 512.001 512.001;" xml:space="preserve">
<rect x="40" y="7.833" style="fill:#E8D7C4;" width="431.996" height="121.178"/>
<rect x="40" y="80.029" style="fill:#DDC3A4;" width="431.996" height="18.923"/>
<path style="fill:#E0E0E3;" d="M40.006,130.114v359.848H179.8V279.614c0-42.085,34.116-76.201,76.201-76.201l0,0
	c42.085,0,76.201,34.116,76.201,76.201v210.348h139.794V130.114H40.006z"/>
<path style="fill:#E8D7C4;" d="M471.995,130.105v359.853H332.202V279.611c0-2.869-0.162-5.698-0.487-8.486
	c-1.947-17.662-9.936-33.488-21.839-45.391c-13.789-13.789-32.829-22.325-53.877-22.325c-39.216,0-71.508,29.636-75.716,67.716
	c-0.325,2.788-0.487,5.616-0.487,8.486v210.348H40.005V130.105H471.995z"/>
<g>
	<path style="fill:#BCA48A;" d="M354.092,271.125v218.834h-21.89V279.611c0-2.869-0.162-5.698-0.487-8.486H354.092z"/>
	<path style="fill:#BCA48A;" d="M180.285,271.125c-0.325,2.788-0.487,5.616-0.487,8.486v210.348h-22.599V271.125H180.285z"/>
</g>
<path style="fill:#A58E77;" d="M354.092,173.976v97.149h-22.366c-1.947-17.652-9.926-33.488-21.839-45.401
	c-13.799-13.789-32.839-22.315-53.887-22.315c-39.216,0-71.519,29.625-75.726,67.716h-22.366v-97.149H354.092z"/>
<rect x="40.01" y="130.112" style="fill:#BCA48A;" width="431.996" height="43.864"/>
<rect x="40" y="130.112" style="fill:#A58E77;" width="431.996" height="21.933"/>
<g>
	<path style="fill:#DDC3A4;" d="M332.198,291.587h139.797v-20.46H331.719c0.324,2.784,0.48,5.616,0.48,8.484L332.198,291.587
		L332.198,291.587z"/>
	<path style="fill:#DDC3A4;" d="M179.802,291.587v-11.977c0-2.868,0.156-5.7,0.48-8.484H40.006v20.46H179.802z"/>
	<rect x="20.405" y="32.653" style="fill:#DDC3A4;" width="471.19" height="21.354"/>
</g>
<rect x="20.405" y="98.953" style="fill:#E8D7C4;" width="471.19" height="31.162"/>
<g>
	<rect x="381.423" y="206.087" style="fill:#BCA48A;" width="66.446" height="33.965"/>
	<rect x="64.126" y="206.087" style="fill:#BCA48A;" width="66.446" height="33.965"/>
	<path style="fill:#BCA48A;" d="M429.286,345.235c-2.207-0.581-3.771-3.048-3.771-5.869l0,0c0-2.652-1.719-4.801-3.839-4.801h-7.025
		h-7.025c-2.12,0-3.839,2.149-3.839,4.801l0,0c0,2.821-1.564,5.287-3.771,5.869c-6.59,1.736-11.304,9.007-11.304,17.427v28.527
		c0,0.093,0,0.185,0.001,0.278c0.08,13.826,9.248,24.884,20.301,24.884h5.635h5.635c11.054,0,20.222-11.058,20.302-24.884
		c0.001-0.092,0.001-0.185,0.001-0.278v-28.527C440.59,354.243,435.875,346.972,429.286,345.235z"/>
</g>
<rect x="383.972" y="416.719" style="fill:#DDC3A4;" width="61.367" height="70.374"/>
<path style="fill:#BCA48A;" d="M111.983,345.235c-2.207-0.581-3.771-3.048-3.771-5.869l0,0c0-2.652-1.719-4.801-3.839-4.801h-7.025
	h-7.025c-2.12,0-3.839,2.149-3.839,4.801l0,0c0,2.821-1.564,5.287-3.771,5.869c-6.59,1.736-11.304,9.007-11.304,17.427v28.527
	c0,0.093,0,0.185,0.001,0.278c0.08,13.826,9.248,24.884,20.301,24.884h5.635h5.635c11.054,0,20.222-11.058,20.301-24.884
	c0.001-0.092,0.001-0.185,0.001-0.278v-28.527C123.287,354.243,118.573,346.972,111.983,345.235z"/>
<rect x="66.666" y="416.719" style="fill:#DDC3A4;" width="61.367" height="70.374"/>
<g>
	<rect x="27.356" y="482.193" style="fill:#E8D7C4;" width="165.576" height="21.964"/>
	<rect x="319.063" y="482.193" style="fill:#E8D7C4;" width="165.576" height="21.964"/>
</g>
<path d="M505.993,98.953c0-4.328-3.508-7.837-7.837-7.837h-6.561h-2.188h-9.576V61.841h11.764c4.329,0,7.837-3.509,7.837-7.837
	V32.65c0-4.328-3.508-7.837-7.837-7.837h-11.764V7.837c0-4.328-3.508-7.837-7.837-7.837H40.005c-4.328,0-7.837,3.509-7.837,7.837
	v16.977H20.405c-4.328,0-7.837,3.509-7.837,7.837v21.355c0,4.328,3.509,7.837,7.837,7.837h11.763v29.274h-9.576h-2.187h-6.561
	c-4.328,0-7.837,3.509-7.837,7.837c0,3.892,2.841,7.114,6.561,7.724v23.438c0,4.328,3.509,7.837,7.837,7.837h11.763v28.191h-4.964
	c-4.328,0-7.837,3.509-7.837,7.837s3.509,7.837,7.837,7.837h4.964v17.509c0,4.328,3.509,7.837,7.837,7.837s7.837-3.509,7.837-7.837
	v-17.509h102.229v81.478H47.842v-33.078c0-4.328-3.509-7.837-7.837-7.837s-7.837,3.509-7.837,7.837v33.078h-2.627
	c-4.328,0-7.837,3.509-7.837,7.837s3.509,7.837,7.837,7.837h2.627v155.071h-2.627c-4.328,0-7.837,3.509-7.837,7.837
	s3.509,7.837,7.837,7.837h2.627v24.648h-4.815c-4.328,0-7.837,3.509-7.837,7.837v21.967c0,4.328,3.509,7.837,7.837,7.837h165.58
	c4.328,0,7.837-3.509,7.837-7.837v-21.967c0-4.328-3.509-7.837-7.837-7.837h-5.3v-194.75c0-2.534,0.144-5.094,0.429-7.626
	c3.825-34.627,33.032-60.74,67.937-60.74c18.257,0,35.425,7.111,48.347,20.02c10.944,10.944,17.901,25.405,19.592,40.738
	c0.283,2.514,0.427,5.074,0.427,7.608v53.208c0,4.328,3.508,7.837,7.837,7.837c4.329,0,7.837-3.509,7.837-7.837v-53.208
	c0-0.214-0.007-0.429-0.009-0.645h6.225v195.393h-6.216V364.586c0-4.328-3.508-7.837-7.837-7.837s-7.837,3.509-7.837,7.837v109.773
	h-5.298c-4.329,0-7.837,3.509-7.837,7.837v21.967c0,4.328,3.508,7.837,7.837,7.837h165.58c4.329,0,7.837-3.509,7.837-7.837v-21.967
	c0-4.328-3.508-7.837-7.837-7.837h-4.815V449.71h2.628c4.329,0,7.837-3.509,7.837-7.837s-3.508-7.837-7.837-7.837h-2.628v-155.07
	h2.628c4.329,0,7.837-3.509,7.837-7.837s-3.508-7.837-7.837-7.837h-2.628v-81.478h4.965c4.329,0,7.837-3.509,7.837-7.837
	s-3.508-7.837-7.837-7.837h-4.965v-28.191h11.764c4.329,0,7.837-3.509,7.837-7.837v-23.438
	C503.152,106.066,505.993,102.845,505.993,98.953z M464.158,91.116h-29.23V61.841h29.23V91.116z M392.156,91.116V61.841h27.1v29.275
	H392.156z M47.842,15.674h416.317v9.14H47.842V15.674z M28.242,40.487h455.515v5.681H378.003c-4.329,0-7.837,3.509-7.837,7.837
	c0,3.808,2.716,6.978,6.315,7.686v29.425h-27.1V61.701c3.631-0.683,6.379-3.866,6.379-7.696c0-4.328-3.508-7.837-7.837-7.837H28.242
	V40.487z M306.61,91.116V61.841h27.1v29.275H306.61z M263.837,91.116V61.841h27.1v29.275H263.837z M178.292,91.116V61.841h27.1
	v29.275H178.292z M135.52,91.116V61.841h27.099v29.275H135.52z M92.746,91.116V61.841h27.1v29.275H92.746z M221.064,91.116V61.841
	h27.1v29.275H221.064z M47.842,61.841h29.231v29.275H47.842V61.841z M210.763,181.815c-22.59,9.726-36.498,23.972-45.018,37.203
	v-37.203H210.763z M346.255,219.018c-8.521-13.23-22.428-27.477-45.018-37.203h45.018V219.018z M135.87,474.359v-24.648h14.201
	v24.648H135.87z M94.022,342.402h6.655c1.023,5.075,4.567,9.163,9.311,10.411c2.685,0.708,5.463,4.586,5.463,9.848v28.527
	l-0.001,0.232c-0.053,9.265-5.762,17.093-12.465,17.093H91.714c-6.704,0-12.411-7.827-12.465-17.092l-0.001-28.76
	c0-5.264,2.778-9.142,5.463-9.848C89.455,351.565,92.999,347.476,94.022,342.402z M74.502,424.557h45.694v4.179H74.502V424.557z
	 M120.196,449.711v24.648H74.502v-24.648H120.196z M47.842,278.966h102.229v155.071H135.87V416.72c0-4.328-3.509-7.837-7.837-7.837
	h-1.305c2.745-5.038,4.358-10.992,4.395-17.375l0.001-28.846c0-11.238-6.117-20.931-15.116-24.354
	c-0.476-6.185-5.088-11.107-10.823-11.538v-2.006c0-4.328-3.509-7.837-7.837-7.837c-4.328,0-7.837,3.509-7.837,7.837v2.006
	c-5.735,0.43-10.347,5.353-10.822,11.538c-8.998,3.423-15.116,13.116-15.116,24.354v28.527l0.001,0.323
	c0.037,6.38,1.65,12.335,4.395,17.372h-1.304c-4.328,0-7.837,3.509-7.837,7.837v17.317H47.842V278.966z M47.842,449.711h10.987
	v24.648H47.842V449.711z M185.097,496.326H35.19v-6.293h149.906v6.293H185.097z M165.745,474.359V278.966h6.225
	c-0.002,0.214-0.009,0.43-0.009,0.645v194.749H165.745z M173.565,263.292h-7.403c2.08-18.633,14.106-65.433,82.003-75.709v8.35
	C211.111,199.352,180.698,226.78,173.565,263.292z M315.426,220.18c-14.017-14.007-32.107-22.449-51.589-24.24v-8.356
	c67.897,10.275,79.923,57.076,82.003,75.709h-7.397C335.234,247.066,327.21,231.963,315.426,220.18z M361.929,449.711h14.202v24.648
	h-14.202V449.711z M411.324,342.402h6.655c1.023,5.075,4.567,9.163,9.311,10.411c2.684,0.708,5.463,4.586,5.463,9.848v28.527
	l-0.001,0.233c-0.053,9.265-5.762,17.092-12.466,17.092h-11.27c-6.703,0-12.411-7.827-12.466-17.047v-28.804
	c0-5.264,2.778-9.142,5.463-9.848C406.757,351.565,410.302,347.476,411.324,342.402z M391.805,474.359v-24.648h45.694v24.648
	H391.805z M391.805,424.557h45.694v4.179h-45.694V424.557z M476.81,496.326H326.904v-6.293H476.81V496.326z M464.158,474.359
	h-10.986v-24.648h10.986V474.359z M464.158,434.037h-10.986V416.72c0-4.328-3.508-7.837-7.837-7.837h-1.299
	c2.741-5.028,4.351-10.969,4.389-17.33l0.001-28.891c0-11.237-6.118-20.929-15.116-24.354c-0.475-6.185-5.087-11.107-10.822-11.538
	v-2.006c0-4.328-3.508-7.837-7.837-7.837c-4.329,0-7.837,3.509-7.837,7.837v2.006c-5.737,0.43-10.347,5.353-10.822,11.538
	c-8.997,3.424-15.116,13.117-15.116,24.354v28.85c0.038,6.38,1.65,12.334,4.395,17.371h-1.304c-4.329,0-7.837,3.509-7.837,7.837
	v17.317h-14.202V278.966h102.229V434.037z M464.158,263.292H361.929v-81.478h102.229V263.292z M464.158,166.141H354.153
	c-0.021,0-0.041-0.003-0.061-0.003s-0.04,0.003-0.061,0.003H157.968c-0.021,0-0.04-0.003-0.061-0.003s-0.04,0.003-0.061,0.003
	H47.842v-28.191h416.317V166.141z M483.759,122.277h-11.764H40.005H28.242v-15.488h14.612v4.628c0,4.328,3.509,7.837,7.837,7.837
	s7.837-3.509,7.837-7.837v-4.628h18.545v4.628c0,4.328,3.509,7.837,7.837,7.837c4.328,0,7.837-3.509,7.837-7.837v-4.628h18.545
	v4.628c0,4.328,3.509,7.837,7.837,7.837s7.837-3.509,7.837-7.837v-4.628h18.545v4.628c0,4.328,3.509,7.837,7.837,7.837
	s7.837-3.509,7.837-7.837v-4.628h18.545v4.628c0,4.328,3.509,7.837,7.837,7.837s7.837-3.509,7.837-7.837v-4.628h18.545v4.628
	c0,4.328,3.509,7.837,7.837,7.837s7.837-3.509,7.837-7.837v-4.628h18.545v4.628c0,4.328,3.509,7.837,7.837,7.837
	c4.329,0,7.837-3.509,7.837-7.837v-4.628h18.545v4.628c0,4.328,3.508,7.837,7.837,7.837c4.329,0,7.837-3.509,7.837-7.837v-4.628
	h18.544v4.628c0,4.328,3.508,7.837,7.837,7.837c4.329,0,7.837-3.509,7.837-7.837v-4.628h18.545v4.628
	c0,4.328,3.508,7.837,7.837,7.837c4.329,0,7.837-3.509,7.837-7.837v-4.628h18.544v4.628c0,4.328,3.508,7.837,7.837,7.837
	c4.329,0,7.837-3.509,7.837-7.837v-4.628h18.545v4.628c0,4.328,3.508,7.837,7.837,7.837c4.329,0,7.837-3.509,7.837-7.837v-4.628
	h18.544v4.628c0,4.328,3.508,7.837,7.837,7.837c4.329,0,7.837-3.509,7.837-7.837v-4.628h14.612v15.488H483.759z"/>
<path d="M61.253,84.315h1.014c4.328,0,7.837-3.509,7.837-7.837s-3.509-7.837-7.837-7.837h-1.014c-4.328,0-7.837,3.509-7.837,7.837
	S56.925,84.315,61.253,84.315z"/>
<path d="M106.792,68.641h-1.015c-4.328,0-7.837,3.509-7.837,7.837s3.509,7.837,7.837,7.837h1.015c4.328,0,7.837-3.509,7.837-7.837
	S111.12,68.641,106.792,68.641z"/>
<path d="M149.375,68.641h-1.014c-4.328,0-7.837,3.509-7.837,7.837s3.509,7.837,7.837,7.837h1.014c4.328,0,7.837-3.509,7.837-7.837
	S153.703,68.641,149.375,68.641z"/>
<path d="M191.957,68.641h-1.014c-4.328,0-7.837,3.509-7.837,7.837s3.509,7.837,7.837,7.837h1.014c4.328,0,7.837-3.509,7.837-7.837
	S196.285,68.641,191.957,68.641z"/>
<path d="M234.54,68.641h-1.014c-4.328,0-7.837,3.509-7.837,7.837s3.509,7.837,7.837,7.837h1.014c4.328,0,7.837-3.509,7.837-7.837
	S238.868,68.641,234.54,68.641z"/>
<path d="M277.123,68.641h-1.015c-4.329,0-7.837,3.509-7.837,7.837s3.508,7.837,7.837,7.837h1.015c4.329,0,7.837-3.509,7.837-7.837
	S281.451,68.641,277.123,68.641z"/>
<path d="M320.719,68.641h-1.015c-4.329,0-7.837,3.509-7.837,7.837s3.508,7.837,7.837,7.837h1.015c4.329,0,7.837-3.509,7.837-7.837
	S325.048,68.641,320.719,68.641z"/>
<path d="M362.288,84.315h1.015c4.329,0,7.837-3.509,7.837-7.837s-3.508-7.837-7.837-7.837h-1.015c-4.329,0-7.837,3.509-7.837,7.837
	S357.959,84.315,362.288,84.315z"/>
<path d="M405.884,68.641h-1.014c-4.329,0-7.837,3.509-7.837,7.837s3.508,7.837,7.837,7.837h1.014c4.329,0,7.837-3.509,7.837-7.837
	S410.213,68.641,405.884,68.641z"/>
<path d="M449.481,84.315h1.015c4.329,0,7.837-3.509,7.837-7.837s-3.508-7.837-7.837-7.837h-1.015c-4.329,0-7.837,3.509-7.837,7.837
	S445.152,84.315,449.481,84.315z"/>
<path d="M381.428,247.886h66.448c4.329,0,7.837-3.509,7.837-7.837v-33.965c0-4.328-3.508-7.837-7.837-7.837h-66.448
	c-4.329,0-7.837,3.509-7.837,7.837v33.965C373.591,244.378,377.099,247.886,381.428,247.886z M389.265,213.922h50.774v18.291
	h-50.774V213.922z"/>
<path d="M130.573,247.886c4.328,0,7.837-3.509,7.837-7.837v-33.965c0-4.328-3.509-7.837-7.837-7.837H64.125
	c-4.328,0-7.837,3.509-7.837,7.837v33.965c0,4.328,3.509,7.837,7.837,7.837H130.573z M71.962,213.922h50.774v18.291H71.962V213.922z
	"/>
<g>
</g>
<g>
</g>
<g>
</g>
<g>
</g>
<g>
</g>
<g>
</g>
<g>
</g>
<g>
</g>
<g>
</g>
<g>
</g>
<g>
</g>
<g>
</g>
<g>
</g>
<g>
</g>
<g>
</g>
</svg>
