<svg xmlns="http://www.w3.org/2000/svg" height="612pt" version="1.1" viewBox="0 -5 612.00001 612" width="612pt">
<g id="surface1">
<path d="M 224.398438 153 L 387.601562 153 L 387.601562 316.199219 L 224.398438 316.199219 Z M 224.398438 153 " style=" stroke:none;fill-rule:nonzero;fill:rgb(96.078431%,68.235294%,27.058824%);fill-opacity:1;" />
<path d="M 224.398438 153 L 265.199219 112.199219 L 346.800781 112.199219 L 387.601562 153 Z M 224.398438 153 " style=" stroke:none;fill-rule:nonzero;fill:rgb(26.27451%,58.039216%,80%);fill-opacity:1;" />
<path d="M 265.199219 71.398438 L 346.800781 71.398438 L 346.800781 112.199219 L 265.199219 112.199219 Z M 265.199219 71.398438 " style=" stroke:none;fill-rule:nonzero;fill:rgb(96.078431%,68.235294%,27.058824%);fill-opacity:1;" />
<path d="M 265.199219 71.398438 L 306 0 L 346.800781 71.398438 Z M 265.199219 71.398438 " style=" stroke:none;fill-rule:nonzero;fill:rgb(26.27451%,58.039216%,80%);fill-opacity:1;" />
<path d="M 255 183.601562 L 357 183.601562 L 357 285.601562 L 255 285.601562 Z M 255 183.601562 " style=" stroke:none;fill-rule:nonzero;fill:rgb(90.196078%,54.117647%,0%);fill-opacity:1;" />
<path d="M 346.800781 234.601562 C 346.800781 257.132812 328.535156 275.398438 306 275.398438 C 283.464844 275.398438 265.199219 257.132812 265.199219 234.601562 C 265.199219 212.066406 283.464844 193.800781 306 193.800781 C 328.535156 193.800781 346.800781 212.066406 346.800781 234.601562 Z M 346.800781 234.601562 " style=" stroke:none;fill-rule:nonzero;fill:rgb(81.568627%,84.313725%,87.45098%);fill-opacity:1;" />
<path d="M 244.800781 306 L 367.199219 306 L 367.199219 601.800781 L 244.800781 601.800781 Z M 244.800781 306 " style=" stroke:none;fill-rule:nonzero;fill:rgb(96.078431%,68.235294%,27.058824%);fill-opacity:1;" />
<path d="M 275.398438 346.800781 L 295.800781 346.800781 L 295.800781 397.800781 L 275.398438 397.800781 Z M 275.398438 346.800781 " style=" stroke:none;fill-rule:nonzero;fill:rgb(90.196078%,54.117647%,0%);fill-opacity:1;" />
<path d="M 316.199219 346.800781 L 336.601562 346.800781 L 336.601562 397.800781 L 316.199219 397.800781 Z M 316.199219 346.800781 " style=" stroke:none;fill-rule:nonzero;fill:rgb(90.196078%,54.117647%,0%);fill-opacity:1;" />
<path d="M 275.398438 418.199219 L 295.800781 418.199219 L 295.800781 479.398438 L 275.398438 479.398438 Z M 275.398438 418.199219 " style=" stroke:none;fill-rule:nonzero;fill:rgb(90.196078%,54.117647%,0%);fill-opacity:1;" />
<path d="M 316.199219 418.199219 L 336.601562 418.199219 L 336.601562 479.398438 L 316.199219 479.398438 Z M 316.199219 418.199219 " style=" stroke:none;fill-rule:nonzero;fill:rgb(90.196078%,54.117647%,0%);fill-opacity:1;" />
<path d="M 275.398438 499.800781 L 295.800781 499.800781 L 295.800781 561 L 275.398438 561 Z M 275.398438 499.800781 " style=" stroke:none;fill-rule:nonzero;fill:rgb(90.196078%,54.117647%,0%);fill-opacity:1;" />
<path d="M 316.199219 499.800781 L 336.601562 499.800781 L 336.601562 561 L 316.199219 561 Z M 316.199219 499.800781 " style=" stroke:none;fill-rule:nonzero;fill:rgb(90.196078%,54.117647%,0%);fill-opacity:1;" />
<path d="M 30.601562 448.800781 L 244.800781 448.800781 L 244.800781 601.800781 L 30.601562 601.800781 Z M 30.601562 448.800781 " style=" stroke:none;fill-rule:nonzero;fill:rgb(96.078431%,68.235294%,27.058824%);fill-opacity:1;" />
<path d="M 193.800781 479.398438 L 214.199219 479.398438 L 214.199219 510 L 193.800781 510 Z M 193.800781 479.398438 " style=" stroke:none;fill-rule:nonzero;fill:rgb(90.196078%,54.117647%,0%);fill-opacity:1;" />
<path d="M 193.800781 530.398438 L 214.199219 530.398438 L 214.199219 561 L 193.800781 561 Z M 193.800781 530.398438 " style=" stroke:none;fill-rule:nonzero;fill:rgb(90.196078%,54.117647%,0%);fill-opacity:1;" />
<path d="M 153 479.398438 L 173.398438 479.398438 L 173.398438 510 L 153 510 Z M 153 479.398438 " style=" stroke:none;fill-rule:nonzero;fill:rgb(90.196078%,54.117647%,0%);fill-opacity:1;" />
<path d="M 153 530.398438 L 173.398438 530.398438 L 173.398438 561 L 153 561 Z M 153 530.398438 " style=" stroke:none;fill-rule:nonzero;fill:rgb(90.196078%,54.117647%,0%);fill-opacity:1;" />
<path d="M 112.199219 479.398438 L 132.601562 479.398438 L 132.601562 510 L 112.199219 510 Z M 112.199219 479.398438 " style=" stroke:none;fill-rule:nonzero;fill:rgb(90.196078%,54.117647%,0%);fill-opacity:1;" />
<path d="M 112.199219 530.398438 L 132.601562 530.398438 L 132.601562 561 L 112.199219 561 Z M 112.199219 530.398438 " style=" stroke:none;fill-rule:nonzero;fill:rgb(90.196078%,54.117647%,0%);fill-opacity:1;" />
<path d="M 71.398438 479.398438 L 91.800781 479.398438 L 91.800781 510 L 71.398438 510 Z M 71.398438 479.398438 " style=" stroke:none;fill-rule:nonzero;fill:rgb(90.196078%,54.117647%,0%);fill-opacity:1;" />
<path d="M 71.398438 530.398438 L 91.800781 530.398438 L 91.800781 561 L 71.398438 561 Z M 71.398438 530.398438 " style=" stroke:none;fill-rule:nonzero;fill:rgb(90.196078%,54.117647%,0%);fill-opacity:1;" />
<path d="M 408 448.800781 L 571.199219 448.800781 L 571.199219 601.800781 L 408 601.800781 Z M 408 448.800781 " style=" stroke:none;fill-rule:nonzero;fill:rgb(96.078431%,68.235294%,27.058824%);fill-opacity:1;" />
<path d="M 520.199219 479.398438 L 540.601562 479.398438 L 540.601562 510 L 520.199219 510 Z M 520.199219 479.398438 " style=" stroke:none;fill-rule:nonzero;fill:rgb(90.196078%,54.117647%,0%);fill-opacity:1;" />
<path d="M 520.199219 530.398438 L 540.601562 530.398438 L 540.601562 561 L 520.199219 561 Z M 520.199219 530.398438 " style=" stroke:none;fill-rule:nonzero;fill:rgb(90.196078%,54.117647%,0%);fill-opacity:1;" />
<path d="M 479.398438 479.398438 L 499.800781 479.398438 L 499.800781 510 L 479.398438 510 Z M 479.398438 479.398438 " style=" stroke:none;fill-rule:nonzero;fill:rgb(90.196078%,54.117647%,0%);fill-opacity:1;" />
<path d="M 479.398438 530.398438 L 499.800781 530.398438 L 499.800781 561 L 479.398438 561 Z M 479.398438 530.398438 " style=" stroke:none;fill-rule:nonzero;fill:rgb(90.196078%,54.117647%,0%);fill-opacity:1;" />
<path d="M 438.601562 479.398438 L 459 479.398438 L 459 510 L 438.601562 510 Z M 438.601562 479.398438 " style=" stroke:none;fill-rule:nonzero;fill:rgb(90.196078%,54.117647%,0%);fill-opacity:1;" />
<path d="M 438.601562 530.398438 L 459 530.398438 L 459 561 L 438.601562 561 Z M 438.601562 530.398438 " style=" stroke:none;fill-rule:nonzero;fill:rgb(90.196078%,54.117647%,0%);fill-opacity:1;" />
<path d="M 0 581.398438 L 40.800781 581.398438 L 40.800781 601.800781 L 0 601.800781 Z M 0 581.398438 " style=" stroke:none;fill-rule:nonzero;fill:rgb(96.078431%,68.235294%,27.058824%);fill-opacity:1;" />
<path d="M 30.601562 377.398438 L 51 377.398438 L 51 448.800781 L 30.601562 448.800781 Z M 30.601562 377.398438 " style=" stroke:none;fill-rule:nonzero;fill:rgb(96.078431%,68.235294%,27.058824%);fill-opacity:1;" />
<path d="M 91.800781 377.398438 L 112.199219 377.398438 L 112.199219 448.800781 L 91.800781 448.800781 Z M 91.800781 377.398438 " style=" stroke:none;fill-rule:nonzero;fill:rgb(96.078431%,68.235294%,27.058824%);fill-opacity:1;" />
<path d="M 132.601562 377.398438 L 153 377.398438 L 153 448.800781 L 132.601562 448.800781 Z M 132.601562 377.398438 " style=" stroke:none;fill-rule:nonzero;fill:rgb(96.078431%,68.235294%,27.058824%);fill-opacity:1;" />
<path d="M 193.800781 377.398438 L 214.199219 377.398438 L 214.199219 448.800781 L 193.800781 448.800781 Z M 193.800781 377.398438 " style=" stroke:none;fill-rule:nonzero;fill:rgb(96.078431%,68.235294%,27.058824%);fill-opacity:1;" />
<path d="M 571.199219 448.800781 L 408 448.800781 L 418.199219 408 L 561 408 Z M 571.199219 448.800781 " style=" stroke:none;fill-rule:nonzero;fill:rgb(26.27451%,58.039216%,80%);fill-opacity:1;" />
<path d="M 479.398438 377.398438 L 499.800781 377.398438 L 499.800781 408 L 479.398438 408 Z M 479.398438 377.398438 " style=" stroke:none;fill-rule:nonzero;fill:rgb(26.27451%,58.039216%,80%);fill-opacity:1;" />
<path d="M 438.601562 377.398438 L 459 377.398438 L 459 408 L 438.601562 408 Z M 438.601562 377.398438 " style=" stroke:none;fill-rule:nonzero;fill:rgb(26.27451%,58.039216%,80%);fill-opacity:1;" />
<path d="M 520.199219 377.398438 L 540.601562 377.398438 L 540.601562 408 L 520.199219 408 Z M 520.199219 377.398438 " style=" stroke:none;fill-rule:nonzero;fill:rgb(26.27451%,58.039216%,80%);fill-opacity:1;" />
<path d="M 571.199219 581.398438 L 612 581.398438 L 612 601.800781 L 571.199219 601.800781 Z M 571.199219 581.398438 " style=" stroke:none;fill-rule:nonzero;fill:rgb(96.078431%,68.235294%,27.058824%);fill-opacity:1;" />
<path d="M 244.800781 316.199219 L 367.199219 316.199219 L 367.199219 336.601562 L 244.800781 336.601562 Z M 244.800781 316.199219 " style=" stroke:none;fill-rule:nonzero;fill:rgb(94.117647%,61.960784%,14.901961%);fill-opacity:1;" />
<path d="M 282.734375 268.066406 C 301.195312 280.9375 326.59375 276.40625 339.464844 257.945312 C 349.230469 243.941406 349.230469 225.335938 339.464844 211.335938 Z M 282.734375 268.066406 " style=" stroke:none;fill-rule:nonzero;fill:rgb(76.470588%,78.823529%,81.960784%);fill-opacity:1;" />
<path d="M 326.398438 234.601562 C 326.398438 245.867188 317.265625 255 306 255 C 294.734375 255 285.601562 245.867188 285.601562 234.601562 C 285.601562 223.332031 294.734375 214.199219 306 214.199219 C 317.265625 214.199219 326.398438 223.332031 326.398438 234.601562 Z M 326.398438 234.601562 " style=" stroke:none;fill-rule:nonzero;fill:rgb(76.470588%,78.823529%,81.960784%);fill-opacity:1;" />
<path d="M 102 448.800781 L 40.800781 448.800781 L 51 408 L 91.800781 408 Z M 102 448.800781 " style=" stroke:none;fill-rule:nonzero;fill:rgb(26.27451%,58.039216%,80%);fill-opacity:1;" />
<path d="M 204 448.800781 L 142.800781 448.800781 L 153 408 L 193.800781 408 Z M 204 448.800781 " style=" stroke:none;fill-rule:nonzero;fill:rgb(26.27451%,58.039216%,80%);fill-opacity:1;" />
<path d="M 234.601562 448.800781 L 255 448.800781 L 255 601.800781 L 234.601562 601.800781 Z M 234.601562 448.800781 " style=" stroke:none;fill-rule:nonzero;fill:rgb(94.117647%,61.960784%,14.901961%);fill-opacity:1;" />
</g>
</svg>