<?xml version="1.0" encoding="iso-8859-1"?>
<!-- Generator: Adobe Illustrator 19.0.0, SVG Export Plug-In . SVG Version: 6.00 Build 0)  -->
<svg version="1.1" id="Capa_1" xmlns="http://www.w3.org/2000/svg" xmlns:xlink="http://www.w3.org/1999/xlink" x="0px" y="0px"
	 viewBox="0 0 512 512" style="enable-background:new 0 0 512 512;" xml:space="preserve">
<polygon style="fill:#9A4C00;" points="304,104 208,104 256,24 "/>
<rect x="192" y="296" style="fill:#FFDA44;" width="128" height="208"/>
<rect x="192" y="296" style="fill:#FFA733;" width="128" height="16"/>
<rect x="192" y="104" style="fill:#CC6D1B;" width="128" height="32"/>
<rect x="176" y="136" style="fill:#FFA733;" width="160" height="160"/>
<g>
	<rect x="216.5" y="472" style="fill:#FFFFFF;" width="15" height="16"/>
	<rect x="248.5" y="472" style="fill:#FFFFFF;" width="15" height="16"/>
	<rect x="280.5" y="472" style="fill:#FFFFFF;" width="15" height="16"/>
</g>
<circle style="fill:#D8D7DA;" cx="256" cy="216" r="48"/>
<path d="M327,97h-18.753L263,21.923V0h-15v21.923L203.753,97H184v32h-16v175h16v208h143V304h16V129h-16V97z M295,112h17v17h-17V112z
	 M256,39.077L290.753,97h-69.507L256,39.077z M280,112v17h-17v-17H280z M248,112v17h-17v-17H248z M199,112h17v17h-17V112z M312,497
	H199V304h113V497z M328,144v145H183V144H328z"/>
<rect x="216" y="320" width="15" height="136"/>
<rect x="248" y="320" width="15" height="136"/>
<rect x="280" y="320" width="15" height="136"/>
<rect x="368" y="65" width="112" height="15"/>
<rect x="496" y="65" width="16" height="15"/>
<rect x="328" y="25" width="96" height="15"/>
<rect y="97" width="112" height="15"/>
<rect x="40" y="49" width="112" height="15"/>
<rect x="168" y="49" width="16" height="15"/>
<path d="M256,271.5c30.603,0,55.5-24.898,55.5-55.5s-24.897-55.5-55.5-55.5s-55.5,24.898-55.5,55.5S225.398,271.5,256,271.5z
	 M256,175.5c22.332,0,40.5,18.168,40.5,40.5s-18.168,40.5-40.5,40.5s-40.5-18.168-40.5-40.5S233.668,175.5,256,175.5z"/>
<g>
</g>
<g>
</g>
<g>
</g>
<g>
</g>
<g>
</g>
<g>
</g>
<g>
</g>
<g>
</g>
<g>
</g>
<g>
</g>
<g>
</g>
<g>
</g>
<g>
</g>
<g>
</g>
<g>
</g>
</svg>
