<svg id="Capa_1" enable-background="new 0 0 512 512" height="512" viewBox="0 0 512 512" width="512" xmlns="http://www.w3.org/2000/svg"><g><path d="m150.667 255v75l45 30 45-30v-75z" fill="#ffd185"/><path d="m150.667 330h90v182h-90z" fill="#ffe8c2"/><path d="m271.333 255v75l45 30 45-30v-75z" fill="#ffb664"/><path d="m271.333 330h90v182h-90z" fill="#ffd185"/><path d="m392 255v75l45 30 45-30v-45z" fill="#ffb664"/><path d="m392 330h90v182h-90z" fill="#ffd185"/><path d="m30 285v45l45 30 45-30v-75z" fill="#ffd185"/><path d="m30 330h90v182h-90z" fill="#ffe8c2"/><path d="m246 30h25v60h-25z" fill="#a8a297"/><path d="m241 30h15v60h-15z" fill="#c5bdb0"/><path d="m422 120h-166l-60 60h226z" fill="#ffd185"/><path d="m90 120h166v60h-166z" fill="#ffe8c2"/><path d="m317 105h135v30h-135z" fill="#ffb664"/><path d="m60 105h135v30h-135z" fill="#ffd185"/><path d="m332 75h-76l-60 105h136z" fill="#ff9850"/><path d="m180 75h76v105h-76z" fill="#ffb664"/><path d="m271 0c0 8.271-6.729 15-15 15l-10 15 10 15c24.813 0 45-20.187 45-45z" fill="#a8a297"/><path d="m241 0h-30c0 24.813 20.187 45 45 45v-30c-8.271 0-15-6.729-15-15z" fill="#c5bdb0"/><path d="m482 180h-326l100 105h226z" fill="#ffd185"/><path d="m30 180h226v105h-226z" fill="#ffe8c2"/><path d="m512 165h-256l-20 15 20 15h256z" fill="#ffb664"/><path d="m0 165h256v30h-256z" fill="#ffd185"/></g></svg>