<svg id="Capa_1" enable-background="new 0 0 512 512" height="512" viewBox="0 0 512 512" width="512" xmlns="http://www.w3.org/2000/svg"><path d="m31.72 226.895h38.702v249.406h-38.702z" fill="#ffc265"/><path d="m31.72 226.895h19.351v249.406h-19.351z" fill="#ffb541"/><path d="m71.557 473.993h-40.973c-2.838 0-5.139 2.301-5.139 5.139v25.368h51.252v-25.368c0-2.838-2.301-5.139-5.14-5.139z" fill="#ffb541"/><path d="m52.751 473.993h-22.167c-2.838 0-5.139 2.301-5.139 5.139v25.368h22.167v-25.368c0-2.838 2.3-5.139 5.139-5.139z" fill="#ffa812"/><path d="m113.691 226.895h38.702v249.406h-38.702z" fill="#ffc265"/><path d="m113.691 226.895h19.351v249.406h-19.351z" fill="#ffb541"/><path d="m153.529 473.993h-40.973c-2.838 0-5.139 2.301-5.139 5.139v25.368h51.252v-25.368c-.001-2.838-2.302-5.139-5.14-5.139z" fill="#ffb541"/><path d="m134.723 473.993h-22.167c-2.838 0-5.139 2.301-5.139 5.139v25.368h22.167v-25.368c-.001-2.838 2.3-5.139 5.139-5.139z" fill="#ffa812"/><path d="m195.663 226.895h38.702v249.406h-38.702z" fill="#ffc265"/><path d="m195.663 226.895h19.351v249.406h-19.351z" fill="#ffb541"/><path d="m235.5 473.993h-40.973c-2.838 0-5.139 2.301-5.139 5.139v25.368h51.252v-25.368c0-2.838-2.301-5.139-5.14-5.139z" fill="#ffb541"/><path d="m216.695 473.993h-22.167c-2.838 0-5.139 2.301-5.139 5.139v25.368h22.167v-25.368c-.001-2.838 2.3-5.139 5.139-5.139z" fill="#ffa812"/><path d="m277.635 226.895h38.702v249.406h-38.702z" fill="#ffc265"/><path d="m277.635 226.895h19.351v249.406h-19.351z" fill="#ffb541"/><path d="m317.472 473.993h-40.973c-2.838 0-5.139 2.301-5.139 5.139v25.368h51.252v-25.368c0-2.838-2.301-5.139-5.14-5.139z" fill="#ffb541"/><path d="m298.666 473.993h-22.167c-2.838 0-5.139 2.301-5.139 5.139v25.368h22.167v-25.368c0-2.838 2.301-5.139 5.139-5.139z" fill="#ffa812"/><path d="m359.607 226.895h38.702v249.406h-38.702z" fill="#ffc265"/><path d="m359.607 226.895h19.351v249.406h-19.351z" fill="#ffb541"/><path d="m399.444 473.993h-40.973c-2.838 0-5.139 2.301-5.139 5.139v25.368h51.252v-25.368c0-2.838-2.302-5.139-5.14-5.139z" fill="#ffb541"/><path d="m380.638 473.993h-22.167c-2.838 0-5.139 2.301-5.139 5.139v25.368h22.167v-25.368c0-2.838 2.3-5.139 5.139-5.139z" fill="#ffa812"/><path d="m441.578 226.895h38.702v249.406h-38.702z" fill="#ffc265"/><path d="m441.578 226.895h19.351v249.406h-19.351z" fill="#ffb541"/><path d="m481.416 473.993h-40.973c-2.838 0-5.139 2.301-5.139 5.139v25.368h51.252v-25.368c-.001-2.838-2.302-5.139-5.14-5.139z" fill="#ffb541"/><path d="m462.61 473.993h-22.167c-2.838 0-5.139 2.301-5.139 5.139v25.368h22.167v-25.368c-.001-2.838 2.3-5.139 5.139-5.139z" fill="#ffa812"/><path d="m495.45 512h-478.9c-4.142 0-7.5-3.358-7.5-7.5s3.358-7.5 7.5-7.5h478.9c4.142 0 7.5 3.358 7.5 7.5s-3.358 7.5-7.5 7.5z" fill="#ffcf86"/><g fill="#8bcaff"><path d="m256 34.898c-15.107 0-27.397-12.291-27.397-27.398 0-4.142 3.358-7.5 7.5-7.5s7.5 3.358 7.5 7.5c0 6.836 5.562 12.398 12.397 12.398 6.836 0 12.398-5.562 12.398-12.398 0-4.142 3.358-7.5 7.5-7.5s7.5 3.358 7.5 7.5c0 15.107-12.291 27.398-27.398 27.398z"/><path d="m294.765 108.18c-2.929-2.929-2.929-7.678 0-10.606l13.885-13.885 7.144-20.19c.686-1.939 2.139-3.511 4.018-4.349 1.879-.837 4.02-.866 5.92-.08l9.722 4.023c3.827 1.584 5.646 5.97 4.063 9.798-1.584 3.828-5.97 5.647-9.798 4.063l-2.42-1.001-5.075 14.341c-.373 1.054-.977 2.011-1.767 2.801l-15.086 15.086c-2.929 2.928-7.678 2.928-10.606-.001z"/><path d="m262.124 108.578c-3.148-2.691-3.52-7.425-.828-10.574l16.893-19.766 5.292-23.601c.471-2.101 1.823-3.898 3.71-4.934 1.887-1.035 4.129-1.21 6.155-.479l11.734 4.236c3.896 1.406 5.914 5.705 4.507 9.601-1.406 3.896-5.705 5.915-9.601 4.507l-3.73-1.347-3.837 17.115c-.268 1.193-.823 2.302-1.617 3.232l-18.103 21.181c-2.692 3.15-7.426 3.52-10.575.829z"/><path d="m206.629 108.18-15.086-15.086c-.791-.791-1.395-1.748-1.767-2.801l-5.075-14.341-2.42 1.001c-3.828 1.585-8.214-.235-9.798-4.063-1.583-3.828.235-8.214 4.063-9.798l9.722-4.023c1.901-.786 4.042-.757 5.92.08 1.879.837 3.332 2.41 4.018 4.349l7.144 20.19 13.885 13.885c2.929 2.929 2.929 7.678 0 10.606-2.929 2.93-7.677 2.93-10.606.001z"/><path d="m239.302 107.75-18.104-21.181c-.794-.93-1.35-2.039-1.617-3.232l-3.837-17.114-3.73 1.347c-3.899 1.407-8.195-.612-9.601-4.507-1.407-3.896.611-8.195 4.507-9.601l11.734-4.236c2.025-.732 4.268-.557 6.155.479 1.888 1.036 3.239 2.833 3.71 4.935l5.292 23.601 16.894 19.766c2.691 3.149 2.32 7.883-.828 10.574-3.147 2.686-7.882 2.32-10.575-.831z"/></g><path d="m55.608 150.301h159.407v29.514h-159.407z" fill="#ffa812"/><path d="m55.608 150.301h29.984v29.514h-29.984z" fill="#ff9a00"/><path d="m296.986 150.301h159.407v29.514h-159.407z" fill="#ffa812"/><path d="m296.986 150.301h36.774v29.514h-36.774z" fill="#ff9a00"/><path d="m215.014 128.523h-165.944c-4.748 0-8.633 3.885-8.633 8.632v8.381c0 4.748 3.885 8.632 8.633 8.632h165.944z" fill="#ffc265"/><path d="m70.422 145.537v-8.381c0-4.748 3.885-8.632 8.632-8.632h-29.984c-4.748 0-8.633 3.885-8.633 8.632v8.381c0 4.748 3.885 8.632 8.633 8.632h29.984c-4.748.001-8.632-3.884-8.632-8.632z" fill="#ffb541"/><path d="m462.93 128.523h-165.944v25.646h165.944c4.748 0 8.633-3.885 8.633-8.632v-8.381c-.001-4.748-3.885-8.633-8.633-8.633z" fill="#ffc265"/><path d="m332.26 145.537v-8.381c0-4.748 3.885-8.632 8.632-8.632h-43.906v25.646h43.906c-4.748 0-8.632-3.885-8.632-8.633z" fill="#ffb541"/><path d="m256 110.377c-4.142 0-7.5-3.358-7.5-7.5v-89.51c0-4.142 3.358-7.5 7.5-7.5s7.5 3.358 7.5 7.5v89.51c0 4.142-3.358 7.5-7.5 7.5z" fill="#b4dbff"/><path d="m264.8 53.888h-17.6c-4.142 0-7.5-3.358-7.5-7.5s3.358-7.5 7.5-7.5h17.6c4.142 0 7.5 3.358 7.5 7.5s-3.358 7.5-7.5 7.5z" fill="#8bcaff"/><path d="m213.904 127.135h84.191v52.681h-84.191z" fill="#ffc265"/><path d="m213.905 127.135h32.31v52.681h-32.31z" fill="#ffb541"/><path d="m31.72 202.635h448.561v28.474h-448.561z" fill="#ffcf86"/><path d="m31.72 202.635h38.632v28.474h-38.632z" fill="#ffc265"/><path d="m16.55 179.816v17.014c0 4.748 3.885 8.632 8.632 8.632h461.635c4.748 0 8.632-3.885 8.632-8.632v-17.014z" fill="#ffc265"/><path d="m55.182 196.83v-17.014h-38.632v17.014c0 4.748 3.885 8.632 8.633 8.632h38.632c-4.748 0-8.633-3.885-8.633-8.632z" fill="#ffb541"/><path d="m502.195 187.316h-492.39c-4.142 0-7.5-3.358-7.5-7.5s3.358-7.5 7.5-7.5h492.39c4.142 0 7.5 3.358 7.5 7.5s-3.358 7.5-7.5 7.5z" fill="#ffcf86"/><path d="m40.937 179.816c0-4.142 3.358-7.5 7.5-7.5h-38.632c-4.142 0-7.5 3.358-7.5 7.5s3.358 7.5 7.5 7.5h38.632c-4.142 0-7.5-3.358-7.5-7.5z" fill="#ffc265"/><path d="m316.337 119.891v-8.381c0-4.748-3.885-8.632-8.633-8.632h-103.408c-4.748 0-8.633 3.885-8.633 8.632v8.381c0 4.748 3.885 8.632 8.633 8.632h103.409c4.747 0 8.632-3.884 8.632-8.632z" fill="#ffcf86"/><path d="m227.974 119.891v-8.381c0-4.748 3.885-8.632 8.633-8.632h-32.31c-4.748 0-8.633 3.885-8.633 8.632v8.381c0 4.748 3.885 8.632 8.633 8.632h32.31c-4.749 0-8.633-3.884-8.633-8.632z" fill="#ffc265"/></svg>