<svg id="Layer_1" enable-background="new 0 0 512 512" height="512" viewBox="0 0 512 512" width="512" xmlns="http://www.w3.org/2000/svg"><g><path d="m256 497c147.579 0 231.875-150.715 231.883-150.728 8.499-24.865 13.117-51.528 13.117-79.272 0-135.31-109.69-245-245-245-135.31-.001-245 109.69-245 245 0 27.744 4.619 54.407 13.117 79.272.001.002 84.298 150.728 231.883 150.728z" fill="#90d8f9"/><path d="m208.242 117.594c0-3.781 0-12.977 0-17.11l-.785-.138c-26.632-4.71-45.96-27.774-45.96-54.842 0-14.701-11.96-26.661-26.662-26.661s-26.662 11.96-26.662 26.661c0 27.068-19.329 50.132-45.96 54.842l-.785.138v17.11c0 4.933-4.014 8.946-8.947 8.946h-27.988v220.798c20.507 59.103 63.002 107.915 117.701 136.662h102.981v-357.46h-27.987c-4.933 0-8.946-4.013-8.946-8.946z" fill="#ff4155"/><path d="m134.834 40.526c0-10.815 6.722-14.513 10.934-15.769 1.165-.347 2.012-1.236 2.402-2.324-3.926-2.278-8.479-3.59-13.336-3.59-14.702 0-26.662 11.96-26.662 26.661 0 27.068-19.329 50.132-45.961 54.842l-.785.138v17.109c0 4.933-4.014 8.946-8.947 8.946h-27.986v220.798c13.347 38.467 36.015 72.568 65.293 99.621v-66.493c-5.036-14.642 7.129-19.956 7.129-19.956l-14.259-7.129 7.13-14.179v-70.421c-5.87-12.329 5.036-19.956 5.036-19.956l-8.776-14.179 8.693-11.536s0-26.833 0-58.083 16.5-33.25 16.5-33.25l28-57.5c-4.75-3-4.405-10.53-4.405-10.53s0-7.47 0-23.22z" fill="#e80054"/><path d="m134.834 378.967c-10.87 0-19.681 8.811-19.681 19.681v68.831c8.621 6.068 17.652 11.587 27.041 16.521h12.321v-85.352c0-10.87-8.811-19.681-19.681-19.681z" fill="#dae2fe"/><path d="m245.775 107.697h-15.532c-1.744 0-3.158-1.414-3.158-3.158v-12.288c0-5.462-4.47-9.892-9.932-9.897-20.303-.019-36.815-16.542-36.815-36.85.001-25.091-20.412-45.504-45.504-45.504s-45.505 20.413-45.505 45.505c0 20.308-16.512 36.831-36.815 36.85-5.461.005-9.932 4.435-9.932 9.897v12.288c0 1.744-1.414 3.158-3.158 3.158h-15.531c-5.449 0-10.123 4.262-10.223 9.71-.102 5.551 4.367 10.083 9.895 10.083h28.915c5.466 0 9.897-4.431 9.897-9.897v-16.312c26.533-4.692 46.747-27.919 46.747-55.777 0-14.177 11.534-25.711 25.711-25.711s25.711 11.534 25.711 25.711c0 27.859 20.214 51.085 46.747 55.777v16.312c0 5.466 4.431 9.897 9.897 9.897h28.915c5.528 0 9.997-4.532 9.895-10.083-.102-5.448-4.776-9.711-10.225-9.711z" fill="#3c5082"/><path d="m134.834 0c-25.092 0-45.505 20.413-45.505 45.505 0 20.308-16.511 36.831-36.815 36.85-5.462.005-9.932 4.435-9.932 9.897v12.288c0 1.744-1.414 3.158-3.158 3.158h-15.531c-5.449 0-10.123 4.263-10.223 9.711-.102 5.551 4.367 10.083 9.895 10.083h28.915c5.466 0 9.897-4.431 9.897-9.897v-16.312c26.532-4.692 46.747-27.919 46.747-55.777 0-14.177 11.534-25.711 25.711-25.711 4.704 0 9.113 1.276 12.91 3.49.503-.749.749-1.679.646-2.633-.761-7.033 3.309-10.279 6.852-11.764 1.248-.523 2.04-1.605 2.28-2.802-6.684-3.863-14.43-6.086-22.689-6.086z" fill="#2d3c6b"/><path d="m134.834 378.967c-10.87 0-19.681 8.811-19.681 19.681v5.033h39.362v-5.033c0-10.87-8.811-19.681-19.681-19.681z" fill="#e9efff"/><g fill="#dae2fe"><path d="m199.563 378.967c-10.87 0-19.681 8.811-19.681 19.681v48.502c0 2.066 1.674 3.74 3.74 3.74h31.882c2.066 0 3.74-1.674 3.74-3.74v-48.502c0-10.87-8.811-19.681-19.681-19.681z"/><path d="m70.104 378.967c-10.87 0-19.681 8.811-19.681 19.681v1.66c11.151 17.161 24.392 32.834 39.362 46.667v-48.326c.001-10.871-8.811-19.682-19.681-19.682z"/><path d="m199.563 267.28c-10.87 0-19.681 8.811-19.681 19.681v48.502c0 2.066 1.674 3.74 3.74 3.74h31.882c2.066 0 3.74-1.674 3.74-3.74v-48.502c0-10.87-8.811-19.681-19.681-19.681z"/><path d="m70.104 267.28c-10.869 0-19.681 8.811-19.681 19.681v48.502c0 2.066 1.675 3.74 3.74 3.74h31.881c2.066 0 3.741-1.674 3.741-3.74v-48.502c.001-10.87-8.811-19.681-19.681-19.681z"/><path d="m134.834 267.28c-10.87 0-19.681 8.811-19.681 19.681v48.502c0 2.066 1.675 3.74 3.741 3.74h31.881c2.066 0 3.74-1.674 3.74-3.74v-48.502c0-10.87-8.811-19.681-19.681-19.681z"/><path d="m199.563 155.593c-10.87 0-19.681 8.811-19.681 19.681v48.502c0 2.066 1.674 3.74 3.74 3.74h31.882c2.066 0 3.74-1.675 3.74-3.74v-48.502c0-10.87-8.811-19.681-19.681-19.681z"/><path d="m70.104 155.593c-10.869 0-19.681 8.811-19.681 19.681v48.502c0 2.066 1.675 3.74 3.74 3.74h31.881c2.066 0 3.741-1.675 3.741-3.74v-48.502c.001-10.87-8.811-19.681-19.681-19.681z"/><path d="m134.834 155.593c-10.87 0-19.681 8.811-19.681 19.681v48.502c0 2.066 1.675 3.74 3.741 3.74h31.881c2.066 0 3.74-1.675 3.74-3.74v-48.502c0-10.87-8.811-19.681-19.681-19.681z"/></g><path d="m70.104 267.28c-10.869 0-19.681 8.811-19.681 19.681v5.033h39.362v-5.033c.001-10.87-8.811-19.681-19.681-19.681z" fill="#e9efff"/><path d="m199.563 267.28c-10.87 0-19.681 8.811-19.681 19.681v5.033h39.362v-5.033c0-10.87-8.811-19.681-19.681-19.681z" fill="#e9efff"/><path d="m134.834 267.28c-10.87 0-19.681 8.811-19.681 19.681v5.033h39.362v-5.033c0-10.87-8.811-19.681-19.681-19.681z" fill="#e9efff"/><path d="m70.104 155.593c-10.869 0-19.681 8.811-19.681 19.681v5.033h39.362v-5.033c.001-10.87-8.811-19.681-19.681-19.681z" fill="#e9efff"/><path d="m199.563 155.593c-10.87 0-19.681 8.811-19.681 19.681v5.033h39.362v-5.033c0-10.87-8.811-19.681-19.681-19.681z" fill="#e9efff"/><path d="m134.834 155.593c-10.87 0-19.681 8.811-19.681 19.681v5.033h39.362v-5.033c0-10.87-8.811-19.681-19.681-19.681z" fill="#e9efff"/><path d="m70.104 378.967c-10.87 0-19.681 8.811-19.681 19.681v1.66c.734 1.129 1.469 2.257 2.22 3.373h37.142v-5.033c.001-10.87-8.811-19.681-19.681-19.681z" fill="#e9efff"/><path d="m199.563 378.967c-10.87 0-19.681 8.811-19.681 19.681v5.033h39.362v-5.033c0-10.87-8.811-19.681-19.681-19.681z" fill="#e9efff"/><path d="m134.834 80.983c-10.87 0-19.681 8.812-19.681 19.681v23.623c0 2.066 1.675 3.74 3.741 3.74h31.881c2.066 0 3.74-1.675 3.74-3.74v-23.623c0-10.869-8.811-19.681-19.681-19.681z" fill="#dae2fe"/><path d="m134.834 80.983c-10.87 0-19.681 8.812-19.681 19.681v5.033h39.362v-5.032c0-10.87-8.811-19.682-19.681-19.682z" fill="#e9efff"/><path d="m134.834 371.837c-14.783 0-26.81 12.027-26.81 26.811v63.614c4.627 3.512 9.382 6.862 14.258 10.044v-73.658c0-6.922 5.631-12.553 12.552-12.553s12.553 5.631 12.553 12.553v85.352h14.258v-85.352c0-14.783-12.028-26.811-26.811-26.811z" fill="#ff7186"/><g><path d="m215.504 458.019h-31.882c-5.993 0-10.869-4.876-10.869-10.869v-48.502c0-14.783 12.027-26.811 26.81-26.811s26.81 12.027 26.81 26.811v48.502c.001 5.993-4.876 10.869-10.869 10.869zm-28.492-14.258h25.104v-45.113c0-6.922-5.631-12.553-12.552-12.553s-12.552 5.631-12.552 12.553z" fill="#ff7186"/></g><path d="m70.105 371.837c-12.019 0-22.215 7.95-25.609 18.866 4.033 6.881 8.392 13.546 13.056 19.976v-12.032c0-6.922 5.631-12.553 12.552-12.553s12.552 5.631 12.552 12.553v41.488c4.182 4.187 8.513 8.224 12.987 12.1.808-1.519 1.271-3.249 1.271-5.087v-48.502c0-14.781-12.027-26.809-26.809-26.809z" fill="#ff7186"/><g><path d="m215.504 346.332h-31.882c-5.993 0-10.869-4.876-10.869-10.869v-48.502c0-14.783 12.027-26.811 26.81-26.811s26.81 12.027 26.81 26.811v48.502c.001 5.993-4.876 10.869-10.869 10.869zm-28.492-14.258h25.104v-45.113c0-6.922-5.631-12.553-12.552-12.553s-12.552 5.631-12.552 12.553z" fill="#ff7186"/></g><g><path d="m86.046 346.332h-31.882c-5.993 0-10.869-4.876-10.869-10.869v-48.502c0-14.783 12.027-26.811 26.81-26.811s26.81 12.027 26.81 26.811v48.502c-.001 5.993-4.876 10.869-10.869 10.869zm-28.494-14.258h25.104v-45.113c0-6.922-5.631-12.553-12.552-12.553s-12.552 5.631-12.552 12.553z" fill="#ff7186"/></g><g><path d="m150.775 346.332h-31.881c-5.993 0-10.869-4.876-10.869-10.869v-48.502c0-14.783 12.027-26.811 26.81-26.811s26.81 12.027 26.81 26.811v48.502c-.001 5.993-4.877 10.869-10.87 10.869zm-28.493-14.258h25.104v-45.113c0-6.922-5.631-12.553-12.552-12.553s-12.552 5.631-12.552 12.553z" fill="#ff7186"/></g><g><path d="m215.504 234.645h-31.882c-5.993 0-10.869-4.876-10.869-10.869v-48.502c0-14.783 12.027-26.811 26.81-26.811s26.81 12.027 26.81 26.811v48.502c.001 5.993-4.876 10.869-10.869 10.869zm-28.492-14.258h25.104v-45.113c0-6.922-5.631-12.553-12.552-12.553s-12.552 5.631-12.552 12.553z" fill="#ff7186"/></g><g><path d="m86.046 234.645h-31.882c-5.993 0-10.869-4.876-10.869-10.869v-48.502c0-14.783 12.027-26.811 26.81-26.811s26.81 12.027 26.81 26.811v48.502c-.001 5.993-4.876 10.869-10.869 10.869zm-28.494-14.258h25.104v-45.113c0-6.922-5.631-12.553-12.552-12.553s-12.552 5.631-12.552 12.553z" fill="#ff7186"/></g><g><path d="m150.775 234.645h-31.881c-5.993 0-10.869-4.876-10.869-10.869v-48.502c0-14.783 12.027-26.811 26.81-26.811s26.81 12.027 26.81 26.811v48.502c-.001 5.993-4.877 10.869-10.87 10.869zm-28.493-14.258h25.104v-45.113c0-6.922-5.631-12.553-12.552-12.553s-12.552 5.631-12.552 12.553z" fill="#ff7186"/></g><g><path d="m150.775 135.156h-31.881c-5.993 0-10.869-4.876-10.869-10.869v-23.623c0-14.783 12.027-26.81 26.81-26.81s26.81 12.026 26.81 26.81v23.623c-.001 5.993-4.877 10.869-10.87 10.869zm-28.493-14.258h25.104v-20.234c0-6.921-5.631-12.552-12.552-12.552s-12.552 5.631-12.552 12.552z" fill="#ff7186"/></g><path d="m245.176 346.253h-220.683c-.127 0-.251.012-.376.019 1.646 4.817 3.446 9.562 5.379 14.239h215.68c3.937 0 7.129-3.191 7.129-7.129s-3.192-7.129-7.129-7.129z" fill="#e80054"/><g><path d="m245.176 248.824h-220.683c-3.937 0-7.129-3.191-7.129-7.129s3.192-7.129 7.129-7.129h220.683c3.937 0 7.129 3.191 7.129 7.129 0 3.937-3.192 7.129-7.129 7.129z" fill="#e80054"/></g><path d="m487.507 126.54h-27.987c-4.933 0-8.947-4.014-8.947-8.946 0-3.781 0-12.977 0-17.11l-.785-.138c-26.632-4.71-45.96-27.774-45.96-54.842 0-14.701-11.96-26.661-26.662-26.661s-26.662 11.96-26.662 26.661c0 27.068-19.329 50.132-45.96 54.842l-.785.138v17.11c0 4.933-4.014 8.946-8.947 8.946h-27.987v357.46h102.981c54.699-28.746 97.194-77.559 117.701-136.661z" fill="#ffdd40"/><path d="m377.147 63.745s0-7.47 0-23.22c0-11.315 7.357-14.84 11.5-15.927 1.025-.269 1.79-1.074 2.063-2.046-3.972-2.353-8.602-3.709-13.544-3.709-14.702 0-26.662 11.96-26.662 26.661 0 27.068-19.329 50.132-45.961 54.842l-.785.138v17.109c0 4.933-4.014 8.946-8.947 8.946h-27.987v357.461h65.273v-103.534c-5.036-14.642 7.129-19.956 7.129-19.956l-14.259-7.129 7.13-14.179v-70.422c-5.87-12.329 5.036-19.956 5.036-19.956l-8.777-14.179 8.693-11.536s0-26.833 0-58.083 16.5-33.25 16.5-33.25l28-57.5c-4.748-3-4.402-10.531-4.402-10.531z" fill="#ffb332"/><path d="m377.166 378.967c-10.869 0-19.681 8.811-19.681 19.681v85.352h12.321c9.389-4.934 18.42-10.454 27.041-16.521v-68.831c0-10.87-8.811-19.681-19.681-19.681z" fill="#a05838"/><path d="m488.107 107.697h-15.532c-1.744 0-3.158-1.414-3.158-3.158v-12.288c0-5.462-4.47-9.892-9.932-9.897-20.303-.019-36.815-16.542-36.815-36.85.001-25.091-20.412-45.504-45.504-45.504s-45.505 20.413-45.505 45.505c0 20.308-16.512 36.831-36.815 36.85-5.462.005-9.932 4.435-9.932 9.897v12.288c0 1.744-1.414 3.158-3.158 3.158h-15.532c-5.449 0-10.123 4.262-10.223 9.71-.102 5.551 4.367 10.083 9.895 10.083h28.915c5.466 0 9.897-4.431 9.897-9.897v-16.312c26.533-4.692 46.746-27.919 46.746-55.777 0-14.177 11.534-25.711 25.711-25.711s25.711 11.534 25.711 25.711c0 27.859 20.214 51.085 46.747 55.777v16.312c0 5.466 4.431 9.897 9.897 9.897h28.915c5.528 0 9.997-4.532 9.895-10.083-.1-5.448-4.774-9.711-10.223-9.711z" fill="#a05838"/><path d="m377.166 0c-25.092 0-45.505 20.413-45.505 45.505 0 20.308-16.512 36.831-36.815 36.85-5.462.005-9.932 4.435-9.932 9.897v12.288c0 1.744-1.414 3.158-3.158 3.158h-15.532c-5.449 0-10.123 4.263-10.223 9.711-.102 5.551 4.367 10.083 9.895 10.083h28.915c5.466 0 9.897-4.431 9.897-9.897v-16.312c26.533-4.692 46.746-27.919 46.746-55.777 0-14.177 11.534-25.711 25.711-25.711 4.8 0 9.295 1.326 13.144 3.625.402-.587.595-1.315.484-2.059-1.21-8.12 3.801-11.452 7.614-12.802 1.04-.368 1.705-1.237 1.905-2.209-6.785-4.028-14.698-6.35-23.146-6.35z" fill="#90482d"/><path d="m377.166 378.967c-10.869 0-19.681 8.811-19.681 19.681v5.033h39.362v-5.033c0-10.87-8.811-19.681-19.681-19.681z" fill="#b76c4e"/><path d="m461.576 400.307v-1.66c0-10.87-8.811-19.681-19.681-19.681s-19.681 8.811-19.681 19.681v48.326c14.971-13.832 28.212-29.505 39.362-46.666z" fill="#dae2fe"/><path d="m312.436 378.967c-10.87 0-19.681 8.811-19.681 19.681v48.502c0 2.066 1.675 3.74 3.74 3.74h31.882c2.066 0 3.74-1.674 3.74-3.74v-48.502c.001-10.87-8.811-19.681-19.681-19.681z" fill="#dae2fe"/><path d="m441.895 267.28c-10.87 0-19.681 8.811-19.681 19.681v48.502c0 2.066 1.674 3.74 3.74 3.74h31.881c2.066 0 3.741-1.674 3.741-3.74v-48.502c.001-10.87-8.811-19.681-19.681-19.681z" fill="#dae2fe"/><path d="m312.436 267.28c-10.87 0-19.681 8.811-19.681 19.681v48.502c0 2.066 1.675 3.74 3.74 3.74h31.882c2.066 0 3.74-1.674 3.74-3.74v-48.502c.001-10.87-8.811-19.681-19.681-19.681z" fill="#dae2fe"/><path d="m377.166 267.28c-10.87 0-19.681 8.811-19.681 19.681v48.502c0 2.066 1.675 3.74 3.741 3.74h31.881c2.066 0 3.74-1.674 3.74-3.74v-48.502c0-10.87-8.811-19.681-19.681-19.681z" fill="#dae2fe"/><path d="m441.895 155.593c-10.87 0-19.681 8.811-19.681 19.681v48.502c0 2.066 1.674 3.74 3.74 3.74h31.881c2.066 0 3.741-1.675 3.741-3.74v-48.502c.001-10.87-8.811-19.681-19.681-19.681z" fill="#dae2fe"/><path d="m312.436 155.593c-10.87 0-19.681 8.811-19.681 19.681v48.502c0 2.066 1.675 3.74 3.74 3.74h31.882c2.066 0 3.74-1.675 3.74-3.74v-48.502c.001-10.87-8.811-19.681-19.681-19.681z" fill="#dae2fe"/><path d="m377.166 155.593c-10.87 0-19.681 8.811-19.681 19.681v48.502c0 2.066 1.675 3.74 3.741 3.74h31.881c2.066 0 3.74-1.675 3.74-3.74v-48.502c0-10.87-8.811-19.681-19.681-19.681z" fill="#dae2fe"/><path d="m312.436 267.28c-10.87 0-19.681 8.811-19.681 19.681v5.033h39.362v-5.033c.001-10.87-8.811-19.681-19.681-19.681z" fill="#e9efff"/><path d="m441.895 267.28c-10.87 0-19.681 8.811-19.681 19.681v5.033h39.362v-5.033c.001-10.87-8.811-19.681-19.681-19.681z" fill="#e9efff"/><path d="m377.166 267.28c-10.87 0-19.681 8.811-19.681 19.681v5.033h39.362v-5.033c0-10.87-8.811-19.681-19.681-19.681z" fill="#e9efff"/><path d="m312.436 155.593c-10.87 0-19.681 8.811-19.681 19.681v5.033h39.362v-5.033c.001-10.87-8.811-19.681-19.681-19.681z" fill="#e9efff"/><path d="m441.895 155.593c-10.87 0-19.681 8.811-19.681 19.681v5.033h39.362v-5.033c.001-10.87-8.811-19.681-19.681-19.681z" fill="#e9efff"/><path d="m377.166 155.593c-10.87 0-19.681 8.811-19.681 19.681v5.033h39.362v-5.033c0-10.87-8.811-19.681-19.681-19.681z" fill="#e9efff"/><path d="m312.436 378.967c-10.87 0-19.681 8.811-19.681 19.681v5.033h39.362v-5.033c.001-10.87-8.811-19.681-19.681-19.681z" fill="#e9efff"/><path d="m461.576 400.307v-1.66c0-10.87-8.811-19.681-19.681-19.681s-19.681 8.811-19.681 19.681v5.033h37.142c.752-1.116 1.487-2.244 2.22-3.373z" fill="#e9efff"/><path d="m377.166 80.983c-10.87 0-19.681 8.812-19.681 19.681v23.623c0 2.066 1.675 3.74 3.741 3.74h31.881c2.066 0 3.74-1.675 3.74-3.74v-23.623c0-10.869-8.811-19.681-19.681-19.681z" fill="#dae2fe"/><path d="m377.166 80.983c-10.87 0-19.681 8.812-19.681 19.681v5.033h39.362v-5.032c0-10.87-8.811-19.682-19.681-19.682z" fill="#e9efff"/><path d="m377.166 371.837c-14.783 0-26.81 12.027-26.81 26.811v85.352h14.258v-85.352c0-6.922 5.631-12.553 12.552-12.553 6.922 0 12.553 5.631 12.553 12.553v73.658c4.876-3.182 9.631-6.532 14.258-10.044v-63.614c0-14.783-12.028-26.811-26.811-26.811z" fill="#ce846a"/><path d="m467.504 390.704c-3.394-10.917-13.59-18.866-25.608-18.866-14.783 0-26.81 12.027-26.81 26.811v48.502c0 1.837.462 3.568 1.271 5.087 4.474-3.877 8.806-7.914 12.987-12.1v-41.488c0-6.922 5.631-12.553 12.552-12.553s12.552 5.631 12.552 12.553v12.032c4.664-6.433 9.023-13.097 13.056-19.978z" fill="#ce846a"/><g><path d="m328.378 458.019h-31.882c-5.993 0-10.869-4.876-10.869-10.869v-48.502c0-14.783 12.027-26.811 26.81-26.811s26.81 12.027 26.81 26.811v48.502c-.001 5.993-4.876 10.869-10.869 10.869zm-28.494-14.258h25.104v-45.113c0-6.922-5.631-12.553-12.552-12.553-6.922 0-12.552 5.631-12.552 12.553z" fill="#ce846a"/></g><g><path d="m457.836 346.332h-31.882c-5.993 0-10.869-4.876-10.869-10.869v-48.502c0-14.783 12.027-26.811 26.81-26.811s26.81 12.027 26.81 26.811v48.502c.001 5.993-4.876 10.869-10.869 10.869zm-28.492-14.258h25.104v-45.113c0-6.922-5.631-12.553-12.552-12.553s-12.552 5.631-12.552 12.553z" fill="#ce846a"/></g><g><path d="m328.378 346.332h-31.882c-5.993 0-10.869-4.876-10.869-10.869v-48.502c0-14.783 12.027-26.811 26.81-26.811s26.81 12.027 26.81 26.811v48.502c-.001 5.993-4.876 10.869-10.869 10.869zm-28.494-14.258h25.104v-45.113c0-6.922-5.631-12.553-12.552-12.553-6.922 0-12.552 5.631-12.552 12.553z" fill="#ce846a"/></g><g><path d="m393.107 346.332h-31.881c-5.993 0-10.869-4.876-10.869-10.869v-48.502c0-14.783 12.027-26.811 26.81-26.811s26.81 12.027 26.81 26.811v48.502c-.001 5.993-4.877 10.869-10.87 10.869zm-28.493-14.258h25.104v-45.113c0-6.922-5.631-12.553-12.552-12.553s-12.552 5.631-12.552 12.553z" fill="#ce846a"/></g><g><path d="m457.836 234.645h-31.882c-5.993 0-10.869-4.876-10.869-10.869v-48.502c0-14.783 12.027-26.811 26.81-26.811s26.81 12.027 26.81 26.811v48.502c.001 5.993-4.876 10.869-10.869 10.869zm-28.492-14.258h25.104v-45.113c0-6.922-5.631-12.553-12.552-12.553s-12.552 5.631-12.552 12.553z" fill="#ce846a"/></g><g><path d="m328.378 234.645h-31.882c-5.993 0-10.869-4.876-10.869-10.869v-48.502c0-14.783 12.027-26.811 26.81-26.811s26.81 12.027 26.81 26.811v48.502c-.001 5.993-4.876 10.869-10.869 10.869zm-28.494-14.258h25.104v-45.113c0-6.922-5.631-12.553-12.552-12.553-6.922 0-12.552 5.631-12.552 12.553z" fill="#ce846a"/></g><g><path d="m393.107 234.645h-31.881c-5.993 0-10.869-4.876-10.869-10.869v-48.502c0-14.783 12.027-26.811 26.81-26.811s26.81 12.027 26.81 26.811v48.502c-.001 5.993-4.877 10.869-10.87 10.869zm-28.493-14.258h25.104v-45.113c0-6.922-5.631-12.553-12.552-12.553s-12.552 5.631-12.552 12.553z" fill="#ce846a"/></g><g><path d="m393.107 135.156h-31.881c-5.993 0-10.869-4.876-10.869-10.869v-23.623c0-14.783 12.027-26.81 26.81-26.81s26.81 12.026 26.81 26.81v23.623c-.001 5.993-4.877 10.869-10.87 10.869zm-28.493-14.258h25.104v-20.234c0-6.921-5.631-12.552-12.552-12.552s-12.552 5.631-12.552 12.552z" fill="#ce846a"/></g><path d="m487.883 346.272c-.125-.007-.249-.019-.375-.019h-220.684c-3.937 0-7.129 3.191-7.129 7.129s3.192 7.129 7.129 7.129h215.68c1.933-4.677 3.733-9.422 5.379-14.239z" fill="#ffb332"/><g><path d="m487.508 248.824h-220.684c-3.937 0-7.129-3.191-7.129-7.129s3.192-7.129 7.129-7.129h220.683c3.937 0 7.129 3.191 7.129 7.129.001 3.937-3.191 7.129-7.128 7.129z" fill="#ffb332"/></g><path d="m93.085 353.382c0-3.938 3.192-7.129 7.129-7.129h-75.722c-.127 0-.25.012-.376.019 1.647 4.817 3.446 9.562 5.379 14.239h70.718c-3.936-.001-7.128-3.192-7.128-7.129z" fill="#cc0053"/><path d="m86.331 241.695c0-3.938 3.192-7.129 7.129-7.129h-68.968c-3.937 0-7.129 3.191-7.129 7.129s3.192 7.129 7.129 7.129h68.968c-3.937 0-7.129-3.191-7.129-7.129z" fill="#cc0053"/><path d="m328.663 353.382c0-3.938 3.192-7.129 7.129-7.129h-68.968c-3.937 0-7.129 3.191-7.129 7.129s3.192 7.129 7.129 7.129h68.968c-3.937-.001-7.129-3.192-7.129-7.129z" fill="#ffa219"/><path d="m328.663 241.695c0-3.938 3.192-7.129 7.129-7.129h-68.968c-3.937 0-7.129 3.191-7.129 7.129s3.192 7.129 7.129 7.129h68.968c-3.937 0-7.129-3.191-7.129-7.129z" fill="#ffa219"/><path d="m138.449 482c34.897 19.12 74.952 30 117.551 30s82.654-10.88 117.551-30z" fill="#3c5082"/><g><path d="m239.879 482h-101.43c30.24 16.569 64.355 26.943 100.64 29.419-12.428-5.305-11.895-24.69.79-29.419z" fill="#2d3c6b"/></g></g></svg>