<?xml version="1.0" encoding="iso-8859-1"?>
<!-- Generator: Adobe Illustrator 19.0.0, SVG Export Plug-In . SVG Version: 6.00 Build 0)  -->
<svg version="1.1" id="Capa_1" xmlns="http://www.w3.org/2000/svg" xmlns:xlink="http://www.w3.org/1999/xlink" x="0px" y="0px"
	 viewBox="0 0 512 512" style="enable-background:new 0 0 512 512;" xml:space="preserve">
<g>
	<g>
		<path d="M291.273,239.916l-26.864-44.092v-28.808c0-4.199-3.404-7.604-7.604-7.604c-4.2,0-7.604,3.405-7.604,7.604v28.808
			l-26.863,44.092c-2.186,3.586-1.05,8.264,2.536,10.449c3.585,2.184,8.263,1.049,10.451-2.537l21.48-35.255l21.481,35.255
			c1.433,2.351,3.936,3.649,6.501,3.649c1.348,0,2.714-0.359,3.95-1.111C292.322,248.181,293.457,243.502,291.273,239.916z"/>
	</g>
</g>
<g>
	<g>
		<path d="M362.753,321.255c-4.2,0-7.604,3.405-7.604,7.604v27.786c0,4.199,3.404,7.604,7.604,7.604s7.604-3.405,7.604-7.604
			v-27.786C370.357,324.66,366.953,321.255,362.753,321.255z"/>
	</g>
</g>
<g>
	<g>
		<path d="M384.51,321.255c-4.2,0-7.604,3.405-7.604,7.604v27.786c0,4.199,3.404,7.604,7.604,7.604c4.2,0,7.604-3.405,7.604-7.604
			v-27.786C392.114,324.66,388.71,321.255,384.51,321.255z"/>
	</g>
</g>
<g>
	<g>
		<path d="M424.125,367.935h-8.31v-83.271c0-4.199-3.404-7.604-7.604-7.604s-7.604,3.405-7.604,7.604v14.834h-53.951V225.31
			l4.681,8.04c1.449,2.489,4.19,3.944,7.05,3.762c2.873-0.182,5.397-1.97,6.521-4.62l8.723-20.568l8.723,20.568
			c1.123,2.65,3.648,4.439,6.521,4.62c2.852,0.182,5.602-1.274,7.05-3.762l4.681-8.04v34.006c0,4.199,3.404,7.604,7.604,7.604
			s7.604-3.405,7.604-7.604v-62.179c0-0.001,0-0.003,0-0.005c0-0.002,0-0.003,0-0.005c0-0.003-0.002-0.016-0.004-0.028
			c-0.004-0.158-0.039-0.315-0.092-0.471c-2.007-9.84-34.658-161.875-34.658-161.875c-0.753-3.504-3.851-6.005-7.434-6.005
			s-6.68,2.501-7.434,6.005c0,0-32.911,153.243-34.679,161.971c-0.02,0.073-0.034,0.147-0.044,0.22
			c-0.02,0.102-0.031,0.164-0.031,0.173v0.01c0,0.066,0.008,0.13,0.01,0.196v86.634H182.158v-90.306c0,0-0.007-0.005-0.009-0.006
			c0-0.489-0.04-0.98-0.136-1.468l-12.126-61.352c0-0.001,0-0.002,0-0.003L146.458,6.199C145.782,2.605,142.642,0,138.985,0
			c-3.657,0-6.797,2.605-7.473,6.199l-23.429,124.623c0,0.001,0,0.002,0,0.003l-12.126,61.352c-0.096,0.488-0.136,0.979-0.136,1.468
			c-0.001,0.001-0.009,0.006-0.009,0.006v90.306h-0.166c-4.2,0-7.604,3.405-7.604,7.604v83.161l-7.596,34.888
			c-0.116,0.531-0.174,1.074-0.174,1.618v32.61c0,4.199,3.404,7.604,7.604,7.604s7.604-3.405,7.604-7.604v-31.791l6.293-28.903
			h65.178v25.718c0,0.013-0.002,0.025-0.002,0.04s0.002,87.892,0.002,87.892H95.479v-27.606c0-4.199-3.404-7.604-7.604-7.604
			s-7.604,3.405-7.604,7.604v35.21c0,4.199,3.404,7.604,7.604,7.604h336.249c4.2,0,7.604-3.405,7.604-7.604V375.539
			C431.729,371.34,428.325,367.935,424.125,367.935z M373.627,72.508l26.533,123.345l-9.734,16.72l-9.793-23.092
			c-1.191-2.809-3.948-4.635-7-4.635s-5.808,1.825-7,4.635l-9.793,23.092l-9.743-16.734L373.627,72.508z M165.301,186.048h-14.318
			l9.268-25.552L165.301,186.048z M138.985,48.759l15.572,82.83l-15.572,42.934l-15.573-42.934L138.985,48.759z M117.719,160.495
			l9.269,25.552h-14.319L117.719,160.495z M166.951,367.935H103.25v0v-68.77h0.166h63.535V367.935z M166.951,283.957H111.02v-82.702
			h55.931V283.957z M331.449,401.295h-30.417c-4.2,0-7.604,3.405-7.604,7.604s3.404,7.604,7.604,7.604h30.417v80.289h-149.29
			v-80.289h30.424c4.2,0,7.604-3.405,7.604-7.604s-3.404-7.604-7.604-7.604h-30.424v-102.13h149.29V401.295z M346.656,314.706
			h53.951v53.229h-53.951V314.706z M416.521,496.792h-69.864V383.143h69.864V496.792z"/>
	</g>
</g>
<g>
	<g>
		<path d="M373.631,249.683c-4.2,0-7.604,3.405-7.604,7.604v29.402c0,4.199,3.404,7.604,7.604,7.604c4.2,0,7.604-3.405,7.604-7.604
			v-29.402C381.235,253.087,377.832,249.683,373.631,249.683z"/>
	</g>
</g>
<g>
	<g>
		<path d="M319.697,257.324H193.91c-4.2,0-7.604,3.405-7.604,7.604c0,4.199,3.404,7.604,7.604,7.604h125.787
			c4.2,0,7.604-3.405,7.604-7.604C327.301,260.729,323.897,257.324,319.697,257.324z"/>
	</g>
</g>
<g>
	<g>
		<path d="M256.803,311.608c-28.918,0-52.446,23.528-52.446,52.446s23.528,52.446,52.446,52.446
			c28.918,0,52.446-23.528,52.446-52.446S285.721,311.608,256.803,311.608z M256.803,401.291c-20.533,0-37.238-16.705-37.238-37.238
			s16.704-37.238,37.238-37.238s37.238,16.705,37.238,37.238S277.336,401.291,256.803,401.291z"/>
	</g>
</g>
<g>
	<g>
		<path d="M252.617,341.527c-2.099-3.64-6.752-4.887-10.392-2.788c-3.641,2.099-4.887,6.742-2.788,10.382
			c1.409,2.443,3.963,3.812,6.6,3.812c1.288,0,2.595-0.335,3.792-1.024C253.458,349.811,254.714,345.167,252.617,341.527z"/>
	</g>
</g>
<g>
	<g>
		<path d="M274.141,379.02c-2.099-3.64-6.741-4.897-10.382-2.808c-3.64,2.089-4.907,6.742-2.808,10.382
			c1.399,2.443,3.964,3.812,6.6,3.812c1.277,0,2.585-0.324,3.772-1.004C274.973,387.313,276.231,382.66,274.141,379.02z"/>
	</g>
</g>
<g>
	<g>
		<path d="M249.768,376.171c-3.618-2.119-8.283-0.892-10.392,2.737s-0.882,8.283,2.748,10.402c1.197,0.7,2.514,1.034,3.812,1.034
			c2.627,0,5.172-1.359,6.58-3.782C254.633,382.933,253.397,378.28,249.768,376.171z"/>
	</g>
</g>
<g>
	<g>
		<path d="M271.434,338.771c-3.64-2.109-8.283-0.872-10.392,2.768c-2.109,3.629-0.873,8.283,2.768,10.392
			c1.196,0.689,2.504,1.024,3.802,1.024c2.626,0,5.18-1.359,6.59-3.792C276.3,345.533,275.064,340.879,271.434,338.771z"/>
	</g>
</g>
<g>
	<g>
		<path d="M235.21,356.401c-4.198-0.01-7.604,3.396-7.615,7.594c-0.01,4.197,3.385,7.605,7.584,7.614c0.01,0,0.01,0,0.02,0
			c4.187,0,7.594-3.386,7.604-7.584C242.814,359.828,239.416,356.411,235.21,356.401z"/>
	</g>
</g>
<g>
	<g>
		<path d="M278.409,356.451c-4.147,0.001-7.523,3.316-7.604,7.442c0,0.081,0,0.152,0,0.223c-0.02,4.197,3.376,7.614,7.574,7.634
			c0.011,0,0.021,0,0.03,0c4.147,0,7.523-3.326,7.604-7.472c0-0.071,0-0.152,0-0.223
			C286.013,359.858,282.608,356.451,278.409,356.451z"/>
	</g>
</g>
<g>
	<g>
		<path d="M212.699,440.797c-10.901,0-19.77,8.869-19.77,19.77v21.291c0,4.199,3.404,7.604,7.604,7.604h24.333
			c4.2,0,7.604-3.405,7.604-7.604v-21.291C232.469,449.666,223.6,440.797,212.699,440.797z M217.261,474.254h-9.125v-13.687
			c0-2.515,2.047-4.562,4.562-4.562c2.515,0,4.562,2.047,4.562,4.562V474.254z"/>
	</g>
</g>
<g>
	<g>
		<path d="M135.1,309.218c-10.901,0-19.77,8.869-19.77,19.77v21.291c0,4.199,3.404,7.604,7.604,7.604h24.333
			c4.2,0,7.604-3.405,7.604-7.604v-21.291C154.87,318.086,146.001,309.218,135.1,309.218z M139.662,342.675h-9.125v-13.687
			c0-2.515,2.047-4.562,4.562-4.562s4.562,2.047,4.562,4.562V342.675z"/>
	</g>
</g>
<g>
	<g>
		<path d="M258.848,427.108c-10.901,0-19.77,8.869-19.77,19.77v34.979c0,4.199,3.404,7.604,7.604,7.604h24.333
			c4.2,0,7.604-3.405,7.604-7.604v-34.979C278.618,435.978,269.749,427.108,258.848,427.108z M263.41,474.254h-9.125v-27.375
			c0-2.515,2.047-4.562,4.562-4.562c2.515,0,4.562,2.047,4.562,4.562V474.254z"/>
	</g>
</g>
<g>
	<g>
		<path d="M304.996,440.797c-10.901,0-19.77,8.869-19.77,19.77v21.291c0,4.199,3.404,7.604,7.604,7.604h24.333
			c4.2,0,7.604-3.405,7.604-7.604v-21.291C324.766,449.666,315.897,440.797,304.996,440.797z M309.558,474.254h-9.125v-13.687
			c0-2.515,2.047-4.562,4.562-4.562s4.562,2.047,4.562,4.562V474.254z"/>
	</g>
</g>
<g>
	<g>
		<path d="M381.588,406.21c-10.901,0-19.77,8.869-19.77,19.77v42.19c0,4.199,3.404,7.604,7.604,7.604h24.333
			c4.2,0,7.604-3.405,7.604-7.604v-42.19C401.358,415.078,392.489,406.21,381.588,406.21z M386.15,460.566h-9.125V425.98
			c0-2.515,2.047-4.562,4.562-4.562s4.562,2.047,4.562,4.562V460.566z"/>
	</g>
</g>
<g>
	<g>
		<path d="M131.215,406.21c-10.901,0-19.77,8.869-19.77,19.77v42.19c0,4.199,3.404,7.604,7.604,7.604h24.333
			c4.2,0,7.604-3.405,7.604-7.604v-42.19C150.985,415.079,142.116,406.21,131.215,406.21z M135.777,460.566h-9.125V425.98
			c0-2.515,2.047-4.562,4.562-4.562s4.562,2.047,4.562,4.562V460.566z"/>
	</g>
</g>
<g>
	<g>
		<path d="M138.985,207.823c-10.901,0-19.77,8.869-19.77,19.77v42.19c0,4.199,3.404,7.604,7.604,7.604h24.333
			c4.2,0,7.604-3.405,7.604-7.604v-42.19C158.755,216.693,149.886,207.823,138.985,207.823z M143.548,262.181h-9.125v-34.586
			c0-2.515,2.047-4.562,4.562-4.562c2.515,0,4.562,2.047,4.562,4.562V262.181z"/>
	</g>
</g>
<g>
</g>
<g>
</g>
<g>
</g>
<g>
</g>
<g>
</g>
<g>
</g>
<g>
</g>
<g>
</g>
<g>
</g>
<g>
</g>
<g>
</g>
<g>
</g>
<g>
</g>
<g>
</g>
<g>
</g>
</svg>
