<?xml version="1.0" encoding="iso-8859-1"?>
<!-- Generator: Adobe Illustrator 19.0.0, SVG Export Plug-In . SVG Version: 6.00 Build 0)  -->
<svg version="1.1" id="Layer_1" xmlns="http://www.w3.org/2000/svg" xmlns:xlink="http://www.w3.org/1999/xlink" x="0px" y="0px"
	 viewBox="0 0 512.002 512.002" style="enable-background:new 0 0 512.002 512.002;" xml:space="preserve">
<g>
	<polygon style="fill:#CACED9;" points="41.49,362.258 41.49,512 193.03,512 193.03,285.586 	"/>
	<polygon style="fill:#CACED9;" points="470.512,362.258 470.512,512 318.973,512 318.973,285.586 	"/>
</g>
<g>
	<polygon style="fill:#FF9A4E;" points="205.631,294.512 41.49,377.559 24.004,349.15 188.145,266.103 	"/>
	<polygon style="fill:#FF9A4E;" points="306.372,294.512 470.512,377.559 487.998,349.15 323.859,266.103 	"/>
	<path style="fill:#FF9A4E;" d="M281.017,25.413h-16.819V8.197c0-4.527-3.67-8.197-8.197-8.197s-8.197,3.67-8.197,8.197v17.216
		h-16.819c-4.527,0-8.197,3.67-8.197,8.197s3.67,8.197,8.197,8.197h16.819V91.81c0,4.527,3.67,8.197,8.197,8.197
		s8.197-3.67,8.197-8.197V41.807h16.819c4.527,0,8.197-3.67,8.197-8.197S285.544,25.413,281.017,25.413z"/>
</g>
<polygon style="opacity:0.1;enable-background:new    ;" points="371.836,512 371.836,290.377 323.859,266.103 306.372,294.512 
	318.973,300.888 318.973,512 "/>
<polygon style="opacity:0.1;enable-background:new    ;" points="193.03,300.888 205.631,294.512 188.145,266.103 140.167,290.377 
	140.167,512 193.03,512 "/>
<polygon style="fill:#DDE1ED;" points="339.049,168.037 256.002,107.296 172.954,168.037 172.954,512 339.049,512 "/>
<polygon style="fill:#FF9A4E;" points="339.049,182.245 256.002,121.503 172.954,182.245 140.167,165.604 256.002,80.882 
	371.836,165.604 "/>
<g>
	<path style="fill:#B1B5BF;" d="M256.002,188.461c-15.943,0-28.869,12.925-28.869,28.869v54.271h57.737V217.33
		C284.871,201.387,271.945,188.461,256.002,188.461z"/>
	<path style="fill:#B1B5BF;" d="M96.238,389.321c-14,0-25.35,11.35-25.35,25.35v47.656h50.7v-47.656
		C121.588,400.671,110.238,389.321,96.238,389.321z"/>
	<path style="fill:#B1B5BF;" d="M415.765,389.321c14,0,25.35,11.35,25.35,25.35v47.656h-50.7v-47.656
		C390.415,400.671,401.764,389.321,415.765,389.321z"/>
</g>
<rect x="214.789" y="371.575" style="fill:#FF9A4E;" width="82.427" height="140.427"/>
<g>
</g>
<g>
</g>
<g>
</g>
<g>
</g>
<g>
</g>
<g>
</g>
<g>
</g>
<g>
</g>
<g>
</g>
<g>
</g>
<g>
</g>
<g>
</g>
<g>
</g>
<g>
</g>
<g>
</g>
</svg>
