<svg id="Capa_1" enable-background="new 0 0 512 512" height="512" viewBox="0 0 512 512" width="512" xmlns="http://www.w3.org/2000/svg"><g><g><g><path d="m256.519 356.264h211.229v-107.855h-271.229z" fill="#f5deb2"/></g></g><g><g><path d="m44.289 380.867h426.23v107.855h-426.23z" fill="#f5deb2"/></g></g><g><g><path d="m227.519 223.981h-183.23v-107.855h143.23z" fill="#f5deb2"/></g></g><g><g><path d="m44.289 23.308v68.39h120.23l-25.643-68.39z" fill="#f5deb2"/></g></g><g><g><path d="m437.748 248.409h30v107.855h-30z" fill="#edce91"/></g></g><g><g><path d="m440.519 380.867h30v107.855h-30z" fill="#edce91"/></g></g><g><g><path d="m187.519 116.126h-30l40 107.855h30z" fill="#edce91"/></g></g><g><g><path d="m138.876 23.308h-30l25.643 68.39h30z" fill="#edce91"/></g></g><g><g><path d="m33.917 356.184h444.166v24.502h-444.166z" fill="#bc9b5b"/></g></g><g><g><path d="m77.826 488.722h-33.537v-76.753h7.97c14.121 0 25.568 11.447 25.568 25.568v51.185z" fill="#dbb56a"/></g></g><g><g><path d="m470.519 488.722h-33.538v-51.186c0-14.121 11.447-25.568 25.568-25.568h7.97z" fill="#dbb56a"/></g></g><g><g><path d="m159.569 488.722h-51.136v-51.186c0-14.121 11.447-25.568 25.568-25.568 14.121 0 25.568 11.447 25.568 25.568z" fill="#dbb56a"/></g></g><g><g><path d="m241.837 488.722h-51.136v-51.186c0-14.121 11.447-25.568 25.568-25.568 14.121 0 25.568 11.447 25.568 25.568z" fill="#dbb56a"/></g></g><g><g><path d="m324.106 488.722h-51.136v-51.186c0-14.121 11.447-25.568 25.568-25.568 14.121 0 25.568 11.447 25.568 25.568z" fill="#dbb56a"/></g></g><g><g><path d="m406.374 488.722h-51.136v-51.186c0-14.121 11.447-25.568 25.568-25.568 14.121 0 25.568 11.447 25.568 25.568z" fill="#dbb56a"/></g></g><g><g><path d="m34.827 223.768h444.166v24.502h-444.166z" fill="#bc9b5b"/></g></g><g><g><path d="m316.519 356.264h-272.23v-107.855h232.23z" fill="#f5deb2"/></g></g><g><g><path d="m77.826 356.264h-33.537v-76.754h7.97c14.121 0 25.568 11.447 25.568 25.568v51.186z" fill="#dbb56a"/></g></g><g><g><path d="m467.754 355.853h-33.538v-51.186c0-14.121 11.447-25.568 25.568-25.568h7.97z" fill="#dbb56a"/></g></g><g><g><path d="m159.569 356.264h-51.136v-51.186c0-14.121 11.447-25.568 25.568-25.568 14.121 0 25.568 11.447 25.568 25.568z" fill="#dbb56a"/></g></g><g><g><path d="m241.837 356.264h-51.136v-51.186c0-14.121 11.447-25.568 25.568-25.568 14.121 0 25.568 11.447 25.568 25.568z" fill="#dbb56a"/></g></g><g><g><path d="m403.609 355.853h-51.136v-51.186c0-14.121 11.447-25.568 25.568-25.568 14.121 0 25.568 11.447 25.568 25.568z" fill="#dbb56a"/></g></g><g><g><path d="m77.826 223.981h-33.537v-76.753h7.97c14.121 0 25.568 11.447 25.568 25.568v51.185z" fill="#dbb56a"/></g></g><g><g><path d="m159.569 223.981h-51.136v-51.186c0-14.121 11.447-25.568 25.568-25.568 14.121 0 25.568 11.447 25.568 25.568z" fill="#dbb56a"/></g></g><g><g><path d="m33.917 91.31h172.166v24.502h-172.166z" fill="#bc9b5b"/></g></g><g><path d="m504.5 481.192h-26.481v-93.006h.064c4.143 0 7.5-3.358 7.5-7.5v-24.502c0-4.142-3.357-7.5-7.5-7.5h-2.835v-69.468c.001-.039.006-.077.006-.116s-.005-.077-.006-.116v-23.214h3.746c4.143 0 7.5-3.358 7.5-7.5v-24.502c0-4.142-3.357-7.5-7.5-7.5h-164.297c-4.143 0-7.5 3.358-7.5 7.5s3.357 7.5 7.5 7.5h156.797v9.502h-429.167v-9.502h.217c.561.134 1.143.212 1.745.212l240.408-.212c4.143 0 7.5-3.358 7.5-7.5s-3.357-7.5-7.5-7.5h-52.04l-34.475-92.957h7.9c4.143 0 7.5-3.358 7.5-7.5v-24.501c0-4.142-3.357-7.5-7.5-7.5h-36.512l-23.673-63.135c-1.098-2.927-3.896-4.867-7.022-4.867h-94.586c-4.143 0-7.5 3.358-7.5 7.5v60.502h-2.872c-4.143 0-7.5 3.358-7.5 7.5v24.502c0 4.142 3.357 7.5 7.5 7.5h2.872v92.957h-1.962c-4.142 0-7.5 3.358-7.5 7.5v24.502c0 4.142 3.358 7.5 7.5 7.5h1.962v92.914h-2.872c-4.143 0-7.5 3.358-7.5 7.5v24.502c0 4.142 3.357 7.5 7.5 7.5h2.872v93.006h-29.289c-4.143 0-7.5 3.358-7.5 7.5s3.357 7.5 7.5 7.5h497c4.143 0 7.5-3.358 7.5-7.5 0-4.143-3.357-7.501-7.5-7.501zm-41.481 0h-18.539v-43.656c0-9.963 8.105-18.068 18.068-18.068h.47v61.724zm-21.303-132.508v-44.017c0-9.962 8.105-18.067 18.068-18.067h.464v62.084zm-45.607 0h-36.136v-44.017c0-9.962 8.105-18.067 18.067-18.067 9.963 0 18.068 8.105 18.068 18.067v44.017zm-18.068-77.084c-18.233 0-33.067 14.834-33.067 33.067v44.017h-23.267l-34.407-92.775h172.949v15.691h-.464c-18.234 0-33.068 14.834-33.068 33.067v44.017h-15.606v-44.017c-.002-18.233-14.836-33.067-33.07-33.067zm-225.973-55.331h-36.135v-43.473c0-9.963 8.105-18.068 18.067-18.068s18.067 8.105 18.067 18.068v43.473zm46.515-107.957h-157.166v-9.502h157.166zm-146.794-45.039h47.172c4.143 0 7.5-3.358 7.5-7.5s-3.357-7.5-7.5-7.5h-47.172v-17.465h81.89l19.873 53.002h-101.763zm130.404 60.039c.017.05.029.101.047.151l34.419 92.806h-49.591v-43.473c0-18.234-14.834-33.068-33.067-33.068s-33.067 14.834-33.067 33.068v43.473h-15.608v-43.473c0-18.234-14.834-33.068-33.067-33.068h-.47v-16.415h130.404zm-130.404 31.415h.47c9.962 0 18.067 8.105 18.067 18.068v43.473h-18.537zm219.46 101.043 34.458 92.914h-56.371v-43.606c0-18.234-14.834-33.068-33.067-33.068-18.234 0-33.068 14.834-33.068 33.068v43.606h-16.133v-43.606c0-18.234-14.834-33.068-33.067-33.068s-33.067 14.834-33.067 33.068v43.606h-15.608v-43.606c0-18.234-14.834-33.068-33.067-33.068h-.47v-16.24zm-36.912 92.914h-36.136v-43.606c0-9.963 8.105-18.068 18.068-18.068 9.962 0 18.067 8.105 18.067 18.068v43.606zm-82.269 0h-36.135v-43.606c0-9.963 8.105-18.068 18.067-18.068s18.067 8.105 18.067 18.068v43.606zm-100.279-61.674h.47c9.962 0 18.067 8.105 18.067 18.068v43.606h-18.537zm38.211 101.176c4.143 0 7.5-3.358 7.5-7.5s-3.357-7.5-7.5-7.5h-48.583v-9.502h429.166v9.502h-350.583c-4.143 0-7.5 3.358-7.5 7.5s3.357 7.5 7.5 7.5h343.019v16.283h-.47c-18.234 0-33.068 14.834-33.068 33.068v43.656h-15.607v-43.656c0-18.234-14.834-33.068-33.067-33.068-18.234 0-33.068 14.834-33.068 33.068v43.656h-16.133v-43.656c0-18.234-14.834-33.068-33.067-33.068-18.234 0-33.068 14.834-33.068 33.068v43.656h-16.133v-43.656c0-18.234-14.834-33.068-33.067-33.068-18.234 0-33.068 14.834-33.068 33.068v43.656h-16.133v-43.656c0-18.234-14.834-33.068-33.067-33.068s-33.067 14.834-33.067 33.068v43.656h-15.61v-43.656c0-18.234-14.834-33.068-33.067-33.068h-.47v-16.283zm308.874 93.006h-36.136v-43.656c0-9.963 8.105-18.068 18.068-18.068 9.962 0 18.067 8.105 18.067 18.068v43.656zm-82.269 0h-36.135v-43.656c0-9.963 8.105-18.068 18.068-18.068 9.962 0 18.067 8.105 18.067 18.068zm-82.268 0h-36.136v-43.656c0-9.963 8.105-18.068 18.068-18.068 9.962 0 18.067 8.105 18.067 18.068v43.656zm-82.269 0h-36.135v-43.656c0-9.963 8.105-18.068 18.067-18.068s18.067 8.105 18.067 18.068v43.656zm-100.279-61.723h.47c9.962 0 18.067 8.105 18.067 18.068v43.656h-18.537z"/></g></g></svg>