<svg id="Capa_1" enable-background="new 0 0 511.021 511.021" height="512" viewBox="0 0 511.021 511.021" width="512" xmlns="http://www.w3.org/2000/svg"><g><path d="m480.001 481.033h31v15h-31z" transform="matrix(1 -.003 .003 1 -1.306 1.329)"/><path d="m450.129 481.075h15v15h-15z"/><path d="m243.288 164.962h15v15h-15z" transform="matrix(.263 -.965 .965 .263 18.489 369.12)"/><path d="m235.28 193.873h15v14.999h-15z" transform="matrix(.271 -.963 .963 .271 -16.871 380.467)"/><path d="m398.902 458.727c-8.971-18.912-18.493-41.454-28.358-67.112h11.957v-44.968h-28.476c-8.158-23.15-16.579-48.402-25.094-75.248h15.89v-44.968h-29.79c-9.041-29.97-17.998-61.035-26.644-92.456l-14.463 3.98c8.263 30.025 16.808 59.733 25.441 88.476h-87.367c18.915-64.288 32.54-118.374 36.798-135.625h12.487c1.624 6.254 4.554 17.422 8.536 32.121l14.479-3.923c-3.265-12.048-5.814-21.697-7.514-28.198h15.718v-44.617h-29.904v-31.205l-15-.037v31.242h-30.096v44.617h15.84c-5.145 20.677-18.672 73.72-36.983 135.625h-31.175v44.968h17.477c-2.375 7.565-4.398 13.856-7.198 22.415l14.256 4.665c3.357-10.258 5.605-17.281 8.659-27.08h114.82c8.444 26.764 16.808 52.007 24.931 75.248h-39.73l-19.088-60.432h-48.427l-19.225 60.432h-38.185c3.807-10.797 7.661-22.062 11.503-33.619l-14.234-4.731c-4.409 13.265-8.835 26.14-13.182 38.351h-29.882v44.968h13.057c-13.748 35.393-26.003 59.763-40.42 89.396l-100.314-.02-.002 15 435 .083.002-15-25.299-.005zm-166.401-397.538h45v14.617c-6.384 0-38.604 0-45 0zm-52.318 180.242h149.637v14.968h-149.637zm212.858 239.636-37.729-.007c-7.627-35.821-22.299-70.971-51.552-89.444h50.726c10.733 28.247 38.555 89.451 38.555 89.451zm-134.549-89.452c44.519 2.189 72.463 42.541 81.293 89.441l-169.383-.032c9.239-49.579 39.969-91.323 88.09-89.409zm-16.64-90.4h26.466l14.351 45.432h-55.269zm-99.173 60.432h224.822v14.968c-57.846-.003-166.989-.003-224.822 0zm14.167 29.968h49.547c-29.239 18.482-43.934 53.565-51.51 89.406l-37.907-.007c-.001 0 28.782-60.904 39.87-89.399z"/><path d="m390.001 210.965h15v-14.75h14.75v-15h-14.75v-14.75h-15v14.75h-14.75v15h14.75z"/><path d="m435.125 135.965h15v15h-15z"/><path d="m105.067 210.675h15v-14.75h14.75v-15h-14.75v-14.75h-15v14.75h-14.75v15h14.75z"/><path d="m59.969 135.965h15v15h-15z"/></g></svg>