<svg id="Capa_1" enable-background="new 0 0 507.105 507.105" height="512" viewBox="0 0 507.105 507.105" width="512" xmlns="http://www.w3.org/2000/svg"><path d="m416.093 75.513h66.07v69.63h-66.07z" fill="#ebe0da"/><path d="m154.783 75.513h66.07v69.63h-66.07z" fill="#ebe0da"/><path d="m286.503 75.513h66.07v69.63h-66.07z" fill="#ebe0da"/><path d="m451.093 75.513h31.07v69.63h-31.07z" fill="#fff5f4"/><path d="m189.783 75.513h31.07v69.63h-31.07z" fill="#fff5f4"/><path d="m321.503 75.513h31.07v69.63h-31.07z" fill="#fff5f4"/><g fill="#ebe0da"><path d="m482.163 133.693v338.5c0 5.79-4.7 10.49-10.49 10.49h-32.66v-173.81c0-16.14-4.25-32-12.31-45.99l-30.04-52.11c-2.26-3.91-7.91-3.91-10.17 0l-30.04 52.11c-8.07 13.99-12.31 29.85-12.31 45.99v173.81h-43.15v-173.81c0-16.14-4.25-32-12.31-45.99l-30.04-52.11c-2.26-3.91-7.91-3.91-10.17 0l-30.04 52.11c-8.06 13.99-12.31 29.85-12.31 45.99v173.81h-43.15v-173.81c0-16.14-4.24-32-12.31-45.99l-30.04-52.11c-2.26-3.91-7.91-3.91-10.17 0l-30.04 52.11c-8.06 13.99-12.31 29.85-12.31 45.99v173.81h-32.67c-5.79 0-10.49-4.7-10.49-10.49v-338.5z"/><path d="m220.123 482.68h-70.91c-1.867 0-3.381-1.514-3.381-3.381v-24.124c0-.585.152-1.159.44-1.668l16.701-29.453h43.15l16.93 29.446c.295.513.45 1.094.45 1.685v24.113c0 1.868-1.513 3.382-3.38 3.382z"/><path d="m82.103 482.68h-70.91c-1.867 0-3.381-1.514-3.381-3.381v-24.124c0-.585.152-1.159.44-1.668l16.701-29.453h43.15l16.93 29.446c.295.513.45 1.094.45 1.685v24.113c0 1.868-1.513 3.382-3.38 3.382z"/><path d="m358.111 482.68h-70.91c-1.867 0-3.381-1.514-3.381-3.381v-24.124c0-.585.152-1.159.44-1.668l16.701-29.453h43.15l16.93 29.446c.295.513.45 1.094.45 1.685v24.113c0 1.868-1.513 3.382-3.38 3.382z"/><path d="m496.16 482.68h-70.91c-1.867 0-3.381-1.514-3.381-3.381v-24.124c0-.585.152-1.159.44-1.668l16.701-29.453h43.15l16.93 29.446c.295.513.45 1.094.45 1.685v24.113c.001 1.868-1.513 3.382-3.38 3.382z"/></g><path d="m24.946 75.517h66.064v58.171h-66.064z" fill="#fff5f4"/><path d="m24.943 424.073-16.69 29.44c-.29.5-.44 1.08-.44 1.66v24.13c0 1.86 1.51 3.38 3.38 3.38h35c-1.87 0-3.38-1.52-3.38-3.38v-24.13c0-.58.15-1.16.44-1.66l16.69-29.44v-.02c0-6.097 0-329.604 0-348.54h-35z" fill="#ebe0da"/><path d="m56.859 24.922-48.959 54.159c-.877.97-.189 2.521 1.119 2.521h97.918c1.308 0 1.996-1.55 1.119-2.521l-48.959-54.159c-.599-.662-1.639-.662-2.238 0z" fill="#d8cecc"/><path d="m448.008 24.922-48.959 54.159c-.877.97-.189 2.521 1.119 2.521h97.918c1.308 0 1.996-1.55 1.119-2.521l-48.959-54.159c-.598-.662-1.639-.662-2.238 0z" fill="#d8cecc"/><path d="m186.698 24.922-48.959 54.159c-.877.97-.189 2.521 1.119 2.521h97.918c1.308 0 1.996-1.55 1.119-2.521l-48.959-54.159c-.598-.662-1.639-.662-2.238 0z" fill="#d8cecc"/><path d="m318.417 24.922-48.959 54.159c-.877.97-.189 2.521 1.119 2.521h97.918c1.308 0 1.996-1.55 1.119-2.521l-48.959-54.159c-.599-.662-1.639-.662-2.238 0z" fill="#d8cecc"/><path d="m44.023 81.603h-35c-1.31 0-2-1.55-1.12-2.52l48.96-54.16c.6-.66 1.64-.66 2.23 0l16.39 18.13-32.58 36.03c-.88.97-.19 2.52 1.12 2.52z" fill="#c8bebc"/><path d="m435.173 81.603h-35c-1.31 0-2-1.55-1.12-2.52l48.96-54.16c.59-.66 1.63-.66 2.23 0l16.39 18.13-32.58 36.03c-.88.97-.19 2.52 1.12 2.52z" fill="#c8bebc"/><path d="m173.863 81.603h-35c-1.31 0-2-1.55-1.12-2.52l48.96-54.16c.59-.66 1.63-.66 2.23 0l16.39 18.13-32.58 36.03c-.88.97-.19 2.52 1.12 2.52z" fill="#c8bebc"/><path d="m305.573 81.603h-35c-1.3 0-1.99-1.55-1.12-2.52l1.72-1.9 47.24-52.26c.6-.66 1.64-.66 2.24 0l16.38 18.12-32.58 36.04c-.87.97-.18 2.52 1.12 2.52z" fill="#c8bebc"/><path d="m43.253 453.513 16.69-29.44v-290.38h-35v290.38l-16.69 29.44c-.29.5-.44 1.08-.44 1.66v24.13c0 1.86 1.51 3.38 3.38 3.38h24.24 10.76c-1.87 0-3.38-1.52-3.38-3.38v-24.13c0-.58.15-1.16.44-1.66z" fill="#d8cecc"/><path d="m489.663 422.055v-229.963c0-4.143-3.358-7.5-7.5-7.5s-7.5 3.357-7.5 7.5v224.463h-28.15v-41.83c0-4.143-3.358-7.5-7.5-7.5s-7.5 3.357-7.5 7.5v47.349l-15.727 27.733c-.926 1.634-1.416 3.489-1.416 5.367v20.008h-45.379v-19.997c0-1.898-.5-3.772-1.448-5.423l-15.901-27.656v-113.235c0-14.821 3.909-29.428 11.308-42.243l28.627-49.66 28.627 49.66c13.731 23.815 11.308 41.669 11.308 78.097 0 4.143 3.358 7.5 7.5 7.5s7.5-3.357 7.5-7.5c0-70.648 2.749-57.728-43.357-137.707-5.145-8.9-17.998-8.921-23.16.008l-30.038 52.106c-8.71 15.09-13.314 32.289-13.314 49.739v107.684h-28.15v-107.684c0-17.432-4.604-34.63-13.313-49.735l-30.044-52.117c-5.147-8.907-18.003-8.916-23.161.007l-30.04 52.11c-8.709 15.105-13.313 32.304-13.313 49.735v107.684h-28.15v-107.684c0-17.451-4.604-34.65-13.313-49.735l-30.044-52.117c-5.159-8.927-18.01-8.904-23.161.007l-30.04 52.11c-8.709 15.105-13.312 32.304-13.312 49.735v107.684h-28.16v-275.364h75.12c4.142 0 7.5-3.357 7.5-7.5s-3.358-7.5-7.5-7.5h-9.05v-37.091h8.424c3.558 0 6.791-2.102 8.234-5.354s.834-7.059-1.551-9.696l-48.961-54.161c-3.576-3.952-9.788-3.948-13.36 0-.001.001-.002.002-.002.003l-48.959 54.158c-5.233 5.785-1.102 15.05 6.682 15.05h8.424v332.994l-15.714 27.712c-.926 1.634-1.416 3.489-1.416 5.367v24.124c0 6 4.881 10.881 10.88 10.881h484.967c6 0 10.88-4.881 10.88-10.881v-24.113c0-1.901-.501-3.776-1.448-5.423zm-406.15-295.864h-51.07v-37.091h51.07zm-25.535-91.324 35.467 39.233h-70.934zm20.005 440.312h-62.67v-18.918l14.01-24.706h34.442l14.219 24.729v18.895zm60.349-20.005v20.008h-45.349v-19.997c0-1.901-.501-3.776-1.448-5.423l-15.932-27.712v-113.18c0-14.806 3.91-29.413 11.308-42.243l28.627-49.66 28.629 49.664c7.396 12.812 11.306 27.417 11.306 42.239v113.206l-15.727 27.734c-.925 1.634-1.414 3.489-1.414 5.364zm77.671 20.005h-62.671v-18.918l14.01-24.706h34.442l14.219 24.729zm60.318-20.005v20.008h-45.317v-19.997c0-1.898-.5-3.772-1.448-5.423l-15.933-27.711v-113.18c0-14.806 3.91-29.413 11.308-42.243l28.627-49.66 28.627 49.66c7.397 12.83 11.308 27.438 11.308 42.243v113.151l-15.759 27.79c-.925 1.632-1.413 3.487-1.413 5.362zm77.67 20.005h-62.671v-18.918l14.01-24.706h34.442l14.219 24.729zm138.05 0h-62.67v-18.918l14.01-24.706h34.442l14.219 24.729v18.895z"/><path d="m138.858 89.1h8.425v37.091h-9.72c-4.142 0-7.5 3.357-7.5 7.5s3.358 7.5 7.5 7.5h337.1v20.9c0 4.143 3.358 7.5 7.5 7.5s7.5-3.357 7.5-7.5c0-8.211 0-66.619 0-72.991h8.424c7.799 0 11.905-9.277 6.683-15.05l-48.962-54.162c-4.685-5.178-12.152-2.418-13.363.003l-48.958 54.159c-5.233 5.785-1.102 15.051 6.682 15.051h8.424v37.091h-48.52v-37.092h8.422c7.799 0 11.904-9.277 6.683-15.05l-48.961-54.162c-4.719-5.216-12.187-2.35-13.363.003l-48.959 54.159c-5.232 5.785-1.103 15.051 6.682 15.051h8.426v37.091h-50.65v-37.092h8.424c7.811 0 11.896-9.289 6.683-15.05l-48.961-54.162c-3.576-3.951-9.788-3.948-13.361 0-.001.001-.002.002-.002.003l-48.96 54.159c-5.232 5.784-1.102 15.05 6.682 15.05zm335.805 37.091h-51.07v-37.091h51.07zm-25.535-91.324 35.466 39.233h-70.934zm-104.055 91.324h-51.07v-37.091h51.07zm-25.537-91.324 35.467 39.233h-70.933zm-106.183 91.324h-51.07v-37.091h51.07zm-25.536-91.324 35.467 39.233h-70.933z"/></svg>