<svg xmlns="http://www.w3.org/2000/svg" height="884pt" version="1.1" viewBox="0 0 884.99775 884" width="884pt">
<g id="surface1">
<path d="M 442.5 428.246094 C 466.941406 428.246094 486.753906 408.4375 486.753906 383.996094 C 486.753906 359.558594 466.941406 339.746094 442.5 339.746094 C 418.066406 339.746094 398.253906 359.558594 398.253906 383.996094 C 398.253906 408.4375 418.066406 428.246094 442.5 428.246094 Z M 442.5 369.246094 C 450.652344 369.246094 457.253906 375.847656 457.253906 383.996094 C 457.253906 392.140625 450.652344 398.746094 442.5 398.746094 C 434.355469 398.746094 427.753906 392.140625 427.753906 383.996094 C 427.753906 375.847656 434.355469 369.246094 442.5 369.246094 Z M 442.5 369.246094 " style=" stroke:none;fill-rule:nonzero;fill:rgb(0%,0%,0%);fill-opacity:1;" />
<path d="M 840.753906 797 C 840.753906 790.234375 836.144531 784.332031 829.585938 782.6875 C 813.1875 778.535156 797.179688 772.957031 781.75 766.019531 L 781.75 738 L 752.25 738 L 752.25 750.929688 C 742.027344 744.933594 732.175781 738.328125 722.75 731.140625 L 722.75 693.75 L 693.25 693.75 L 693.25 705.164062 C 682.519531 694.304688 672.660156 682.632812 663.75 670.238281 L 663.75 619.996094 L 634.628906 619.996094 C 627.632812 604.644531 621.960938 588.71875 617.6875 572.398438 L 604.75 522.25 L 604.75 457.746094 L 588.097656 457.746094 L 545.320312 291.808594 C 545.097656 291.214844 544.824219 290.628906 544.507812 290.070312 C 544.359375 289.699219 544.421875 289.261719 544.242188 288.910156 L 457.25 115.011719 L 457.25 59.496094 L 486.75 59.496094 L 486.75 29.996094 L 457.25 29.996094 L 457.25 0.5 L 427.753906 0.5 L 427.753906 29.996094 L 398.253906 29.996094 L 398.253906 59.496094 L 427.753906 59.496094 L 427.753906 115.011719 L 340.796875 288.910156 C 340.621094 289.261719 340.679688 289.699219 340.535156 290.070312 C 340.21875 290.628906 339.945312 291.214844 339.722656 291.808594 L 296.902344 457.746094 L 280.253906 457.746094 L 280.253906 522.25 L 267.3125 572.398438 C 263.039062 588.71875 257.363281 604.644531 250.367188 619.996094 L 221.25 619.996094 L 221.25 670.238281 C 212.339844 682.632812 202.480469 694.304688 191.75 705.164062 L 191.75 693.75 L 162.25 693.75 L 162.25 731.140625 C 152.824219 738.328125 142.976562 744.933594 132.75 750.929688 L 132.75 738 L 103.246094 738 L 103.246094 766.019531 C 87.816406 772.957031 71.816406 778.535156 55.417969 782.6875 C 48.847656 784.332031 44.246094 790.234375 44.246094 797 L 44.246094 855.992188 L 0 855.992188 L 0 885.492188 L 884.996094 885.492188 L 884.996094 856 L 840.753906 856 Z M 634.25 679.589844 L 634.25 856 L 604.75 856 L 604.75 625.363281 C 612.820312 644.34375 622.699219 662.503906 634.25 679.589844 Z M 339.253906 856 L 309.753906 856 L 309.753906 525.992188 L 339.253906 411.679688 Z M 280.253906 625.363281 L 280.253906 856 L 250.753906 856 L 250.753906 679.589844 C 262.304688 662.503906 272.183594 644.34375 280.253906 625.363281 Z M 73.746094 808.3125 C 83.824219 805.363281 93.621094 801.863281 103.246094 797.984375 L 103.246094 855.992188 L 73.746094 855.992188 Z M 132.75 856 L 132.75 784.753906 C 142.886719 779.445312 152.738281 773.59375 162.25 767.230469 L 162.25 856 Z M 191.75 745.125 C 202.171875 736.332031 212.019531 726.882812 221.25 716.847656 L 221.25 856 L 191.75 856 Z M 368.753906 298.976562 L 442.5 151.476562 L 516.25 298.976562 L 516.25 856 L 486.75 856 L 486.75 726.726562 C 486.8125 700.90625 472.21875 677.289062 449.089844 665.796875 C 444.941406 663.71875 440.0625 663.71875 435.90625 665.796875 C 412.777344 677.289062 398.183594 700.90625 398.25 726.726562 L 398.25 856 L 368.753906 856 Z M 457.25 797 L 427.753906 797 L 427.753906 726.726562 C 427.703125 714.867188 433.152344 703.652344 442.5 696.355469 C 451.847656 703.652344 457.296875 714.863281 457.253906 726.726562 L 457.253906 797 Z M 427.753906 856 L 427.753906 826.5 L 457.25 826.5 L 457.25 856 Z M 545.75 411.679688 L 575.25 525.992188 L 575.25 856 L 545.75 856 Z M 663.75 856 L 663.75 716.847656 C 672.976562 726.882812 682.832031 736.332031 693.25 745.125 L 693.25 856 Z M 722.75 767.230469 C 732.265625 773.59375 742.109375 779.445312 752.25 784.753906 L 752.25 856 L 722.75 856 Z M 781.75 856 L 781.75 798.042969 C 791.382812 801.863281 801.179688 805.421875 811.253906 808.367188 L 811.253906 856 Z M 781.75 856 " style=" stroke:none;fill-rule:nonzero;fill:rgb(0%,0%,0%);fill-opacity:1;" />
<path d="M 427.753906 487.25 L 457.25 487.25 L 457.25 531.492188 L 427.753906 531.492188 Z M 427.753906 487.25 " style=" stroke:none;fill-rule:nonzero;fill:rgb(0%,0%,0%);fill-opacity:1;" />
<path d="M 427.753906 575.75 L 457.25 575.75 L 457.25 619.996094 L 427.753906 619.996094 Z M 427.753906 575.75 " style=" stroke:none;fill-rule:nonzero;fill:rgb(0%,0%,0%);fill-opacity:1;" />
<path d="M 427.753906 265.996094 L 457.25 265.996094 L 457.25 310.246094 L 427.753906 310.246094 Z M 427.753906 265.996094 " style=" stroke:none;fill-rule:nonzero;fill:rgb(0%,0%,0%);fill-opacity:1;" />
</g>
</svg>