<svg height="496pt" viewBox="0 0 496 496" width="496pt" xmlns="http://www.w3.org/2000/svg"><path d="m120 312v-173.398438c0-30.21875-19.335938-57.042968-48-66.601562-28.664062 9.550781-48 36.382812-48 66.601562v173.398438zm0 0" fill="#e6e9ed"/><path d="m24 296h96v16h-96zm0 0" fill="#ccd1d9"/><path d="m376 312v-173.398438c0-30.21875 19.335938-57.042968 48-66.601562 28.664062 9.550781 48 36.382812 48 66.601562v173.398438zm0 0" fill="#e6e9ed"/><path d="m376 296h96v16h-96zm0 0" fill="#ccd1d9"/><path d="m400 312h72l16 40v8h-480v-8l16-40zm0 0" fill="#656d78"/><path d="m418.65625 320-4.800781-8h-331.710938l-4.800781 8 23.992188 40h293.328124zm0 0" fill="#5b6570"/><path d="m413.855469 312-28.792969-48h-9.0625v48zm0 0" fill="#ccd1d9"/><path d="m88 312h32v-48h-9.0625l-28.792969 48zm0 0" fill="#ccd1d9"/><path d="m120 360-24-40 24-40h256l24 40-24 40zm0 0" fill="#48cfad"/><path d="m120 360h256l10.96875-18.28125-74.945312-61.71875h-128.046876l-74.945312 61.71875zm0 0" fill="#37bc9b"/><path d="m120 184h256v96h-256zm0 0" fill="#ccd1d9"/><path d="m120 200h256v16h-256zm0 0" fill="#aab2bd"/><path d="m120 264h256v16h-256zm0 0" fill="#aab2bd"/><path d="m184 200h128v80h-128zm0 0" fill="#e6e9ed"/><path d="m184 264h128v16h-128zm0 0" fill="#ccd1d9"/><path d="m184 200h128v16h-128zm0 0" fill="#ccd1d9"/><path d="m384 360-136-112-136 112zm0 0" fill="#5b6570"/><path d="m333.664062 360-85.664062-70.542969-88 70.542969zm0 0" fill="#838f9b"/><path d="m40 360h416v128h-416zm0 0" fill="#ccd1d9"/><path d="m120 424h64v64h-64zm0 0" fill="#aab2bd"/><path d="m216 424h64v64h-64zm0 0" fill="#aab2bd"/><path d="m312 424h64v64h-64zm0 0" fill="#aab2bd"/><path d="m424 424h-352v-64h352zm0 0" fill="#aab2bd"/><path d="m120 360h64v64h-64zm0 0" fill="#969faa"/><path d="m216 360h64v64h-64zm0 0" fill="#969faa"/><path d="m312 360h64v64h-64zm0 0" fill="#969faa"/><path d="m72 360h352v16h-352zm0 0" fill="#969faa"/><g fill="#e6e9ed"><path d="m40 360h32v128h-32zm0 0"/><path d="m424 360h32v128h-32zm0 0"/><path d="m136 360h32v128h-32zm0 0"/><path d="m232 360h32v128h-32zm0 0"/><path d="m328 360h32v128h-32zm0 0"/></g><path d="m120 168h256v32h-256zm0 0" fill="#48cfad"/><path d="m224 8h48v40h-48zm0 0" fill="#48cfad"/><path d="m152 168v-48c0-44.183594 35.816406-80 80-80h32c44.183594 0 80 35.816406 80 80v48zm0 0" fill="#e6e9ed"/><path d="m152 152h192v16h-192zm0 0" fill="#ccd1d9"/><path d="m153.609375 104c-1.050781 5.167969-1.609375 10.519531-1.609375 16h192c0-5.480469-.558594-10.832031-1.609375-16zm0 0" fill="#ccd1d9"/><path d="m272 24.351562c-2.648438-.222656-5.3125-.351562-8-.351562h-32c-2.6875 0-5.351562.128906-8 .351562v23.648438h48zm0 0" fill="#37bc9b"/><path d="m153.609375 104h188.78125c-7.414063-36.511719-39.6875-64-78.390625-64h-32c-38.703125 0-70.976562 27.488281-78.390625 64zm0 0" fill="#48cfad"/><path d="m208 104c0-40 40-64 40-64s40 24 40 64zm0 0" fill="#5cd6b3"/><path d="m24.207031 136h95.585938c-1.089844-29.136719-19.960938-54.71875-47.792969-64-27.832031 9.28125-46.710938 34.863281-47.792969 64zm0 0" fill="#48cfad"/><path d="m120 216-48-48-48 48zm0 0" fill="#48cfad"/><path d="m56 248h32v64h-32zm0 0" fill="#aab2bd"/><path d="m376.207031 136h95.585938c-1.089844-29.136719-19.960938-54.71875-47.792969-64-27.832031 9.28125-46.710938 34.863281-47.792969 64zm0 0" fill="#48cfad"/><path d="m376 216 48-48 48 48zm0 0" fill="#48cfad"/><path d="m440 312h-32v-64h32zm0 0" fill="#aab2bd"/><path d="m40 360h32v16h-32zm0 0" fill="#ccd1d9"/><path d="m136 360h32v16h-32zm0 0" fill="#ccd1d9"/><path d="m232 360h32v16h-32zm0 0" fill="#ccd1d9"/><path d="m328 360h32v16h-32zm0 0" fill="#ccd1d9"/><path d="m424 360h32v16h-32zm0 0" fill="#ccd1d9"/><path d="m72 360h16v64h-16zm0 0" fill="#969faa"/><path d="m408 360h16v64h-16zm0 0" fill="#969faa"/><path d="m72 424h16v64h-16zm0 0" fill="#aab2bd"/><path d="m120 200h16v80h-16zm0 0" fill="#aab2bd"/><path d="m168 200h16v80h-16zm0 0" fill="#aab2bd"/><path d="m312 200h16v80h-16zm0 0" fill="#aab2bd"/><path d="m360 200h16v80h-16zm0 0" fill="#aab2bd"/><path d="m56 296h32v16h-32zm0 0" fill="#969faa"/><path d="m408 296h32v16h-32zm0 0" fill="#969faa"/><path d="m24 216h96v16h-96zm0 0" fill="#ccd1d9"/><path d="m376 216h96v16h-96zm0 0" fill="#ccd1d9"/><path d="m376 136h96v16h-96zm0 0" fill="#ccd1d9"/><path d="m24 136h96v16h-96zm0 0" fill="#ccd1d9"/><path d="m496 350.464844-16-40v-171.863282c0-31.753906-19.0625-60.035156-48-72.121093v-18.480469h-16v18.480469c-28.9375 12.085937-48 40.367187-48 72.121093v21.398438h-16v-40c0-43.054688-31.105469-78.921875-72-86.472656v-33.527344h-64v33.527344c-40.894531 7.550781-72 43.417968-72 86.472656v40h-16v-21.398438c0-31.753906-19.0625-60.035156-48-72.121093v-18.480469h-16v18.480469c-28.9375 12.085937-48 40.367187-48 72.121093v171.863282l-16 40v17.535156h32v128h432v-128h32zm-64-46.464844h-16v-48h16zm-32-64v64.449219l-16-26.671875v-53.777344h80v80h-16v-64zm-272 128v48h-48v-48zm-48-64h-16v-48h16zm16 0v-64h-48v64h-16v-80h80v53.785156l-16 26.671875zm16-160v52.6875l-40-40-40 40v-52.6875zm352 0v52.6875l-40-40-40 40v-52.6875zm-11.3125 64h-57.375l28.6875-28.6875zm-84.6875 64h-48v-64h48zm-64 0h-14.273438l-33.726562-27.777344v-36.222656h48zm32.535156 80-88.535156-72.910156-88.535156 72.910156h-25.167969l113.703125-93.640625 113.703125 93.640625zm-16.535156 64h-48v-48h48zm-96 0h-48v-48h48zm-39.359375-64 63.359375-52.183594 63.367188 52.183594zm55.359375-107.777344-33.726562 27.777344h-14.273438v-64h48zm-64 27.777344h-48v-64h48zm-75.3125-64h-57.375l28.6875-28.6875zm23.839844 80h62.3125l-67.40625 55.511719-14.105469-23.511719zm-44.527344 144h48v48h-48zm64-64h16v112h-16zm32 64h48v48h-48zm64-64h16v112h-16zm32 64h48v48h-48zm64-64h16v112h-16zm32 64h48v48h-48zm48-16h-48v-48h48zm-106.847656-128h62.3125l19.199218 32-14.113281 23.511719zm114.847656-207.503906c20.695312 7.894531 35.335938 26.070312 39.023438 47.503906h-78.046876c3.6875-21.433594 18.328126-39.617188 39.023438-47.503906zm-104 79.503906v-16h-16v16h-16v-48h16v16h16v-16h15.527344c.296875 2.632812.472656 5.296875.472656 8v40zm-112-48v48h-16v-48zm40.015625-62.296875c8.519531 6.265625 27.578125 22.710937 31.289063 46.296875h-62.601563c3.738281-23.472656 22.800781-40 31.3125-46.296875zm-24.015625 62.296875h16v48h-16zm32 0h16v48h-16zm75.800781-16h-36.273437c-2.449219-20.777344-14.0625-36.921875-24.671875-47.65625 28.273437 2.6875 51.761719 21.808594 60.945312 47.65625zm-99.800781-80h32v16h-32zm-6.855469 32.34375c-10.609375 10.726562-22.222656 26.871094-24.671875 47.65625h-36.273437c9.183593-25.847656 32.671875-44.96875 60.945312-47.65625zm-65.144531 71.65625c0-2.703125.175781-5.367188.472656-8h15.527344v48h-16zm208 56v16h-240v-16zm-296-95.503906c20.695312 7.894531 35.335938 26.070312 39.023438 47.503906h-78.046876c3.6875-21.433594 18.328126-39.617188 39.023438-47.503906zm-42.585938 239.503906h57.257813l19.199219 32h-89.253906zm18.585938 48h16v112h-16zm400 112h-16v-112h16zm-57.871094-128 19.199219-32h57.257813l12.796874 32zm0 0"/><path d="m96 384h16v16h-16zm0 0"/><path d="m192 384h16v16h-16zm0 0"/><path d="m288 384h16v16h-16zm0 0"/><path d="m384 384h16v16h-16zm0 0"/></svg>