<svg id="Capa_1" enable-background="new 0 0 512 512" height="512" viewBox="0 0 512 512" width="512" xmlns="http://www.w3.org/2000/svg"><g><g><path d="m225.023 137.546c.207.017.412.025.616.025 3.866 0 7.148-2.971 7.468-6.892l1.298-15.948c.336-4.128-2.738-7.748-6.867-8.083-4.132-.337-7.748 2.738-8.084 6.867l-1.298 15.948c-.336 4.128 2.739 7.747 6.867 8.083z"/><path d="m253.928 139.898c.207.017.412.025.617.025 3.865 0 7.147-2.971 7.467-6.892l1.298-15.947c.336-4.128-2.738-7.748-6.867-8.083-4.119-.341-7.747 2.737-8.084 6.867l-1.298 15.947c-.336 4.127 2.738 7.747 6.867 8.083z"/><path d="m282.832 142.25c.207.017.412.025.617.025 3.865 0 7.147-2.971 7.467-6.892l1.298-15.947c.336-4.128-2.738-7.748-6.867-8.083-4.104-.338-7.748 2.737-8.084 6.867l-1.298 15.947c-.336 4.128 2.738 7.747 6.867 8.083z"/><path d="m311.736 144.602c.207.017.412.025.617.025 3.865 0 7.147-2.971 7.467-6.892l1.298-15.947c.336-4.128-2.738-7.748-6.867-8.083-4.109-.345-7.748 2.737-8.084 6.867l-1.298 15.947c-.336 4.128 2.738 7.747 6.867 8.083z"/><path d="m340.642 146.954c.207.017.413.025.616.025 3.867 0 7.148-2.971 7.468-6.893l1.297-15.947c.336-4.128-2.739-7.748-6.867-8.083-4.135-.335-7.747 2.74-8.084 6.867l-1.297 15.947c-.336 4.129 2.739 7.748 6.867 8.084z"/><path d="m219.833 201.335c.207.017.413.025.616.025 3.867 0 7.148-2.971 7.468-6.893l1.297-15.947c.336-4.128-2.739-7.748-6.867-8.083-4.145-.335-7.748 2.74-8.084 6.867l-1.297 15.947c-.336 4.129 2.739 7.749 6.867 8.084z"/><path d="m248.737 203.687c.207.017.412.025.617.025 3.865 0 7.147-2.971 7.467-6.892l1.298-15.947c.336-4.128-2.738-7.748-6.867-8.083-4.104-.343-7.748 2.737-8.084 6.867l-1.298 15.947c-.336 4.128 2.738 7.747 6.867 8.083z"/><path d="m277.642 206.039c.207.017.412.025.617.025 3.865 0 7.147-2.971 7.467-6.892l1.298-15.947c.336-4.128-2.738-7.748-6.867-8.083-4.108-.34-7.748 2.737-8.084 6.867l-1.298 15.947c-.336 4.128 2.738 7.747 6.867 8.083z"/><path d="m306.546 208.391c.207.017.412.025.617.025 3.865 0 7.147-2.971 7.467-6.892l1.298-15.947c.336-4.128-2.738-7.748-6.867-8.083-4.113-.337-7.748 2.737-8.084 6.867l-1.298 15.947c-.336 4.128 2.738 7.747 6.867 8.083z"/><path d="m335.45 210.743c.207.017.412.025.617.025 3.865 0 7.147-2.971 7.467-6.892l1.298-15.947c.336-4.128-2.738-7.748-6.867-8.083-4.119-.343-7.747 2.737-8.084 6.867l-1.298 15.947c-.336 4.128 2.738 7.747 6.867 8.083z"/><path d="m217.237 233.23c-4.143-.341-7.748 2.739-8.084 6.867l-1.297 15.947c-.336 4.128 2.739 7.748 6.867 8.083.207.017.413.025.616.025 3.867 0 7.148-2.971 7.468-6.893l1.297-15.947c.336-4.127-2.739-7.746-6.867-8.082z"/><path d="m246.143 235.582c-4.138-.345-7.747 2.738-8.084 6.867l-1.298 15.948c-.336 4.128 2.738 7.748 6.867 8.083.207.017.412.025.616.025 3.866 0 7.148-2.971 7.468-6.892l1.298-15.948c.336-4.128-2.738-7.747-6.867-8.083z"/><path d="m275.047 237.934c-4.116-.343-7.747 2.737-8.084 6.867l-1.298 15.947c-.336 4.128 2.738 7.748 6.867 8.083.207.017.412.025.617.025 3.865 0 7.147-2.971 7.467-6.892l1.298-15.947c.336-4.128-2.738-7.747-6.867-8.083z"/><path d="m303.951 240.286c-4.121-.34-7.748 2.737-8.084 6.867l-1.298 15.947c-.336 4.128 2.738 7.748 6.867 8.083.207.017.412.025.617.025 3.865 0 7.147-2.971 7.467-6.892l1.298-15.947c.336-4.128-2.738-7.747-6.867-8.083z"/><path d="m332.855 242.638c-4.106-.337-7.748 2.737-8.084 6.867l-1.298 15.947c-.336 4.128 2.738 7.748 6.867 8.083.207.017.412.025.617.025 3.865 0 7.147-2.971 7.467-6.892l1.298-15.947c.337-4.128-2.738-7.747-6.867-8.083z"/><path d="m212.047 297.019c-4.109-.341-7.748 2.737-8.084 6.867l-1.298 15.947c-.336 4.128 2.738 7.748 6.867 8.083.207.017.412.025.617.025 3.865 0 7.147-2.971 7.467-6.892l1.298-15.947c.336-4.128-2.738-7.747-6.867-8.083z"/><path d="m240.951 299.371c-4.139-.339-7.747 2.739-8.084 6.867l-1.297 15.947c-.336 4.128 2.739 7.748 6.867 8.083.207.017.413.025.616.025 3.867 0 7.148-2.971 7.468-6.893l1.297-15.947c.336-4.127-2.739-7.746-6.867-8.082z"/><path d="m269.856 301.723c-4.12-.345-7.748 2.737-8.084 6.867l-1.298 15.947c-.336 4.128 2.738 7.748 6.867 8.083.207.017.412.025.617.025 3.865 0 7.147-2.971 7.467-6.892l1.298-15.947c.337-4.128-2.738-7.747-6.867-8.083z"/><path d="m298.761 304.075c-4.105-.341-7.748 2.737-8.084 6.867l-1.298 15.947c-.336 4.128 2.738 7.748 6.867 8.083.207.017.412.025.617.025 3.865 0 7.147-2.971 7.467-6.892l1.298-15.947c.336-4.128-2.738-7.747-6.867-8.083z"/><path d="m327.665 306.427c-4.111-.338-7.748 2.737-8.084 6.867l-1.298 15.947c-.336 4.128 2.738 7.748 6.867 8.083.207.017.412.025.617.025 3.865 0 7.147-2.971 7.467-6.892l1.298-15.947c.336-4.128-2.738-7.747-6.867-8.083z"/><path d="m491.5 471h-75.448c-4.143 0-7.5 3.358-7.5 7.5s3.357 7.5 7.5 7.5h75.448c3.033 0 5.5 2.467 5.5 5.5s-2.467 5.5-5.5 5.5h-471c-3.033 0-5.5-2.467-5.5-5.5s2.467-5.5 5.5-5.5h150.687.012.01 64.187.012.01 40.117.012.01 34.243.011 29.935.012.01 44.19c4.143 0 7.5-3.358 7.5-7.5s-3.357-7.5-7.5-7.5h-36.073l30.031-369.012c.336-4.128-2.738-7.748-6.867-8.083l-15.968-1.3 6.087-72.08c.461-5.683-3.787-10.682-9.47-11.145l-15.739-1.28c-4.14-.34-7.747 2.739-8.084 6.867-.336 4.128 2.739 7.748 6.867 8.083l11.083.902-5.694 67.432-14.437-1.175 2.96-36.379c.336-4.128-2.739-7.748-6.867-8.083-4.105-.342-7.748 2.737-8.084 6.867l-2.96 36.38-15.946-1.298 2.96-36.379c.336-4.128-2.739-7.748-6.867-8.083-4.131-.343-7.748 2.738-8.084 6.867l-2.96 36.38-15.947-1.298 2.961-36.379c.336-4.128-2.738-7.748-6.867-8.083-4.121-.341-7.747 2.738-8.084 6.867l-2.961 36.38-14.391-1.171 5.693-67.432 62.536 5.088c4.099.339 7.747-2.737 8.084-6.867.336-4.128-2.739-7.748-6.867-8.083l-67.166-5.466c-5.689-.458-10.681 3.786-11.144 9.447l-6.088 72.097-16.007-1.303c-4.142-.331-7.747 2.747-8.084 6.867-1.335 16.41-21.423 263.241-22.859 280.89-.336 4.128 2.738 7.748 6.867 8.083 4.118.34 7.747-2.737 8.084-6.867l1.574-19.337 152.499 12.409-8.844 108.677h-15.05l4.838-59.494c.059-.685.087-1.351.087-2.036 0-12.657-9.89-23.373-22.514-24.396-13.47-1.096-25.303 8.966-26.412 22.428l-5.159 63.498h-25.088l5.336-65.494c.059-.685.087-1.351.087-2.036 0-12.657-9.894-23.373-22.523-24.396-13.444-1.088-25.311 8.968-26.402 22.427l-5.659 69.499h-15.05l5.676-69.751c.336-4.128-2.739-7.748-6.867-8.083-4.137-.345-7.747 2.738-8.084 6.867l-5.775 70.967h-143.776c-11.304 0-20.5 9.196-20.5 20.5s9.196 20.5 20.5 20.5h471c11.304 0 20.5-9.196 20.5-20.5s-9.196-20.5-20.5-20.5zm-138.265-250.668-152.499-12.409 3.953-48.569 152.499 12.409zm-153.716 2.54 152.499 12.409-3.953 48.569-152.499-12.409zm162.837-114.625-3.952 48.565-152.499-12.409 3.953-48.569zm-171.959 226.715 3.953-48.57 152.499 12.409-3.953 48.569zm98.337 73.764c.431-5.222 5.044-9.125 10.25-8.7 4.893.396 8.726 4.545 8.726 9.445 0 .256-.011.507-.035.792l-4.94 60.737h-19.061zm-73.749-6.009c.424-5.217 5.009-9.12 10.239-8.691 4.898.397 8.735 4.545 8.735 9.445 0 .256-.011.507-.035.791l-5.438 66.738h-19.061z"/></g></g></svg>