<svg id="Capa_1" enable-background="new 0 0 512 512" height="512" viewBox="0 0 512 512" width="512" xmlns="http://www.w3.org/2000/svg"><path d="m504.5 256c0 98.49-57.31 183.61-140.4 223.81-27.58 13.35-57.99 21.75-90.1 24.05-5.94.42-11.95.64-18 .64-29.74 0-58.261-5.23-84.691-14.81-95.55-34.63-163.809-126.19-163.809-233.69 0-137.24 111.26-248.5 248.5-248.5s248.5 111.26 248.5 248.5z" fill="#eec06b"/><path d="m388.536 45.775c54.151 45.585 88.571 113.859 88.571 190.18 0 98.49-57.31 183.61-140.4 223.81-27.58 13.35-57.99 21.75-90.1 24.05-5.94.42-11.95.64-18 .64-29.74 0-58.26-5.23-84.69-14.81-16.885-6.119-32.912-14.024-47.866-23.473 22.125 18.627 47.539 33.472 75.258 43.518 26.43 9.58 54.951 14.81 84.691 14.81 6.05 0 12.06-.22 18-.64 32.11-2.3 62.52-10.7 90.1-24.05 83.09-40.2 140.4-125.32 140.4-223.81 0-88.511-46.286-166.203-115.964-210.225z" fill="#ebb34c"/><path d="m336.412 379.653-14.012-212.121c0-28.825-23.368-52.193-52.193-52.193h-70.411c-23.272 0-42.137 18.865-42.137 42.137v117.017h56.543c16.718 0 30.623 12.861 31.925 29.528l5.91 75.632z" fill="#f2d1a5"/><path d="m157.659 230.963h15.191c6.341 0 12.129 3.605 14.926 9.295l3.027 6.159c3.118 6.343 9.828 10.103 16.866 9.451l29.258-2.712c4.265-.395 7.947 2.961 7.947 7.245 0 13.915-8.208 26.521-20.935 32.149l-42.452 18.775c-4.838 2.14-10.31 2.358-15.303.609l-4.34-1.52c-11.173-3.912-16.84-16.341-12.468-27.342l5.639-14.187c1.746-4.392 2.642-9.074 2.642-13.8v-24.122z" fill="#e18720"/><path d="m316.011 247.468c-27.791 23.535-41.319-15.364-47.136-42.713 5.049-3.956 8.329-10.407 8.329-17.693 0-12.034-8.972-21.799-20.029-21.799-9.197 0-16.958 6.76-19.295 15.957-13.411-6.551-27.324-22.391-27.023-35.986-14.188 6.676-71.772-33.524-57.585-58.277 14.188-24.761 43.397-13.253 66.348-2.938 22.95 10.307 89.298-30.587 106.406 21.573 38.807 11.684 30.879 107.241-10.015 141.876z" fill="#e18720"/><path d="m326.026 105.592c-8.731-26.62-30.288-29-52.355-26.322 12.562 2.195 23.181 9.082 28.835 25.374.205.592.675 1.049 1.267 1.253 37.727 12.946 29.595 107.221-10.962 141.57-1.307 1.107-2.583 2.075-3.827 2.914 6.988 5.914 15.854 6.548 27.027-2.914 40.894-34.634 48.822-130.191 10.015-141.875z" fill="#d76718"/><path d="m364.1 358.24v121.57c-27.58 13.35-57.99 21.75-90.1 24.05-5.94.42-11.95.64-18 .64-29.74 0-58.261-5.23-84.691-14.81v-33.28c0-40.17 16.281-76.549 42.611-102.869 21.58-21.59 49.93-36.43 81.59-41.06 6.95-1.02 14.05-1.55 21.28-1.55 26.13-.001 47.31 21.179 47.31 47.309z" fill="#e69642"/><path d="m336.707 459.765c-27.58 13.35-57.99 21.75-90.1 24.05-5.94.42-11.95.64-18 .64-19.722 0-38.903-2.313-57.298-6.656v11.891c26.43 9.58 54.951 14.81 84.691 14.81 6.05 0 12.06-.22 18-.64 32.11-2.3 62.52-10.7 90.1-24.05v-35.526c-8.765 5.712-17.909 10.893-27.393 15.481z" fill="#e1761c"/><path d="m305.621 311.351c-75.129 5.703-134.312 68.469-134.312 145.059v2.135c22.184-11.092 41.846-27.301 56.631-47.161.433-.582.514-1.354.217-2.016-3.624-8.094-7.176-16.237-10.79-24.338-.616-1.382.457-2.921 1.966-2.808 9.504.715 19.469 1.563 28.911 2.26.92.068 1.75-.506 2.035-1.383 9.518-29.297 29.64-54.83 55.342-71.748z" fill="#e1761c"/><path d="m364.1 350.9v128.91c-27.58 13.35-57.99 21.75-90.1 24.05v-152.96c0-12.44 5.04-23.7 13.2-31.86 2.5-2.5 5.29-4.7 8.31-6.56 6.85-4.21 14.91-6.63 23.54-6.63 24.88 0 45.05 20.17 45.05 45.05z" fill="#e18720"/><path d="m274 480.302v23.558c32.11-2.3 62.52-10.7 90.1-24.05v-35.526c-8.765 5.712-17.909 10.892-27.393 15.48-19.606 9.491-40.647 16.464-62.707 20.538z" fill="#d76718"/><path d="m437.019 74.982c-48.353-48.353-112.64-74.982-181.019-74.982s-132.666 26.629-181.019 74.982c-48.352 48.352-74.981 112.639-74.981 181.018 0 53.645 16.415 105.004 47.468 148.527 30.348 42.534 72.23 74.397 121.124 92.155.109.042.22.083.332.12 27.883 10.085 57.178 15.198 87.076 15.198 89.036 0 169.397-45.726 215.776-118.193 26.315-41.119 40.224-88.771 40.224-137.807 0-68.379-26.629-132.666-74.981-181.018zm-271.859 180.1v-16.619h7.69c3.508 0 6.648 1.956 8.195 5.104l3.027 6.158c4.46 9.074 14.219 14.546 24.289 13.61l29.012-2.689c-.096 10.841-6.538 20.653-16.467 25.044l-42.452 18.775c-3.107 1.374-6.584 1.512-9.791.39-2.38-1.182-8.89-1.618-12.058-8.565-5.075-11.131 8.555-21.108 8.555-41.208zm82.393-5.602c-3.063-2.792-7.188-4.175-11.318-3.792l-29.258 2.712c-3.921.362-7.708-1.764-9.442-5.292l-3.027-6.158c-4.089-8.319-12.388-13.487-21.657-13.487h-7.69v-65.983c0-7.28 2.212-14.185 6.323-19.979 10.468 7.975 22.889 14.7 32.872 15.781 3.704 14.414 17.079 28.251 30.232 34.677 2.028.992 4.395 1.015 6.444.066 2.048-.949 3.561-2.77 4.117-4.958 1.542-6.067 6.487-10.304 12.026-10.304 6.909 0 12.53 6.414 12.53 14.298 0 4.706-2.039 9.113-5.455 11.789-2.254 1.767-3.306 4.663-2.71 7.464 6.709 31.543 17.152 49.942 31.039 54.688 2.434.832 4.905 1.247 7.408 1.247 6.664 0 13.553-2.944 20.568-8.803l2.978 45.093c-1.478-.125-2.973-.19-4.482-.19-9.197 0-18.187 2.392-26.108 6.934-13.274 2.073-26.112 5.865-38.306 11.303l-1.029-13.154c-.588-7.486-3.268-14.571-7.679-20.496 4.129-6.632 6.447-14.403 6.447-22.537-.001-4.146-1.758-8.126-4.823-10.919zm3.88 85.39c.088-.045.176-.092.262-.141 6.862-3.687 13.985-6.764 21.319-9.216-1.466 2.65-2.696 5.418-3.678 8.278-10.883 13.014-19.203 27.412-24.782 42.888-3.737-.287-20.276-1.606-24.673-1.939-3.32-.238-6.56 1.297-8.468 4.022-1.909 2.727-2.248 6.306-.893 9.32 1.591 3.57 7.89 17.84 9.462 21.368-11.118 14.255-25.015 26.563-40.757 36.147 2.524-32.789 16.502-63.266 40.001-86.756 9.519-9.529 20.351-17.591 32.207-23.971zm-8.281 45.897c-.004.013-.008.024-.012.037.004-.012.008-.025.012-.037zm-64.342 103.603v-21.268c21.733-11.626 40.731-27.886 55.155-47.255 2.028-2.734 2.435-6.373 1.04-9.544-2.021-4.509-6.7-15.109-7.044-15.888 1.358.108 14.615 1.165 19.716 1.543 4.39.343 8.394-2.362 9.736-6.539 2.364-7.269 5.401-14.294 9.088-21.034v43.329c0 4.142 3.358 7.5 7.5 7.5s7.5-3.358 7.5-7.5v-56.814c0-20.97 17.033-37.55 37.55-37.55 20.705 0 37.55 16.845 37.55 37.55v124.157c-23.918 10.987-48.89 17.853-75.1 20.612v-52.954c0-4.142-3.358-7.5-7.5-7.5s-7.5 3.358-7.5 7.5v54.058c-3.517.15-7.029.227-10.5.227-26.449 0-52.389-4.247-77.191-12.63zm280.332-98.649c-21.937 34.277-52.038 62.358-87.542 81.791v-116.612c0-21.991-13.579-40.871-32.793-48.695l-4.234-64.109c20.518-28.697 28.273-72.342 22.08-102.108-3.781-18.172-12.501-30.863-24.755-36.215-12.413-31.45-42.452-29.312-52.555-28.592-4.132.294-7.243 3.882-6.949 8.013s3.874 7.249 8.014 6.949c21.758-1.547 32.908 4.764 38.492 21.787.764 2.329 2.618 4.138 4.964 4.844 11.731 3.532 16.377 17.975 18.104 26.27 5.519 26.524-1.922 67.091-20.779 91.988-.164.193-.318.395-.462.604-2.921 3.779-6.11 7.185-9.561 10.108-5.448 4.614-10.07 6.316-13.736 5.065-7.609-2.601-15.102-17.269-20.311-39.549 4.813-5.399 7.586-12.647 7.586-20.198 0-16.155-12.35-29.298-27.53-29.298-9.21 0-17.603 4.897-22.639 12.625-9.2-6.879-16.347-17.444-16.181-24.989.058-2.596-1.232-5.038-3.41-6.453-2.155-1.401-4.873-1.6-7.206-.534-1.518.408-7.721-.598-17.571-6.345-9.34-5.45-18.43-13.139-24.314-20.569-3.9-4.925-9.876-14.179-6.074-20.814 4.868-8.497 11.868-11.854 22.71-10.881 10.902.978 23.295 6.219 34.057 11.057 7.648 3.435 17.354 2.77 29.571.715 4.085-.687 6.84-4.555 6.153-8.639-.687-4.085-4.553-6.84-8.639-6.153-7.392 1.242-16.451 2.409-20.938.395-11.872-5.336-25.646-11.128-38.864-12.314-16.754-1.506-29.223 4.676-37.064 18.363-6.832 11.919-2.818 26.914 11.302 42.22.659.714 1.349 1.435 2.067 2.159-6.476 8.551-9.974 18.915-9.974 29.874v97.602c0 8.781-3.365 13.095-7.751 25.219-5.93 14.919 1.687 31.843 16.958 37.191 3.011.89 7.077 3.118 13.708 3.118 10.085 0 13.031-3.871 53.899-21.202 3.076-1.36 5.934-3.058 8.54-5.038 1.771 3.106 2.853 6.593 3.139 10.234l1.515 19.377c-11.523 6.67-22.12 14.814-31.55 24.254-28.895 28.883-44.808 67.301-44.808 108.174v22.329c-41.784-17.275-77.625-45.777-104.131-82.925-29.23-40.964-44.68-89.312-44.68-139.814 0-64.372 25.069-124.892 70.588-170.412s106.04-70.588 170.412-70.588 124.892 25.069 170.412 70.588 70.588 106.04 70.588 170.412c0 46.165-13.091 91.021-37.858 129.721z"/></svg>