<svg height="512" viewBox="0 0 60 60" width="512" xmlns="http://www.w3.org/2000/svg"><g id="Page-1" fill="none" fill-rule="evenodd"><g id="015---Notre-Dame" fill-rule="nonzero"><path id="Shape" d="m21 6v18h-20v-18c0-.55228475.44771525-1 1-1h18c.5522847 0 1 .44771525 1 1z" fill="#ffeb3a"/><path id="Shape" d="m20 5h-3c.5522847 0 1 .44771525 1 1v18h3v-18c0-.55228475-.4477153-1-1-1z" fill="#fdd834"/><path id="Shape" d="m21 43v16h-19c-.55228475 0-1-.4477153-1-1v-15z" fill="#ff9801"/><path id="Rectangle-path" d="m18 43h3v16h-3z" fill="#f57c00"/><path id="Rectangle-path" d="m1 24h20v19h-20z" fill="#ffdc00"/><path id="Rectangle-path" d="m18 24h3v19h-3z" fill="#fec108"/><path id="Rectangle-path" d="m21 43h18v16h-18z" fill="#ff9801"/><path id="Rectangle-path" d="m36 43h3v16h-3z" fill="#f57c00"/><path id="Rectangle-path" d="m21 24h18v19h-18z" fill="#ff9801"/><path id="Rectangle-path" d="m36 24h3v19h-3z" fill="#f57c00"/><path id="Shape" d="m59 6v18h-20v-18c0-.55228475.4477153-1 1-1h18c.5522847 0 1 .44771525 1 1z" fill="#ffeb3a"/><path id="Shape" d="m58 5h-3c.5522847 0 1 .44771525 1 1v18h3v-18c0-.55228475-.4477153-1-1-1z" fill="#fdd834"/><path id="Shape" d="m59 43v15c0 .5522847-.4477153 1-1 1h-19v-16z" fill="#ff9801"/><path id="Shape" d="m56 43v15c0 .5522847-.4477153 1-1 1h3c.5522847 0 1-.4477153 1-1v-15z" fill="#f57c00"/><path id="Rectangle-path" d="m39 24h20v19h-20z" fill="#ffdc00"/><path id="Rectangle-path" d="m56 24h3v19h-3z" fill="#fec108"/><path id="Shape" d="m30 47c2.7614237 0 5 2.2385763 5 5v7h-10v-7c0-2.7614237 2.2385763-5 5-5z" fill="#ff5722"/><path id="Shape" d="m30 47c-.5100781.007121-1.0160138.0927928-1.5.254 2.0776147.648336 3.4944634 2.5695828 3.5 4.746v7h3v-7c0-2.7614237-2.2385763-5-5-5z" fill="#d84315"/><path id="Shape" d="m11 47c2.7614237 0 5 2.2385763 5 5v7h-10v-7c0-2.7614237 2.23857625-5 5-5z" fill="#ff5722"/><path id="Shape" d="m11 47c-.5100781.007121-1.01601378.0927928-1.5.254 2.0776147.648336 3.4944634 2.5695828 3.5 4.746v7h3v-7c0-2.7614237-2.2385763-5-5-5z" fill="#d84315"/><path id="Shape" d="m49 47c2.7614237 0 5 2.2385763 5 5v7h-10v-7c0-2.7614237 2.2385763-5 5-5z" fill="#ff5722"/><path id="Shape" d="m49 47c-.5100781.007121-1.0160138.0927928-1.5.254 2.0776147.648336 3.4944634 2.5695828 3.5 4.746v7h3v-7c0-2.7614237-2.2385763-5-5-5z" fill="#d84315"/><circle id="Oval" cx="30" cy="33" fill="#02a9f4" r="5"/><path id="Rectangle-path" d="m1 38h58v5h-58z" fill="#ffeb3a"/><path id="Rectangle-path" d="m56 38h3v5h-3z" fill="#fdd834"/><path id="Rectangle-path" d="m21 19h18v5h-18z" fill="#ffdc00"/><path id="Rectangle-path" d="m36 19h3v5h-3z" fill="#fec108"/><g fill="#02a9f4"><path id="Shape" d="m15 30c1.1045695 0 2 .8954305 2 2v6h-4v-6c0-1.1045695.8954305-2 2-2z"/><path id="Shape" d="m7 30c1.1045695 0 2 .8954305 2 2v6h-4v-6c0-1.1045695.8954305-2 2-2z"/><path id="Shape" d="m15 9c1.1045695 0 2 .8954305 2 2v13h-4v-13c0-1.1045695.8954305-2 2-2z"/><path id="Shape" d="m7 9c1.1045695 0 2 .8954305 2 2v13h-4v-13c0-1.1045695.8954305-2 2-2z"/><path id="Shape" d="m53 30c1.1045695 0 2 .8954305 2 2v6h-4v-6c0-1.1045695.8954305-2 2-2z"/><path id="Shape" d="m45 30c1.1045695 0 2 .8954305 2 2v6h-4v-6c0-1.1045695.8954305-2 2-2z"/><path id="Shape" d="m53 9c1.1045695 0 2 .8954305 2 2v13h-4v-13c0-1.1045695.8954305-2 2-2z"/><path id="Shape" d="m45 9c1.1045695 0 2 .8954305 2 2v13h-4v-13c0-1.1045695.8954305-2 2-2z"/></g><path id="Shape" d="m58 4h-1v-3c0-.55228475-.4477153-1-1-1s-1 .44771525-1 1v3h-15c-1.1045695 0-2 .8954305-2 2v12h-16v-12c0-1.1045695-.8954305-2-2-2h-15v-3c0-.55228475-.44771525-1-1-1s-1 .44771525-1 1v3h-1c-1.1045695 0-2 .8954305-2 2v52c0 1.1045695.8954305 2 2 2h56c1.1045695 0 2-.8954305 2-2v-52c0-1.1045695-.8954305-2-2-2zm-8 38v-3h3v3zm-5 0v-3h3v3zm-5 0v-3h3v3zm-12 0v-3h4v3zm-6 0v-3h4v3zm-10 0v-3h3v3zm-5 0v-3h3v3zm-5 0v-3h3v3zm6-19h-2v-12c0-.5522847.44771525-1 1-1s1 .4477153 1 1zm-3 2h15v12h-2v-5c0-1.6568542-1.3431458-3-3-3s-3 1.3431458-3 3v5h-2v-5c-.00000002-1.6568542-1.34314577-3-3-3s-2.99999998 1.3431458-3 3v5h-2v-12zm11-2h-2v-12c0-.5522847.4477153-1 1-1s1 .4477153 1 1zm12 0v-3h4v3zm10 2v12h-3.54c2.1618013-2.4022845 2.0324985-6.0851977-.2924552-8.3299574-2.3249536-2.2447596-6.010136-2.2447596-8.3350896 0-2.3249537 2.2447597-2.4542565 5.9276729-.2924552 8.3299574h-3.54v-12zm8-2h-2v-12c0-.5522847.4477153-1 1-1s1 .4477153 1 1zm-3 2h15v12h-2v-5c0-1.6568542-1.3431458-3-3-3s-3 1.3431458-3 3v5h-2v-5c0-1.6568542-1.3431458-3-3-3s-3 1.3431458-3 3v5h-2v-12zm11-2h-2v-12c0-.5522847.4477153-1 1-1s1 .4477153 1 1zm-10 14v-5c0-.5522847.4477153-1 1-1s1 .4477153 1 1v5zm10 0h-2v-5c0-.5522847.4477153-1 1-1s1 .4477153 1 1zm-27-5h-.858c.3658904-1.3993145 1.4586855-2.4921096 2.858-2.858v.858c0 .5522847.4477153 1 1 1s1-.4477153 1-1v-.858c1.3993145.3658904 2.4921096 1.4586855 2.858 2.858h-.858c-.5522847 0-1 .4477153-1 1s.4477153 1 1 1h.858c-.3658904 1.3993145-1.4586855 2.4921096-2.858 2.858v-.858c0-.5522847-.4477153-1-1-1s-1 .4477153-1 1v.858c-1.3993145-.3658904-2.4921096-1.4586855-2.858-2.858h.858c.5522847 0 1-.4477153 1-1s-.4477153-1-1-1zm-21 5v-5c0-.5522847.44771525-1 1-1s1 .4477153 1 1v5zm10 0h-2v-5c0-.5522847.4477153-1 1-1s1 .4477153 1 1zm1 2h3v3h-3zm17 0h4v3h-4zm21 0h3v3h-3zm-15-33h18v17h-2v-12c0-1.65685425-1.3431458-3-3-3s-3 1.34314575-3 3v12h-2v-12c0-1.65685425-1.3431458-3-3-3s-3 1.34314575-3 3v12h-2zm-2 17h-4v-3h4zm-12-3v3h-4v-3zm-6-14v17h-2v-12c0-1.65685425-1.3431458-3-3-3s-3 1.34314575-3 3v12h-2v-12c-.00000002-1.65685423-1.34314577-2.99999996-3-2.99999996s-2.99999998 1.34314573-3 2.99999996v12h-2v-17zm-18 38h18v14h-3v-6c0-3.3137085-2.6862915-5.9999999-6-5.9999999-3.31370846 0-5.99999995 2.6862914-6 5.9999999v6h-3zm5 14v-6c0-2.209139 1.790861-4 4-4s4 1.790861 4 4v6zm15-14h16v14h-2v-6c0-3.3137085-2.6862915-6-6-6s-6 2.6862915-6 6v6h-2zm4 14v-6c0-2.209139 1.790861-4 4-4s4 1.790861 4 4v6zm19 0v-6c0-2.209139 1.790861-4 4-4s4 1.790861 4 4v6zm10 0v-6c0-3.3137085-2.6862915-6-6-6s-6 2.6862915-6 6v6h-3v-14h18v14z" fill="#000"/></g></g></svg>