<svg height="512pt" viewBox="0 0 512.00001 512" width="512pt" xmlns="http://www.w3.org/2000/svg"><path d="m42.667969 238.929688h426.664062v238.933593h-426.664062zm0 0" fill="#3a5565"/><path d="m42.667969 273.0625h51.199219v170.667969h-51.199219zm0 0" fill="#cde2dd"/><path d="m153.601562 273.0625h51.199219v170.667969h-51.199219zm0 0" fill="#cde2dd"/><path d="m307.199219 273.0625h51.199219v170.667969h-51.199219zm0 0" fill="#cde2dd"/><path d="m418.132812 273.0625h51.199219v170.667969h-51.199219zm0 0" fill="#cde2dd"/><path d="m34.132812 238.929688h68.265626v42.667968h-68.265626zm0 0" fill="#7c9faf"/><path d="m145.066406 238.929688h68.265625v42.667968h-68.265625zm0 0" fill="#7c9faf"/><path d="m298.667969 238.929688h68.265625v42.667968h-68.265625zm0 0" fill="#7c9faf"/><path d="m409.601562 238.929688h68.265626v42.667968h-68.265626zm0 0" fill="#7c9faf"/><path d="m256 8.53125-221.867188 170.664062v42.667969h443.734376v-42.667969zm0 0" fill="#7c9faf"/><g fill="#ffbf41"><path d="m247.464844 76.796875h17.070312v17.066406h-17.070312zm0 0"/><path d="m247.464844 162.128906h17.070312v17.066406h-17.070312zm0 0"/><path d="m213.753906 97.828125 12.066406-12.070313 12.066407 12.070313-12.066407 12.066406zm0 0"/><path d="m274.101562 158.167969 12.066407-12.070313 12.070312 12.070313-12.070312 12.066406zm0 0"/><path d="m204.800781 119.464844h17.066407v17.066406h-17.066407zm0 0"/><path d="m290.132812 119.464844h17.066407v17.066406h-17.066407zm0 0"/><path d="m213.757812 158.171875 12.066407-12.066406 12.070312 12.066406-12.070312 12.066406zm0 0"/><path d="m274.097656 97.820312 12.066406-12.066406 12.070313 12.066406-12.070313 12.070313zm0 0"/></g><path d="m34.132812 435.195312h68.265626v42.667969h-68.265626zm0 0" fill="#7c9faf"/><path d="m145.066406 435.195312h68.265625v42.667969h-68.265625zm0 0" fill="#7c9faf"/><path d="m298.667969 435.195312h68.265625v42.667969h-68.265625zm0 0" fill="#7c9faf"/><path d="m409.601562 435.195312h68.265626v42.667969h-68.265626zm0 0" fill="#7c9faf"/><path d="m17.066406 469.332031h477.867188v34.132813h-477.867188zm0 0" fill="#cde2dd"/><path d="m8.535156 213.332031h494.929688v34.132813h-494.929688zm0 0" fill="#cde2dd"/><path d="m503.464844 204.796875h-17.066406v-25.601563c0-2.644531-1.230469-5.140624-3.328126-6.757812l-221.863281-170.664062c-3.070312-2.363282-7.34375-2.363282-10.414062 0l-221.863281 170.664062c-2.097657 1.617188-3.328126 4.113281-3.328126 6.757812v25.601563h-17.066406c-4.714844 0-8.535156 3.820313-8.535156 8.535156v34.132813c0 4.710937 3.820312 8.53125 8.535156 8.53125h17.066406v25.601562c0 4.710938 3.820313 8.53125 8.53125 8.53125v136.535156c-4.710937 0-8.53125 3.820313-8.53125 8.53125v25.601563h-8.535156c-4.710937 0-8.53125 3.820313-8.53125 8.535156v34.132813c0 4.710937 3.820313 8.53125 8.53125 8.53125h477.867188c4.710937 0 8.53125-3.820313 8.53125-8.53125v-34.132813c0-4.714843-3.820313-8.535156-8.53125-8.535156h-8.535156v-25.601563c0-4.710937-3.820313-8.53125-8.53125-8.53125v-136.535156c4.710937 0 8.53125-3.820312 8.53125-8.53125v-25.601562h17.066406c4.714844 0 8.535156-3.820313 8.535156-8.53125v-34.132813c0-4.714843-3.820312-8.535156-8.535156-8.535156zm-460.796875-21.402344 213.332031-164.09375 213.332031 164.09375v21.402344h-426.664062zm443.730469 294.46875v17.066407h-460.796876v-17.066407zm-443.730469-204.800781v-17.066406h51.199219v17.066406zm42.664062 17.066406v136.535156h-34.132812v-136.535156zm8.535157 153.601563v17.066406h-51.199219v-17.066406zm51.199218-153.601563v136.535156c-4.714844 0-8.535156 3.820313-8.535156 8.53125v25.601563h-25.597656v-25.601563c0-4.710937-3.820313-8.53125-8.535156-8.53125v-136.535156c4.714843 0 8.535156-3.820312 8.535156-8.53125v-25.601562h25.597656v25.601562c0 4.710938 3.820312 8.53125 8.535156 8.53125zm8.535156-17.066406v-17.066406h51.199219v17.066406zm42.664063 17.066406v136.535156h-34.132813v-136.535156zm8.535156 153.601563v17.066406h-51.199219v-17.066406zm93.867188-153.601563v136.535156c-4.714844 0-8.535157 3.820313-8.535157 8.53125v25.601563h-68.265624v-25.601563c0-4.710937-3.820313-8.53125-8.535157-8.53125v-136.535156c4.714844 0 8.535157-3.820312 8.535157-8.53125v-25.601562h68.265624v25.601562c0 4.710938 3.820313 8.53125 8.535157 8.53125zm8.53125-17.066406v-17.066406h51.199219v17.066406zm42.667969 17.066406v136.535156h-34.132813v-136.535156zm8.53125 153.601563v17.066406h-51.199219v-17.066406zm51.203124-153.601563v136.535156c-4.714843 0-8.535156 3.820313-8.535156 8.53125v25.601563h-25.597656v-25.601563c0-4.710937-3.820312-8.53125-8.535156-8.53125v-136.535156c4.714844 0 8.535156-3.820312 8.535156-8.53125v-25.601562h25.597656v25.601562c0 4.710938 3.820313 8.53125 8.535156 8.53125zm8.53125-17.066406v-17.066406h51.199219v17.066406zm42.667969 17.066406v136.535156h-34.132812v-136.535156zm8.53125 153.601563v17.066406h-51.199219v-17.066406zm25.601563-204.800781h-477.867188v-17.066407h477.867188zm0 0"/><path d="m247.464844 76.796875h17.070312v17.066406h-17.070312zm0 0"/><path d="m247.464844 162.128906h17.070312v17.066406h-17.070312zm0 0"/><path d="m213.753906 97.828125 12.066406-12.070313 12.066407 12.070313-12.066407 12.066406zm0 0"/><path d="m274.101562 158.167969 12.066407-12.070313 12.070312 12.070313-12.070312 12.066406zm0 0"/><path d="m204.800781 119.464844h17.066407v17.066406h-17.066407zm0 0"/><path d="m290.132812 119.464844h17.066407v17.066406h-17.066407zm0 0"/><path d="m213.757812 158.171875 12.066407-12.066406 12.070312 12.066406-12.070312 12.066406zm0 0"/><path d="m274.097656 97.820312 12.066406-12.066406 12.070313 12.066406-12.070313 12.070313zm0 0"/></svg>