<svg id="Layer_1" enable-background="new 0 0 512 512" height="512" viewBox="0 0 512 512" width="512" xmlns="http://www.w3.org/2000/svg"><g><path d="m502.77 290.354-192.8-80.333c-1.828-.762-3.789-1.154-5.77-1.154h-96.4c-1.98 0-3.941.392-5.77 1.154l-192.8 80.333c-5.589 2.329-9.23 7.79-9.23 13.846v19.266h103.579c43.933-32.37 96.83-49.863 152.421-49.863 55.592 0 108.49 17.492 152.423 49.863h103.577v-19.266c0-6.056-3.641-11.517-9.23-13.846z"/><path d="m34.267 214.225c0-8.284 6.716-15 15-15s15 6.716 15 15v20.698l34.267-14.278v-33.202c0-8.284 6.716-15 15-15s15 6.716 15 15v20.702l34.267-14.278v-81.926l-153.72 66.01c-5.51 2.365-9.081 7.786-9.081 13.782v69.967l34.267-14.278z"/><path d="m502.919 177.951-153.719-66.01v81.925l34.267 14.278v-20.702c0-8.284 6.716-15 15-15s15 6.716 15 15v33.202l34.267 14.278v-20.697c0-8.284 6.716-15 15-15s15 6.716 15 15v33.198l34.266 14.277v-69.967c0-5.996-3.571-11.417-9.081-13.782z"/><path d="m192.021 75.681.779-.52v106.283c4.82-1.708 9.854-2.578 15-2.578h15v-35.333c0-18.306 14.894-33.2 33.2-33.2s33.2 14.894 33.2 33.2v35.333h15c5.146 0 10.179.87 15 2.578v-106.282l.779.52c6.891 4.595 16.204 2.732 20.801-4.16 4.596-6.893 2.733-16.206-4.16-20.801l-72.3-48.201c-5.037-3.358-11.604-3.358-16.641 0l-72.3 48.201c-6.894 4.595-8.756 13.908-4.16 20.801 4.597 6.892 13.911 8.754 20.802 4.159z"/><path d="m0 383.467h30.643c8.077 0 15.026 6.207 15.407 14.275.406 8.614-6.458 15.725-14.983 15.725h-31.067v34.267h143.109c8.077 0 15.026 6.207 15.407 14.275.406 8.614-6.458 15.725-14.983 15.725h-143.533v19.266c0 8.284 6.716 15 15 15h482c8.284 0 15-6.716 15-15v-19.267h-30.643c-8.077 0-15.026-6.207-15.407-14.275-.406-8.614 6.458-15.725 14.983-15.725h31.067v-34.267h-143.533c-8.525 0-15.389-7.111-14.983-15.725.38-8.068 7.33-14.275 15.407-14.275h143.109v-30h-512zm223.866 94.266h-15.643c-8.077 0-15.026-6.207-15.407-14.275-.406-8.614 6.458-15.725 14.983-15.725h15.643c8.077 0 15.026 6.207 15.407 14.275.406 8.614-6.458 15.725-14.983 15.725zm64.268-94.266h15.643c8.077 0 15.026 6.207 15.407 14.275.406 8.614-6.458 15.725-14.983 15.725h-15.643c-8.077 0-15.026-6.207-15.407-14.275-.406-8.614 6.458-15.725 14.983-15.725zm0 64.266h128.533c8.525 0 15.389 7.111 14.983 15.725-.38 8.068-7.33 14.275-15.407 14.275h-127.685c-8.077 0-15.027-6.207-15.407-14.275-.406-8.613 6.458-15.725 14.983-15.725zm-192.801-64.266h128.109c8.077 0 15.026 6.207 15.407 14.275.406 8.614-6.458 15.725-14.983 15.725h-128.109c-8.077 0-15.026-6.207-15.407-14.275-.406-8.614 6.458-15.725 14.983-15.725z"/></g></svg>