<svg id="Capa_1" enable-background="new 0 0 512 512" height="512" viewBox="0 0 512 512" width="512" xmlns="http://www.w3.org/2000/svg"><g><path d="m61 345 84.27-15-24.27-48.54v-116.46c0-8.28-6.72-15-15-15h-60c-7.74 0-14.21 5.9-14.94 13.61l-31 332 150.94 1.39v-137z" fill="#e1d3ce"/><path d="m330.23 340.26-23.42-70.26-50.81-14 45-16v-75c0-8.28-6.72-15-15-15h-90c-8.28 0-15 6.72-15 15v332h150v-152c0-1.61-.26-3.21-.77-4.74z" fill="#e1d3ce"/><g fill="#cdbfba"><path d="m301 240-45 16v-106h30c8.28 0 15 6.72 15 15z"/><path d="m331 345v152h-75v-241l50.81 14 23.42 70.26c.51 1.53.77 3.13.77 4.74z"/><path d="m480.94 163.61c-.73-7.71-7.2-13.61-14.94-13.61h-60c-8.28 0-15 6.72-15 15v116.46l-21.71 43.41 80.13 56.84-88.42-27.43v142.72l150.94-1.39z"/></g><g><path d="m512 497c0 8.28-6.72 15-15 15h-482c-8.28 0-15-6.72-15-15s6.72-15 15-15h482c8.28 0 15 6.72 15 15z" fill="#97de3d"/></g><path d="m512 497c0 8.28-6.72 15-15 15h-241v-30h241c8.28 0 15 6.72 15 15z" fill="#5ab267"/><g><g><path d="m500.61 60.44-103.37-25.63-26.57 9.52-3.16-20.35-44.8-22.4c-2.08-1.04-4.38-1.58-6.71-1.58h-180c-3.98 0-7.79 1.58-10.61 4.39l-16.86 16.87 2.47 24.07-28.77-8.29-71.93 23.71c-6.15 2.03-10.3 7.78-10.3 14.25v90c0 8.28 6.72 15 15 15h482c8.28 0 15-6.72 15-15v-90c0-6.89-4.7-12.9-11.39-14.56z" fill="#efe2dd"/></g></g><path d="m512 75v90c0 8.28-6.72 15-15 15h-241v-180h60c2.33 0 4.63.54 6.71 1.58l44.8 22.4 3.16 20.35 26.57-9.52 103.37 25.63c6.69 1.66 11.39 7.67 11.39 14.56z" fill="#e1d3ce"/><g><path d="m211 105c0 8.28-6.72 15-15 15h-30c-4.16 0-8.14-1.73-10.98-4.78l-72.79-78.18 15.69-5.17 10.61-10.61 64 68.74h23.47c8.28 0 15 6.72 15 15z" fill="#e1d3ce"/></g><g><path d="m397.24 34.81-39.51 49.54c-5.182 6.49-14.616 7.533-21.08 2.38-6.48-5.17-7.54-14.61-2.38-21.08l33.24-41.67 13.71 6.86z" fill="#cdbfba"/></g><g><path d="m151 345v15h-75c-8.28 0-15-6.72-15-15s6.72-15 15-15h69.27l4.15 8.29c1.04 2.08 1.58 4.38 1.58 6.71z" fill="#cdbfba"/></g><g><path d="m449.42 381.71c-3.677 7.341-12.625 10.428-20.13 6.71l-68.29-34.14v-9.28c0-2.33.54-4.63 1.58-6.71l6.71-13.42 73.42 36.71c7.41 3.71 10.41 12.72 6.71 20.13z" fill="#b9acac"/></g><g><path d="m306.81 270h-35.81c-8.28 0-15-6.72-15-15s6.72-15 15-15h30v12.57z" fill="#b9acac"/></g></g></svg>