<?xml version="1.0" encoding="iso-8859-1"?>
<!-- Generator: Adobe Illustrator 19.0.0, SVG Export Plug-In . SVG Version: 6.00 Build 0)  -->
<svg version="1.1" id="Capa_1" xmlns="http://www.w3.org/2000/svg" xmlns:xlink="http://www.w3.org/1999/xlink" x="0px" y="0px"
	 viewBox="0 0 512 512" style="enable-background:new 0 0 512 512;" xml:space="preserve">
<rect x="256" y="8" style="fill:#82B1FF;" width="64" height="45"/>
<g>
	<rect x="116" y="164" style="fill:#EDCE83;" width="280" height="340"/>
	<rect x="176" y="104" style="fill:#EDCE83;" width="160" height="60"/>
</g>
<g>
	<path style="fill:#81C784;" d="M41,354L41,354c-16.569,0-30,13.431-30,30v61c0,16.569,13.431,30,30,30l0,0
		c16.569,0,30-13.431,30-30v-61C71,367.431,57.569,354,41,354z"/>
	<path style="fill:#81C784;" d="M471,354L471,354c16.569,0,30,13.431,30,30v61c0,16.569-13.431,30-30,30l0,0
		c-16.569,0-30-13.431-30-30v-61C441,367.431,454.431,354,471,354z"/>
</g>
<g>
	<rect x="116" y="304" style="fill:#EABE5C;" width="280" height="20"/>
	<rect x="116" y="484" style="fill:#EABE5C;" width="280" height="20"/>
</g>
<g>
	<path style="fill:#B0BEC5;" d="M188,234h-30v-25c0-8.284,6.716-15,15-15l0,0c8.284,0,15,6.716,15,15V234z"/>
	<path style="fill:#B0BEC5;" d="M252,274h-30v-25c0-8.284,6.716-15,15-15l0,0c8.284,0,15,6.716,15,15V274z"/>
	<path style="fill:#B0BEC5;" d="M272,374h-30v-25c0-8.284,6.716-15,15-15l0,0c8.284,0,15,6.716,15,15V374z"/>
	<path style="fill:#B0BEC5;" d="M276,504h-40v-40c0-11.046,8.954-20,20-20l0,0c11.046,0,20,8.954,20,20V504z"/>
	<path style="fill:#B0BEC5;" d="M352,274h-30v-25c0-8.284,6.716-15,15-15l0,0c8.284,0,15,6.716,15,15V274z"/>
	<rect x="168" y="402" style="fill:#B0BEC5;" width="30" height="30"/>
	<rect x="328" y="382" style="fill:#B0BEC5;" width="30" height="30"/>
</g>
<g>
	<polygon style="fill:#90A4AE;" points="168,402 168,417 183,417 183,432 198,432 198,402 	"/>
	<polygon style="fill:#90A4AE;" points="328,382 328,397 343,397 343,412 358,412 358,382 	"/>
	<path style="fill:#90A4AE;" d="M173,194c-8.284,0-15,6.716-15,15v20c0-8.284,6.716-15,15-15s15,6.716,15,15v-20
		C188,200.716,181.284,194,173,194z"/>
	<path style="fill:#90A4AE;" d="M237,234c-8.284,0-15,6.716-15,15v20c0-8.284,6.716-15,15-15s15,6.716,15,15v-20
		C252,240.716,245.284,234,237,234z"/>
	<path style="fill:#90A4AE;" d="M257,334c-8.284,0-15,6.716-15,15v20c0-8.284,6.716-15,15-15s15,6.716,15,15v-20
		C272,340.716,265.284,334,257,334z"/>
	<path style="fill:#90A4AE;" d="M337,234c-8.284,0-15,6.716-15,15v20c0-8.284,6.716-15,15-15s15,6.716,15,15v-20
		C352,240.716,345.284,234,337,234z"/>
	<path style="fill:#90A4AE;" d="M256,444c-11.046,0-20,8.954-20,20v20c0-11.046,8.954-20,20-20c11.046,0,20,8.954,20,20v-20
		C276,452.954,267.046,444,256,444z"/>
</g>
<rect x="176" y="144" style="fill:#EABE5C;" width="160" height="20"/>
<rect x="256" y="33" style="fill:#448AFF;" width="64" height="20"/>
<g>
	<path style="fill:#4CAF50;" d="M41,455c-16.569,0-30-13.431-30-30v20c0,16.569,13.431,30,30,30s30-13.431,30-30v-20
		C71,441.569,57.569,455,41,455z"/>
	<path style="fill:#4CAF50;" d="M471,455c-16.569,0-30-13.431-30-30v20c0,16.569,13.431,30,30,30s30-13.431,30-30v-20
		C501,441.569,487.569,455,471,455z"/>
</g>
<path d="M478.5,496.5v-14.755c17.096-3.484,30-18.635,30-36.745v-61c0-20.678-16.822-37.5-37.5-37.5s-37.5,16.822-37.5,37.5v61
	c0,18.11,12.904,33.261,30,36.745V496.5h-60V139h-15v17.5h-15V139h-15v17.5h-15V79h-15v17.5h-25V79h-15v17.5h-25v-36h64v-60h-79v96
	h-25V79h-15v17.5h-25V79h-15v77.5h-15V139h-15v17.5h-15V139h-15v357.5h-60v-14.755c17.096-3.484,30-18.635,30-36.745v-61
	c0-20.678-16.822-37.5-37.5-37.5S3.5,363.322,3.5,384v61c0,18.11,12.904,33.261,30,36.745V496.5H0v15h512v-15H478.5z M263.5,15.5h49
	v30h-49V15.5z M18.5,445v-61c0-12.406,10.093-22.5,22.5-22.5s22.5,10.094,22.5,22.5v61c0,12.406-10.093,22.5-22.5,22.5
	S18.5,457.406,18.5,445z M183.5,111.5h145v45h-25V139h-15v17.5h-25V139h-15v17.5h-25V139h-15v17.5h-25V111.5z M268.5,496.5h-25V464
	c0-6.893,5.607-12.5,12.5-12.5s12.5,5.607,12.5,12.5V496.5z M388.5,496.5h-105V464c0-15.163-12.336-27.5-27.5-27.5
	s-27.5,12.337-27.5,27.5v32.5h-105v-185h265V496.5z M388.5,296.5h-265v-125l0,0h265l0,0V296.5z M448.5,445v-61
	c0-12.406,10.093-22.5,22.5-22.5s22.5,10.094,22.5,22.5v61c0,12.406-10.093,22.5-22.5,22.5S448.5,457.406,448.5,445z"/>
<path d="M173,186.5c-12.407,0-22.5,10.094-22.5,22.5v32.5h45V209C195.5,196.594,185.407,186.5,173,186.5z M180.5,226.5h-15V209
	c0-4.136,3.364-7.5,7.5-7.5s7.5,3.364,7.5,7.5V226.5z"/>
<path d="M237,226.5c-12.407,0-22.5,10.094-22.5,22.5v32.5h45V249C259.5,236.594,249.407,226.5,237,226.5z M244.5,266.5h-15V249
	c0-4.136,3.364-7.5,7.5-7.5s7.5,3.364,7.5,7.5V266.5z"/>
<path d="M279.5,349c0-12.406-10.093-22.5-22.5-22.5s-22.5,10.094-22.5,22.5v32.5h45V349z M264.5,366.5h-15V349
	c0-4.136,3.364-7.5,7.5-7.5c4.136,0,7.5,3.364,7.5,7.5V366.5z"/>
<path d="M314.5,249v32.5h45V249c0-12.406-10.093-22.5-22.5-22.5S314.5,236.594,314.5,249z M344.5,249v17.5h-15V249
	c0-4.136,3.364-7.5,7.5-7.5S344.5,244.864,344.5,249z"/>
<path d="M205.5,394.5h-45v45h45V394.5z M190.5,424.5h-15v-15h15V424.5z"/>
<path d="M365.5,374.5h-45v45h45V374.5z M350.5,404.5h-15v-15h15V404.5z"/>
<g>
	<path style="fill:#FFFFFF;" d="M197,281.5h-30v-15h30V281.5z M152,281.5h-15v-15h15V281.5z"/>
	<path style="fill:#FFFFFF;" d="M207,341.5h-30v-15h30V341.5z M162,341.5h-15v-15h15V341.5z"/>
	<path style="fill:#FFFFFF;" d="M375,341.5h-40v-15h40V341.5z M320,341.5h-15v-15h15V341.5z"/>
	<path style="fill:#FFFFFF;" d="M366,201.5h-50v-15h50V201.5z M301,201.5h-15v-15h15V201.5z M271,201.5h-15v-15h15V201.5z"/>
	<path style="fill:#FFFFFF;" d="M47.5,445h-15v-15h15V445z M47.5,415h-15v-31h15V415z"/>
	<path style="fill:#FFFFFF;" d="M478.5,445h-15v-15h15V445z M478.5,415h-15v-31h15V415z"/>
	<rect x="277" y="266.5" style="fill:#FFFFFF;" width="20" height="15"/>
	<path style="fill:#FFFFFF;" d="M373.5,481.5H336v-15h22.5V444h15V481.5z M321,481.5h-15v-15h15V481.5z"/>
	<path style="fill:#FFFFFF;" d="M210,481.5h-40v-15h40V481.5z M155,481.5h-15v-15h15V481.5z"/>
	<rect x="227" y="400.5" style="fill:#FFFFFF;" width="22" height="15"/>
	<rect x="279" y="414.5" style="fill:#FFFFFF;" width="23" height="15"/>
	<rect x="156" y="361.5" style="fill:#FFFFFF;" width="28" height="15"/>
	<rect x="213" y="199.5" style="fill:#FFFFFF;" width="19" height="15"/>
	<rect x="278" y="225.5" style="fill:#FFFFFF;" width="17" height="15"/>
</g>
<g>
</g>
<g>
</g>
<g>
</g>
<g>
</g>
<g>
</g>
<g>
</g>
<g>
</g>
<g>
</g>
<g>
</g>
<g>
</g>
<g>
</g>
<g>
</g>
<g>
</g>
<g>
</g>
<g>
</g>
</svg>
