<?xml version="1.0" encoding="iso-8859-1"?>
<!-- Generator: Adobe Illustrator 19.0.0, SVG Export Plug-In . SVG Version: 6.00 Build 0)  -->
<svg version="1.1" id="Capa_1" xmlns="http://www.w3.org/2000/svg" xmlns:xlink="http://www.w3.org/1999/xlink" x="0px" y="0px"
	 viewBox="0 0 512 512" style="enable-background:new 0 0 512 512;" xml:space="preserve">
<path style="fill:#E5A18C;" d="M275.684,158.141c21.91,8.02,37.543,29.057,37.543,53.745v292.51h90.629V87.566H108.143v416.83
	h90.639v-292.51c0-24.688,15.634-45.725,37.543-53.745"/>
<rect x="108.139" y="87.567" style="fill:#CE8D7C;" width="295.714" height="33.859"/>
<rect x="256.001" y="15.145" style="fill:#E03232;" width="50.886" height="38.018"/>
<path style="fill:#474D51;" d="M256.005,172.537L256.005,172.537L256.005,172.537c-16.668-5.729-27.859-21.411-27.859-39.036l0,0
	c0-14.983,12.146-27.13,27.13-27.13h1.459c14.983,0,27.13,12.146,27.13,27.13l0,0C283.864,151.128,272.673,166.808,256.005,172.537z
	"/>
<path d="M213.14,163.254c-13.957,12.308-21.961,30.035-21.961,48.632v207.617c0,4.199,3.404,7.604,7.604,7.604
	s7.604-3.405,7.604-7.604V211.886c0-14.235,6.128-27.803,16.813-37.226c3.149-2.778,3.451-7.583,0.673-10.733
	C221.096,160.779,216.291,160.477,213.14,163.254z"/>
<path d="M403.857,161.477c-4.2,0-7.604,3.405-7.604,7.604v327.711h-75.421V211.886c0-18.124-7.667-35.545-21.033-47.797
	c-3.095-2.838-7.905-2.627-10.744,0.467c-2.838,3.096-2.628,7.906,0.468,10.744c10.232,9.378,16.1,22.714,16.1,36.585v292.51
	c0,4.199,3.404,7.604,7.604,7.604h90.629c4.2,0,7.604-3.405,7.604-7.604V169.081C411.461,164.882,408.057,161.477,403.857,161.477z"
	/>
<path d="M358.72,295.367c4.2,0,7.604-3.405,7.604-7.604v-38.658c0-4.199-3.404-7.604-7.604-7.604s-7.604,3.405-7.604,7.604v38.658
	C351.116,291.962,354.519,295.367,358.72,295.367z"/>
<path d="M351.116,400.42c0,4.199,3.404,7.604,7.604,7.604s7.604-3.405,7.604-7.604v-38.657c0-4.199-3.404-7.604-7.604-7.604
	s-7.604,3.405-7.604,7.604V400.42z"/>
<path d="M160.888,249.105c0-4.199-3.404-7.604-7.604-7.604s-7.604,3.405-7.604,7.604v38.658c0,4.199,3.404,7.604,7.604,7.604
	s7.604-3.405,7.604-7.604V249.105z"/>
<path d="M153.285,354.16c-4.2,0-7.604,3.405-7.604,7.604v38.657c0,4.199,3.404,7.604,7.604,7.604s7.604-3.405,7.604-7.604v-38.657
	C160.888,357.564,157.485,354.16,153.285,354.16z"/>
<path d="M416.26,79.962H263.606V60.767h43.277c4.2,0,7.604-3.405,7.604-7.604V15.145c0-4.199-3.404-7.604-7.604-7.604h-43.28
	C263.57,3.371,260.181,0,256.002,0c-4.2,0-7.604,3.405-7.604,7.604v7.541v38.018v26.799H95.741c-4.2,0-7.604,3.405-7.604,7.604
	c0,4.199,3.404,7.604,7.604,7.604h4.799v409.226c0,4.199,3.404,7.604,7.604,7.604h90.638c4.2,0,7.604-3.405,7.604-7.604v-59.544
	c0-4.199-3.404-7.604-7.604-7.604c-4.2,0-7.604,3.405-7.604,7.604v51.94h-75.43V95.17h140.186c0.023,0,0.046,0.003,0.069,0.003
	c0.023,0,0.046-0.003,0.069-0.003h140.182v48.562c0,4.199,3.404,7.604,7.604,7.604s7.604-3.405,7.604-7.604V95.17h4.799
	c4.2,0,7.604-3.405,7.604-7.604C423.863,83.367,420.46,79.962,416.26,79.962z M299.279,45.559h-35.673v-22.81h35.673V45.559z"/>
<path d="M256.735,98.769h-1.459c-19.153,0-34.734,15.582-34.734,34.734c0,20.866,13.258,39.443,32.991,46.226
	c0.801,0.275,1.636,0.413,2.472,0.413c0.835,0,1.671-0.138,2.472-0.413c19.733-6.783,32.99-25.36,32.99-46.226
	C291.468,114.351,275.887,98.769,256.735,98.769z M256.005,164.387c-12.218-5.304-20.256-17.4-20.256-30.884
	c0-10.766,8.76-19.526,19.526-19.526h1.459c10.766,0,19.525,8.76,19.525,19.526C276.26,146.987,268.222,159.083,256.005,164.387z"/>
<g>
</g>
<g>
</g>
<g>
</g>
<g>
</g>
<g>
</g>
<g>
</g>
<g>
</g>
<g>
</g>
<g>
</g>
<g>
</g>
<g>
</g>
<g>
</g>
<g>
</g>
<g>
</g>
<g>
</g>
</svg>
