<svg id="Layer_1" enable-background="new 0 0 512 512" height="512" viewBox="0 0 512 512" width="512" xmlns="http://www.w3.org/2000/svg"><g><path d="m208.485 14.015h144v76.908h-144z" fill="#f0cbac" transform="matrix(.996 .093 -.093 .996 6.078 -25.798)"/><path d="m298.785 42.757h76.908v30h-76.908z" fill="#e4b591" transform="matrix(.093 -.996 .996 .093 248.441 388.183)"/><path d="m153.734 82.886h210v406h-210z" fill="#fde6cd" transform="matrix(.996 .093 -.093 .996 27.642 -22.773)"/><path d="m145.346 279.236h406v30h-406z" fill="#f0cbac" transform="matrix(.093 -.996 .996 .093 23.058 613.779)"/><path d="m161.904 183.205h210v30h-210z" fill="#e4b591" transform="matrix(.996 .093 -.093 .996 19.542 -23.909)"/><path d="m341.516 191.556h30v30h-30z" fill="#d29d77" transform="matrix(.093 -.996 .996 .093 117.773 542.369)"/><path d="m222.226 178.977-31.862-2.969 4.268-45.802c.82-8.798 8.617-15.266 17.415-14.446 8.798.82 15.266 8.617 14.446 17.415z" fill="#455a64"/><path d="m284.227 184.755-31.862-2.969 4.268-45.802c.82-8.798 8.617-15.266 17.415-14.446 8.798.82 15.266 8.617 14.446 17.415z" fill="#455a64"/><g fill="#455a64"><path d="m265.991 82.683-31.862-2.969 2.498-26.805c.82-8.798 8.617-15.266 17.415-14.446 8.798.82 15.266 8.617 14.446 17.415z"/><path d="m321.009 87.809-31.862-2.969 2.498-26.805c.82-8.798 8.617-15.266 17.415-14.446 8.798.82 15.266 8.617 14.446 17.415z"/></g><path d="m346.229 190.532-31.862-2.969 4.268-45.802c.82-8.798 8.617-15.266 17.415-14.446 8.798.82 15.266 8.617 14.446 17.415z" fill="#455a64"/><path d="m149.935 311.649h210v30h-210z" fill="#e4b591" transform="matrix(.996 .093 -.093 .996 31.407 -22.245)"/><path d="m329.547 320h30v30h-30z" fill="#d29d77" transform="matrix(.093 -.996 .996 .093 -20.976 646.978)"/><g fill="#455a64"><path d="m210.257 307.421-31.862-2.969 4.268-45.802c.82-8.798 8.617-15.266 17.415-14.446 8.798.82 15.266 8.617 14.446 17.415z"/><path d="m272.258 313.198-31.862-2.969 4.268-45.802c.82-8.798 8.617-15.266 17.416-14.446 8.798.82 15.266 8.617 14.446 17.416z"/><path d="m334.26 318.976-31.862-2.969 4.268-45.802c.82-8.798 8.617-15.266 17.415-14.446 8.798.82 15.266 8.617 14.446 17.415z"/><path d="m193.828 483.717-31.862-2.969 9.922-106.471c.82-8.798 8.617-15.266 17.415-14.446 8.798.82 15.266 8.617 14.446 17.415z"/><path d="m255.83 489.495-31.862-2.969 9.922-106.471c.82-8.798 8.617-15.266 17.415-14.446 8.798.82 15.266 8.617 14.446 17.415z"/><path d="m317.831 495.272-31.862-2.969 9.922-106.471c.82-8.798 8.617-15.266 17.415-14.446 8.798.82 15.266 8.617 14.446 17.415z"/></g><path d="m489.5 504.5h-467c-8.284 0-15-6.716-15-15 0-8.284 6.716-15 15-15h467c8.284 0 15 6.716 15 15 0 8.284-6.716 15-15 15z" fill="#d67b42"/><path d="m489.5 474.5h-30c8.284 0 15 6.716 15 15s-6.716 15-15 15h30c8.284 0 15-6.716 15-15s-6.716-15-15-15z" fill="#be652b"/><path d="m489.5 467h-134.648l34.736-372.804c.185-1.98-.425-3.953-1.695-5.484s-3.096-2.495-5.077-2.679l-25.393-2.366 5.785-62.111c.384-4.124-2.648-7.779-6.772-8.163l-17.517-1.632c-4.126-.382-7.779 2.648-8.164 6.772-.384 4.125 2.648 7.779 6.772 8.164l10.049.936-5.089 54.643-13.315-1.24 1.801-19.334c1.202-12.902-8.316-24.377-21.218-25.579-12.899-1.199-24.376 8.316-25.579 21.218l-1.802 19.335-8.22-.766 1.802-19.336c.582-6.25-1.304-12.353-5.312-17.184s-9.657-7.813-15.907-8.395c-12.905-1.208-24.376 8.316-25.579 21.219l-1.802 19.336-13.315-1.24 5.089-54.646 85.377 7.956c4.129.385 7.779-2.647 8.164-6.772.384-4.124-2.647-7.779-6.772-8.164l-92.845-8.651c-1.977-.183-3.954.426-5.484 1.695-1.531 1.27-2.495 3.096-2.679 5.077l-5.785 62.113-25.392-2.366c-4.123-.379-7.779 2.648-8.164 6.772l-3.435 36.856c-.384 4.124 2.647 7.779 6.772 8.164 4.126.384 7.779-2.647 8.164-6.772l2.739-29.388 53.636 4.997c.002 0 .004.001.006.001l31.862 2.969c.009.001.018 0 .028.001l23.09 2.151c.013.001.025.004.037.005l31.862 2.969c.02.002.04.001.06.003l28.167 2.624c.008.001.016.003.025.004s.018 0 .027.001l25.365 2.363-7.881 84.577-11.684-1.089 3.572-38.334c1.202-12.902-8.316-24.377-21.218-25.579-6.253-.585-12.353 1.304-17.184 5.312-4.832 4.008-7.813 9.657-8.396 15.907l-3.572 38.334-15.204-1.417 3.572-38.334c1.202-12.902-8.316-24.377-21.218-25.579-12.914-1.205-24.376 8.316-25.579 21.218l-3.572 38.334-15.204-1.417 3.572-38.334c.583-6.25-1.304-12.353-5.312-17.184-4.007-4.831-9.656-7.813-15.907-8.396-6.252-.584-12.353 1.304-17.184 5.312s-7.813 9.657-8.395 15.907l-3.572 38.334-11.681-1.089 2.16-23.184c.384-4.124-2.647-7.779-6.772-8.164-4.116-.383-7.779 2.647-8.164 6.772l-30.265 324.821h-106.367c-6.017 0-11.668 2.346-15.894 6.587-4.26 4.245-6.606 9.896-6.606 15.913 0 12.407 10.093 22.5 22.5 22.5h467c6.017 0 11.668-2.346 15.894-6.587 4.26-4.245 6.606-9.896 6.606-15.913 0-12.407-10.093-22.5-22.5-22.5zm-190.388-408.269c.434-4.667 4.585-8.111 9.252-7.674 4.667.435 8.109 4.585 7.674 9.252l-1.802 19.334-16.927-1.577zm-55.017-5.126c.435-4.667 4.583-8.11 9.252-7.675 2.261.21 4.304 1.289 5.754 3.037 1.449 1.747 2.132 3.955 1.921 6.215l-1.802 19.336-16.927-1.577zm119.193 161.114-194.159-18.093 1.392-14.935 26.331 2.454 24.678 2.3h.003l30.134 2.808h.003l31.862 2.969h.007l30.126 2.807c.002 0 .005.001.007.001l31.861 2.97h.001l19.146 1.784zm-37.185-72.262c.435-4.666 4.581-8.112 9.252-7.674 4.667.435 8.109 4.585 7.674 9.252l-3.572 38.333-16.926-1.577zm-62.002-5.778c.435-4.667 4.58-8.111 9.252-7.674 4.667.435 8.109 4.585 7.674 9.252l-3.572 38.334-16.926-1.577zm-62.001-5.777c.21-2.261 1.289-4.304 3.037-5.753s3.958-2.134 6.215-1.921c2.261.21 4.304 1.289 5.754 3.037s2.132 3.955 1.921 6.215l-3.572 38.334-16.926-1.577zm159.801 98.753-7.793 83.638-11.685-1.089 3.572-38.334c1.202-12.902-8.316-24.377-21.219-25.579-12.909-1.203-24.377 8.316-25.579 21.218l-3.572 38.334-15.204-1.417 3.572-38.334c1.202-12.901-8.316-24.376-21.219-25.579-6.252-.582-12.353 1.304-17.184 5.312s-7.813 9.657-8.395 15.907l-3.572 38.334-15.204-1.417 3.572-38.334c.582-6.25-1.304-12.353-5.312-17.184s-9.657-7.813-15.907-8.395c-12.902-1.208-24.376 8.316-25.579 21.218l-3.572 38.334-11.681-1.089 7.794-83.638zm-203.349 80.48 194.159 18.093-1.392 14.935-194.159-18.093zm28.006-12.455 3.572-38.333c.435-4.667 4.586-8.115 9.252-7.675 2.261.21 4.304 1.289 5.754 3.037 1.449 1.747 2.132 3.955 1.921 6.215l-3.572 38.333zm82.501-30.979-3.572 38.334-8.463-.789-8.463-.789 3.572-38.334c.21-2.261 1.289-4.304 3.037-5.753 1.747-1.45 3.956-2.136 6.215-1.921 4.665.435 8.109 4.585 7.674 9.252zm62.001 5.777-3.572 38.334-16.927-1.577 3.572-38.334c.435-4.667 4.578-8.108 9.252-7.674 2.261.21 4.304 1.289 5.753 3.037s2.133 3.954 1.922 6.214zm-175.294 67.527 194.167 18.094-10.147 108.901h-11.785l1.485-15.954c.384-4.125-2.648-7.779-6.772-8.163-4.123-.379-7.779 2.648-8.163 6.772l-1.615 17.345h-17.075l7.497-80.474c.21-2.26 1.288-4.301 3.035-5.749 1.748-1.449 3.959-2.128 6.223-1.919 4.392.408 7.704 4.037 7.704 8.442 0 .279-.011.541-.038.805l-2.806 30.138c-.384 4.125 2.648 7.779 6.772 8.163 4.133.382 7.779-2.648 8.163-6.772l2.801-30.09c.071-.711.107-1.466.107-2.243 0-12.199-9.164-22.249-21.313-23.377-6.247-.58-12.353 1.302-17.185 5.305-4.834 4.006-7.817 9.655-8.399 15.907l-7.626 81.864h-15.335l7.757-83.284c1.203-12.898-8.313-24.37-21.211-25.574-.044-.004-.089-.008-.135-.011-12.845-1.125-24.25 8.365-25.45 21.223l-8.166 87.646h-15.335l8.292-89.007c.071-.711.107-1.466.107-2.243 0-12.205-9.169-22.26-21.323-23.388-6.25-.58-12.349 1.304-17.18 5.313s-7.812 9.659-8.394 15.908l-8.707 93.417h-11.784zm77.555 126.995 8.037-86.254c.434-4.664 4.569-8.11 9.246-7.668.029.002.059.005.089.008 4.623.474 8.022 4.602 7.589 9.239l-7.886 84.675zm-62.54 0 8.576-92.024c.21-2.261 1.29-4.306 3.038-5.757 1.747-1.449 3.951-2.131 6.211-1.921 4.397.408 7.713 4.042 7.713 8.452 0 .279-.011.541-.038.804l-8.425 90.446zm324.006 27.806c-1.409 1.415-3.287 2.194-5.287 2.194h-467c-4.136 0-7.5-3.364-7.5-7.5 0-2 .779-3.878 2.213-5.306 1.409-1.415 3.287-2.194 5.287-2.194h113.198.01s.007 0 .01 0h26.829.01s.007 0 .01 0h32.168.044 30.356.044 32.047.01s.007 0 .01 0h89.369.01s.007 0 .01 0h142.865c4.136 0 7.5 3.364 7.5 7.5 0 2-.779 3.878-2.213 5.306z"/></g></svg>