<svg id="Layer_1" enable-background="new 0 0 512.02 512.02" height="512" viewBox="0 0 512.02 512.02" width="512" xmlns="http://www.w3.org/2000/svg"><g><g clip-rule="evenodd" fill-rule="evenodd"><g fill="#faf7f6"><path d="m86.121 42.121 106.337 106.337 8.586 8.586 22.727-22.727c2.513-2.513 4.521-5.348 6.024-8.375 5.971-12.028 3.963-27.093-6.023-37.08l-69.468-69.469c-12.5-12.5-32.954-12.5-45.455 0z"/><path d="m166.02 236.613c-11.246-3.824-24.23-1.272-33.157 7.655l-69.469 69.468c-12.5 12.5-12.5 32.954 0 45.455l22.727 22.727 79.899-79.899 35.024-35.024-22.727-22.727c-3.574-3.573-7.796-6.125-12.297-7.655z"/><path d="m288.268 289.722c-12.5 12.5-12.5 32.954 0 45.454l27.843 27.843 29.909 29.909 11.717 11.717c12.5 12.5 32.954 12.5 45.455 0l22.727-22.727-79.899-79.899-35.024-35.024z"/><path d="m342.092 185.792c12.029 5.974 27.096 3.967 37.084-6.021l69.469-69.468c12.5-12.5 12.5-32.954 0-45.455l-22.727-22.727-106.336 106.336-8.587 8.587 22.727 22.727c2.512 2.511 5.345 4.519 8.37 6.021z"/></g><path d="m310.995 157.044 8.587-8.587c-16.311-16.313-38.812-26.437-63.562-26.437-9.113 0-17.92 1.373-26.225 3.922-1.503 3.027-3.51 5.861-6.024 8.375l-22.727 22.727-8.586-8.586c-16.313 16.313-26.438 38.812-26.438 63.562v24.593c4.501 1.53 8.724 4.082 12.297 7.655l22.727 22.727-35.024 35.024v61h150.091l-27.843-27.843c-12.5-12.5-12.5-32.954 0-45.454l22.727-22.727 35.024 35.024v-90c0-9.114-1.377-17.921-3.927-26.227-3.025-1.502-5.858-3.51-8.37-6.021zm-54.975 32.475c12.426 0 22.5 10.074 22.5 22.5s-10.074 22.5-22.5 22.5-22.5-10.074-22.5-22.5 10.073-22.5 22.5-22.5z" fill="#e6d5cf"/><circle cx="256.02" cy="212.019" fill="#c68a65" r="22.5"/><path d="m316.111 363.02h-150.091v139h60v-50c0-16.5 13.5-30 30.001-30 16.5 0 30 13.5 30 30v50h60v-109.091z" fill="#ddb9a3"/><path d="m286.02 452.02c0-16.5-13.5-30-30-30-16.501 0-30.001 13.5-30.001 30v50h60v-50z" fill="#c68a65"/></g><g><path d="m386.248 186.842 69.469-69.468c7.935-7.935 12.304-18.518 12.304-29.799s-4.369-21.864-12.304-29.799l-22.728-22.726c-3.906-3.904-10.236-3.904-14.143 0l-99.611 99.611c-17.847-14.663-39.958-22.641-63.216-22.641-4.329 0-8.636.296-12.904.853.013-.427.031-.854.031-1.283 0-11.281-4.369-21.864-12.304-29.799l-69.469-69.468c-16.432-16.431-43.165-16.429-59.597 0l-22.726 22.727c-3.905 3.905-3.905 10.237 0 14.143l25.64 25.64c3.906 3.904 10.236 3.904 14.143 0 3.905-3.905 3.905-10.237 0-14.143l-18.568-18.568 15.656-15.656c8.635-8.633 22.681-8.631 31.312 0l69.467 69.467c8.633 8.633 8.633 22.68 0 31.313l-15.656 15.656-18.572-18.572c-3.906-3.904-10.236-3.904-14.143 0-3.905 3.905-3.905 10.237 0 14.143l10.334 10.334c-14.662 17.85-22.644 39.965-22.644 63.214v12.865c-10.934-.111-21.903 3.988-30.229 12.312l-69.469 69.469c-16.431 16.431-16.431 43.166 0 59.597l22.728 22.728c1.953 1.952 4.512 2.929 7.071 2.929s5.118-.977 7.071-2.929l62.827-62.827v26.857c-5.522 0-10 4.478-10 10s4.478 10 10 10v129c0 5.522 4.478 10 10 10h180c5.522 0 10-4.478 10-10v-85.782c7.286 5.195 15.862 7.802 24.443 7.802 10.792 0 21.584-4.107 29.8-12.322l22.727-22.728c3.905-3.905 3.905-10.237 0-14.143l-76.97-76.97v-85.859c0-4.322-.296-8.623-.852-12.885.427.013.854.031 1.282.031 10.792-.001 21.585-4.11 29.8-12.324zm39.67-130.579 15.656 15.656c8.633 8.633 8.633 22.68 0 31.313l-69.469 69.468c-4.156 4.157-9.717 6.446-15.655 6.446-5.939 0-11.5-2.289-15.656-6.446l-15.656-15.655zm-195.075 85.125c2.125-2.125 3.986-4.446 5.584-6.914 6.386-1.624 12.958-2.454 19.593-2.454 17.914 0 34.974 5.95 48.973 16.885l-1.068 1.068-33.119 33.119c-4.439-2.278-9.462-3.573-14.786-3.573s-10.347 1.295-14.786 3.573l-26.047-26.047zm12.676 70.631c0-6.893 5.607-12.5 12.5-12.5s12.5 5.607 12.5 12.5-5.607 12.5-12.5 12.5-12.5-5.608-12.5-12.5zm-67.5.001c0-17.906 5.951-34.97 16.886-48.972l1.067 1.067 33.119 33.119c-2.278 4.439-3.572 9.462-3.572 14.784 0 5.323 1.295 10.347 3.573 14.786l-26.048 26.048-15.656-15.656c-2.847-2.847-6.009-5.189-9.368-7.049v-18.127zm-89.898 155.755-15.656-15.656c-8.633-8.633-8.633-22.679 0-31.312l69.469-69.469c4.316-4.316 9.986-6.475 15.655-6.475 5.67 0 11.34 2.158 15.656 6.475l15.656 15.656zm89.898-61.613 32.096-32.096 33.12-33.12c4.439 2.278 9.462 3.572 14.784 3.572s10.346-1.294 14.784-3.572l26.049 26.049-15.655 15.656c-16.431 16.431-16.431 43.166 0 59.597l10.771 10.771h-115.949zm60 185.858v-40c0-11.028 8.972-20 20-20s20 8.972 20 20v40zm60 0v-40c0-22.056-17.944-40-40-40s-40 17.944-40 40v40h-40v-119h135.949l24.051 24.052v94.948zm100.101-94.446c-8.633 8.633-22.682 8.633-31.313 0l-69.468-69.469c-4.157-4.156-6.446-9.717-6.446-15.655 0-5.939 2.289-11.5 6.446-15.656l15.655-15.656 100.781 100.78zm-60.101-185.554v65.857l-17.953-17.953-33.12-33.12c2.278-4.439 3.573-9.462 3.573-14.786 0-5.323-1.294-10.346-3.572-14.784l26.048-26.048 15.656 15.655c2.142 2.142 4.462 3.997 6.908 5.581 1.627 6.392 2.46 12.965 2.46 19.598z"/><path d="m153.583 99.582c0-5.522-4.478-10-10-10h-.008c-5.522 0-9.996 4.478-9.996 10s4.481 10 10.004 10 10-4.478 10-10z"/></g></g></svg>