<?xml version="1.0" encoding="utf-8"?>
<!-- Generator: Adobe Illustrator 19.0.0, SVG Export Plug-In . SVG Version: 6.00 Build 0)  -->
<svg version="1.1" xmlns="http://www.w3.org/2000/svg" xmlns:xlink="http://www.w3.org/1999/xlink" x="0px" y="0px"
	 viewBox="0 0 210 210" style="enable-background:new 0 0 210 210;" xml:space="preserve">
<style type="text/css">
	.st0{fill:#FFFFFF;}
	.st1{clip-path:url(#XMLID_78_);fill:#1E6292;}
	.st2{clip-path:url(#XMLID_78_);fill:#FFFFFF;}
	.st3{display:none;}
	.st4{display:inline;}
	.st5{fill:#287EC1;}
	.st6{fill:#FFC90C;}
	.st7{clip-path:url(#XMLID_79_);fill:#069547;}
	.st8{clip-path:url(#XMLID_79_);fill:#EB2627;}
	.st9{clip-path:url(#XMLID_79_);fill:#FFFFFF;}
	.st10{clip-path:url(#XMLID_80_);fill:#287EC1;}
	.st11{clip-path:url(#XMLID_81_);fill:#EB2627;}
	.st12{clip-path:url(#XMLID_81_);fill:#FFFFFF;}
	.st13{clip-path:url(#XMLID_81_);fill:#2080C2;}
	.st14{clip-path:url(#XMLID_82_);fill:#EB2627;}
	.st15{clip-path:url(#XMLID_82_);fill:#FFC711;}
	.st16{clip-path:url(#XMLID_83_);fill:#EB2627;}
	.st17{clip-path:url(#XMLID_83_);fill:#FFFFFF;}
	.st18{clip-path:url(#XMLID_84_);fill:#0D0D0D;}
	.st19{clip-path:url(#XMLID_84_);fill:#FCE01F;}
	.st20{clip-path:url(#XMLID_84_);fill:#EB2627;}
	.st21{clip-path:url(#XMLID_85_);fill:#3E63AC;}
	.st22{clip-path:url(#XMLID_85_);}
	.st23{fill:#EB2627;}
</style>
<g id="Layer_6">
	<g id="XMLID_46_">
		<g id="XMLID_47_">
			<circle id="XMLID_57_" class="st0" cx="104.7" cy="105.1" r="100"/>
			<g id="XMLID_48_">
				<defs>
					<circle id="XMLID_49_" cx="104.7" cy="105.1" r="100"/>
				</defs>
				<clipPath id="XMLID_78_">
					<use xlink:href="#XMLID_49_"  style="overflow:visible;"/>
				</clipPath>
				<rect id="XMLID_56_" x="-18.1" y="5.1" class="st1" width="230.7" height="203.3"/>
				<rect id="XMLID_55_" x="42.6" y="-13.9" class="st2" width="25.4" height="127.4"/>
				<rect id="XMLID_54_" x="-7.1" y="37.3" class="st2" width="113.6" height="25.4"/>
				<rect id="XMLID_53_" x="106.4" y="11.9" class="st2" width="113.6" height="25.4"/>
				<rect id="XMLID_52_" x="106.4" y="62.7" class="st2" width="113.6" height="25.4"/>
				<rect id="XMLID_51_" x="-18.1" y="113.5" class="st2" width="238.1" height="25.4"/>
				<rect id="XMLID_50_" x="19.5" y="164.3" class="st2" width="200.5" height="25.4"/>
			</g>
		</g>
	</g>
</g>
<g id="Layer_7" class="st3">
	<g id="XMLID_58_" class="st4">
		<g id="XMLID_59_">
			<path id="XMLID_62_" class="st5" d="M204.8,104.5c0,7-0.7,13.9-2.1,20.5c-9.4,45.4-49.7,79.5-97.9,79.5c-0.6,0-1.2,0-1.8,0
				c-14.6-0.3-28.5-3.6-40.9-9.5C34.2,181.8,13.4,156,6.9,125c-1.4-6.6-2.1-13.4-2.1-20.5c0-7,0.7-13.9,2.1-20.5
				c6.5-31,27.3-56.8,55.2-70c12.4-5.9,26.3-9.3,40.9-9.5c0.6,0,1.2,0,1.8,0c48.2,0,88.5,34.1,97.9,79.5
				C204.1,90.6,204.8,97.5,204.8,104.5z"/>
			<path id="XMLID_61_" class="st6" d="M103.1,4.5v200c-14.6-0.3-28.5-3.6-40.9-9.5V14.1C74.6,8.2,88.5,4.8,103.1,4.5z"/>
			<path id="XMLID_60_" class="st6" d="M204.8,104.5c0,7-0.7,13.9-2.1,20.5H6.9c-1.4-6.6-2.1-13.4-2.1-20.5c0-7,0.7-13.9,2.1-20.5
				h195.8C204.1,90.6,204.8,97.5,204.8,104.5z"/>
		</g>
	</g>
</g>
<g id="Layer_8" class="st3">
	<g id="XMLID_63_" class="st4">
		<g id="XMLID_64_">
			<circle id="XMLID_70_" class="st0" cx="105.7" cy="105" r="100"/>
			<g id="XMLID_65_">
				<defs>
					<path id="XMLID_66_" d="M105.7,5c55.2,0,100,44.8,100,100c0,55.2-44.8,100-100,100c-55.2,0-100-44.8-100-100
						C5.7,49.8,50.4,5,105.7,5z"/>
				</defs>
				<clipPath id="XMLID_79_">
					<use xlink:href="#XMLID_66_"  style="overflow:visible;"/>
				</clipPath>
				<rect id="XMLID_69_" x="5.7" y="-17.8" class="st7" width="66.7" height="245.5"/>
				<rect id="XMLID_68_" x="139" y="-17.8" class="st8" width="66.7" height="245.5"/>
				<rect id="XMLID_67_" x="72.3" y="-17.8" class="st9" width="66.7" height="245.5"/>
			</g>
		</g>
	</g>
</g>
<g id="Layer_9" class="st3">
	<g id="XMLID_71_" class="st4">
		<g id="XMLID_72_">
			<circle id="XMLID_77_" class="st0" cx="104.9" cy="105.3" r="100"/>
			<g id="XMLID_73_">
				<defs>
					<circle id="XMLID_74_" cx="104.9" cy="105.3" r="100"/>
				</defs>
				<clipPath id="XMLID_80_">
					<use xlink:href="#XMLID_74_"  style="overflow:visible;"/>
				</clipPath>
				<rect id="XMLID_76_" x="62.2" y="-94.7" class="st10" width="40.9" height="400"/>
				<rect id="XMLID_75_" x="-117.4" y="84.8" class="st10" width="400" height="40.9"/>
			</g>
		</g>
	</g>
</g>
<g id="Layer_2" class="st3">
	<g id="XMLID_2_" class="st4">
		<circle id="XMLID_8_" class="st0" cx="104.5" cy="105" r="100"/>
		<g id="XMLID_3_">
			<defs>
				<circle id="XMLID_4_" cx="104.5" cy="105" r="100"/>
			</defs>
			<clipPath id="XMLID_81_">
				<use xlink:href="#XMLID_4_"  style="overflow:visible;"/>
			</clipPath>
			<rect id="XMLID_7_" x="137.8" y="-17.8" class="st11" width="66.7" height="245.5"/>
			<rect id="XMLID_6_" x="71.1" y="-17.8" class="st12" width="66.7" height="245.5"/>
			<rect id="XMLID_5_" x="4.5" y="-17.8" class="st13" width="66.7" height="245.5"/>
		</g>
	</g>
</g>
<g id="Layer_3" class="st3">
	<g id="XMLID_15_" class="st4">
		<g id="XMLID_16_">
			<defs>
				<path id="XMLID_17_" d="M204.8,105.1c0,55.2-44.8,100-100,100c-55.2,0-100-44.8-100-100s44.8-100,100-100
					C160,5.1,204.8,49.9,204.8,105.1z"/>
			</defs>
			<clipPath id="XMLID_82_">
				<use xlink:href="#XMLID_17_"  style="overflow:visible;"/>
			</clipPath>
			<rect id="XMLID_20_" x="-17.9" y="5.1" class="st14" width="245.5" height="66.7"/>
			<rect id="XMLID_19_" x="-17.9" y="138.4" class="st14" width="245.5" height="66.7"/>
			<rect id="XMLID_18_" x="-43.8" y="51.1" class="st15" width="297.2" height="108"/>
		</g>
	</g>
</g>
<g id="Layer_4" class="st3">
	<g id="XMLID_9_" class="st4">
		<g id="XMLID_10_">
			<defs>
				<circle id="XMLID_11_" cx="104.5" cy="105.3" r="100"/>
			</defs>
			<clipPath id="XMLID_83_">
				<use xlink:href="#XMLID_11_"  style="overflow:visible;"/>
			</clipPath>
			<rect id="XMLID_14_" x="-18.3" y="5.3" class="st16" width="245.5" height="217.3"/>
			<rect id="XMLID_13_" x="71.3" y="-8.8" class="st17" width="25.4" height="248.3"/>
			<rect id="XMLID_12_" x="-17.9" y="92.6" class="st17" width="248.3" height="25.4"/>
		</g>
	</g>
</g>
<g id="Layer_5" class="st3">
	<g id="XMLID_40_" class="st4">
		<g id="XMLID_41_">
			<defs>
				<circle id="XMLID_42_" cx="104.6" cy="105.5" r="100"/>
			</defs>
			<clipPath id="XMLID_84_">
				<use xlink:href="#XMLID_42_"  style="overflow:visible;"/>
			</clipPath>
			<rect id="XMLID_45_" x="-18.1" y="5.5" class="st18" width="245.5" height="66.7"/>
			<rect id="XMLID_44_" x="-18.1" y="138.8" class="st19" width="245.5" height="66.7"/>
			<rect id="XMLID_43_" x="-18.1" y="72.2" class="st20" width="245.5" height="66.7"/>
		</g>
	</g>
</g>
<g id="Layer_1" class="st3">
	<g id="XMLID_21_" class="st4">
		<g id="XMLID_22_">
			<defs>
				<circle id="XMLID_23_" cx="104.6" cy="105" r="100"/>
			</defs>
			<clipPath id="XMLID_85_">
				<use xlink:href="#XMLID_23_"  style="overflow:visible;"/>
			</clipPath>
			<rect id="XMLID_39_" x="-18.2" y="5" class="st21" width="245.5" height="217.3"/>
			<g id="XMLID_30_" class="st22">
				<g id="XMLID_35_">
					
						<rect id="XMLID_38_" x="102.5" y="-6.8" transform="matrix(-0.7071 0.7071 -0.7071 -0.7071 270.8418 122.5968)" class="st0" width="15" height="248.3"/>
					<g id="XMLID_36_">
						
							<rect id="XMLID_37_" x="96.4" y="-16" transform="matrix(-0.7071 0.7071 -0.7071 -0.7071 248.6131 113.389)" class="st23" width="8.8" height="248.3"/>
					</g>
				</g>
				<g id="XMLID_31_">
					
						<rect id="XMLID_34_" x="80.3" y="-0.6" transform="matrix(-0.7071 -0.7071 0.7071 -0.7071 62.5484 272.9369)" class="st0" width="15" height="248.3"/>
					<g id="XMLID_32_">
						
							<rect id="XMLID_33_" x="92.6" y="-9.9" transform="matrix(-0.7071 -0.7071 0.7071 -0.7071 84.7774 263.7298)" class="st23" width="8.8" height="248.3"/>
					</g>
				</g>
			</g>
			<g id="XMLID_24_" class="st22">
				<g id="XMLID_26_">
					<rect id="XMLID_29_" x="80.3" y="-9.1" class="st0" width="43.4" height="248.3"/>
					<rect id="XMLID_28_" x="-0.5" y="83.3" class="st0" width="248.3" height="43.4"/>
					<rect id="XMLID_27_" x="88.8" y="-9.1" class="st23" width="25.4" height="248.3"/>
				</g>
				<rect id="XMLID_25_" x="-13.5" y="92.3" class="st23" width="248.3" height="25.4"/>
			</g>
		</g>
	</g>
</g>
</svg>
