<?xml version="1.0" encoding="utf-8"?>
<!-- Generator: Adobe Illustrator 19.0.0, SVG Export Plug-In . SVG Version: 6.00 Build 0)  -->
<svg version="1.1" xmlns="http://www.w3.org/2000/svg" xmlns:xlink="http://www.w3.org/1999/xlink" x="0px" y="0px"
	 viewBox="0 0 210 210" style="enable-background:new 0 0 210 210;" xml:space="preserve">
<style type="text/css">
	.st0{display:none;}
	.st1{display:inline;}
	.st2{fill:#FFFFFF;}
	.st3{clip-path:url(#XMLID_46_);fill:#EB2627;}
	.st4{clip-path:url(#XMLID_46_);fill:#FFFFFF;}
	.st5{clip-path:url(#XMLID_46_);fill:#2080C2;}
	.st6{clip-path:url(#XMLID_47_);fill:#EB2627;}
	.st7{clip-path:url(#XMLID_47_);fill:#FFC711;}
	.st8{clip-path:url(#XMLID_48_);fill:#EB2627;}
	.st9{clip-path:url(#XMLID_48_);fill:#FFFFFF;}
	.st10{clip-path:url(#XMLID_49_);fill:#0D0D0D;}
	.st11{clip-path:url(#XMLID_49_);fill:#FCE01F;}
	.st12{clip-path:url(#XMLID_49_);fill:#EB2627;}
	.st13{clip-path:url(#XMLID_50_);fill:#3E63AC;}
	.st14{clip-path:url(#XMLID_50_);}
	.st15{fill:#EB2627;}
</style>
<g id="Layer_2" class="st0">
	<g id="XMLID_2_" class="st1">
		<circle id="XMLID_8_" class="st2" cx="104.5" cy="105" r="100"/>
		<g id="XMLID_3_">
			<defs>
				<circle id="XMLID_4_" cx="104.5" cy="105" r="100"/>
			</defs>
			<clipPath id="XMLID_46_">
				<use xlink:href="#XMLID_4_"  style="overflow:visible;"/>
			</clipPath>
			<rect id="XMLID_7_" x="137.8" y="-17.8" class="st3" width="66.7" height="245.5"/>
			<rect id="XMLID_6_" x="71.1" y="-17.8" class="st4" width="66.7" height="245.5"/>
			<rect id="XMLID_5_" x="4.5" y="-17.8" class="st5" width="66.7" height="245.5"/>
		</g>
	</g>
</g>
<g id="Layer_3" class="st0">
	<g id="XMLID_15_" class="st1">
		<g id="XMLID_16_">
			<defs>
				<path id="XMLID_17_" d="M204.8,105.1c0,55.2-44.8,100-100,100c-55.2,0-100-44.8-100-100s44.8-100,100-100
					C160,5.1,204.8,49.9,204.8,105.1z"/>
			</defs>
			<clipPath id="XMLID_47_">
				<use xlink:href="#XMLID_17_"  style="overflow:visible;"/>
			</clipPath>
			<rect id="XMLID_20_" x="-17.9" y="5.1" class="st6" width="245.5" height="66.7"/>
			<rect id="XMLID_19_" x="-17.9" y="138.4" class="st6" width="245.5" height="66.7"/>
			<rect id="XMLID_18_" x="-43.8" y="51.1" class="st7" width="297.2" height="108"/>
		</g>
	</g>
</g>
<g id="Layer_4" class="st0">
	<g id="XMLID_9_" class="st1">
		<g id="XMLID_10_">
			<defs>
				<circle id="XMLID_11_" cx="104.5" cy="105.3" r="100"/>
			</defs>
			<clipPath id="XMLID_48_">
				<use xlink:href="#XMLID_11_"  style="overflow:visible;"/>
			</clipPath>
			<rect id="XMLID_14_" x="-18.3" y="5.3" class="st8" width="245.5" height="217.3"/>
			<rect id="XMLID_13_" x="71.3" y="-8.8" class="st9" width="25.4" height="248.3"/>
			<rect id="XMLID_12_" x="-17.9" y="92.6" class="st9" width="248.3" height="25.4"/>
		</g>
	</g>
</g>
<g id="Layer_5" class="st0">
	<g id="XMLID_40_" class="st1">
		<g id="XMLID_41_">
			<defs>
				<circle id="XMLID_42_" cx="104.6" cy="105.5" r="100"/>
			</defs>
			<clipPath id="XMLID_49_">
				<use xlink:href="#XMLID_42_"  style="overflow:visible;"/>
			</clipPath>
			<rect id="XMLID_45_" x="-18.1" y="5.5" class="st10" width="245.5" height="66.7"/>
			<rect id="XMLID_44_" x="-18.1" y="138.8" class="st11" width="245.5" height="66.7"/>
			<rect id="XMLID_43_" x="-18.1" y="72.2" class="st12" width="245.5" height="66.7"/>
		</g>
	</g>
</g>
<g id="Layer_1">
	<g id="XMLID_21_">
		<g id="XMLID_22_">
			<defs>
				<circle id="XMLID_23_" cx="104.6" cy="105" r="100"/>
			</defs>
			<clipPath id="XMLID_50_">
				<use xlink:href="#XMLID_23_"  style="overflow:visible;"/>
			</clipPath>
			<rect id="XMLID_39_" x="-18.2" y="5" class="st13" width="245.5" height="217.3"/>
			<g id="XMLID_30_" class="st14">
				<g id="XMLID_35_">
					
						<rect id="XMLID_38_" x="102.5" y="-6.8" transform="matrix(-0.7071 0.7071 -0.7071 -0.7071 270.8418 122.5968)" class="st2" width="15" height="248.3"/>
					<g id="XMLID_36_">
						
							<rect id="XMLID_37_" x="96.4" y="-16" transform="matrix(-0.7071 0.7071 -0.7071 -0.7071 248.6131 113.389)" class="st15" width="8.8" height="248.3"/>
					</g>
				</g>
				<g id="XMLID_31_">
					
						<rect id="XMLID_34_" x="80.3" y="-0.6" transform="matrix(-0.7071 -0.7071 0.7071 -0.7071 62.5484 272.9369)" class="st2" width="15" height="248.3"/>
					<g id="XMLID_32_">
						
							<rect id="XMLID_33_" x="92.6" y="-9.9" transform="matrix(-0.7071 -0.7071 0.7071 -0.7071 84.7774 263.7298)" class="st15" width="8.8" height="248.3"/>
					</g>
				</g>
			</g>
			<g id="XMLID_24_" class="st14">
				<g id="XMLID_26_">
					<rect id="XMLID_29_" x="80.3" y="-9.1" class="st2" width="43.4" height="248.3"/>
					<rect id="XMLID_28_" x="-0.5" y="83.3" class="st2" width="248.3" height="43.4"/>
					<rect id="XMLID_27_" x="88.8" y="-9.1" class="st15" width="25.4" height="248.3"/>
				</g>
				<rect id="XMLID_25_" x="-13.5" y="92.3" class="st15" width="248.3" height="25.4"/>
			</g>
		</g>
	</g>
</g>
</svg>
